<svg width="410" height="287" viewBox="0 0 410 287" fill="none" xmlns="http://www.w3.org/2000/svg">
<rect width="410" height="287" fill="#121212"/>
<path d="M23 50H386V236H23V50Z" fill="#2E2E2E"/>
<rect x="60.006" y="66" width="108.994" height="53" fill="#634040"/>
<path d="M75.8452 80.004C75.1732 81.828 74.0572 83.616 72.8812 84.768C73.0372 84.96 73.2892 85.416 73.3852 85.608C73.7932 85.188 74.2012 84.696 74.5732 84.168V90.9H75.4492V82.8C75.9172 81.984 76.3252 81.12 76.6612 80.256L75.8452 80.004ZM79.2892 89.952C78.4372 89.952 78.2812 89.796 78.2812 89.112V84.888L80.0332 84.192V88.26H80.8852V83.856L82.7572 83.124C82.7452 84.996 82.7212 86.256 82.6252 86.58C82.5532 86.892 82.4332 86.94 82.2172 86.94C82.0612 86.94 81.6292 86.94 81.3052 86.916C81.4132 87.132 81.4972 87.492 81.5212 87.756C81.8812 87.768 82.4092 87.756 82.7332 87.672C83.1052 87.576 83.3572 87.348 83.4532 86.796C83.5612 86.292 83.5972 84.564 83.5972 82.404L83.6332 82.248L83.0212 81.996L82.8652 82.128L82.7452 82.236L80.8852 82.956V79.98H80.0332V83.268L78.2812 83.952V81.144H77.4052V84.3L75.8932 84.888L76.2412 85.668L77.4052 85.212V89.112C77.4052 90.42 77.8252 90.756 79.2532 90.756H82.3852C83.7052 90.756 83.9812 90.228 84.1372 88.584C83.8732 88.524 83.5252 88.368 83.3092 88.212C83.2012 89.628 83.0812 89.952 82.3492 89.952H79.2892ZM94.0252 82.284L93.2212 81.9C93.0772 81.96 92.7172 82.008 92.4772 82.008H88.0492C87.6532 82.008 87.2692 81.984 86.9092 81.936V83.004C87.2932 82.98 87.6172 82.956 88.0612 82.956H92.7892C92.7532 83.796 92.2492 87.012 92.0332 88.296H86.6212C86.2852 88.296 85.9252 88.272 85.5652 88.224V89.316C85.9372 89.28 86.2852 89.268 86.6212 89.268H94.7212C94.9612 89.268 95.4052 89.28 95.7172 89.316V88.224C95.4172 88.26 95.0812 88.296 94.7212 88.296H93.0892C93.2932 87.012 93.7972 83.808 93.9292 82.68C93.9412 82.584 93.9772 82.404 94.0252 82.284ZM97.8412 84.804V85.98C98.2132 85.944 98.8492 85.92 99.5092 85.92H106.097C106.637 85.92 107.141 85.968 107.381 85.98V84.804C107.117 84.828 106.685 84.864 106.085 84.864H99.5092C98.8372 84.864 98.2012 84.828 97.8412 84.804ZM117.947 80.844L117.371 81.024C117.599 81.48 117.875 82.2 118.055 82.716L118.643 82.512C118.487 82.02 118.163 81.276 117.947 80.844ZM119.135 80.484L118.559 80.664C118.799 81.108 119.075 81.804 119.267 82.332L119.855 82.14C119.687 81.648 119.363 80.916 119.135 80.484ZM116.807 84.696V84.276H118.127C118.655 84.276 119.087 84.3 119.219 84.312V83.292C119.051 83.328 118.655 83.364 118.115 83.364H116.807V81.864C116.807 81.384 116.855 81 116.867 80.88H115.787C115.799 80.988 115.835 81.384 115.835 81.864V83.364H112.427V81.816C112.427 81.408 112.463 81.06 112.475 80.952H111.407C111.443 81.228 111.467 81.564 111.467 81.828V83.364H110.171C109.667 83.364 109.079 83.304 108.971 83.28V84.324C109.103 84.312 109.643 84.276 110.171 84.276H111.467V86.22C111.467 86.676 111.419 87.192 111.407 87.3H112.475C112.463 87.192 112.427 86.664 112.427 86.22V84.276H115.835V84.78C115.835 88.14 114.755 89.172 112.571 90L113.375 90.768C116.111 89.544 116.807 87.888 116.807 84.696ZM121.607 84.804V85.98C121.979 85.944 122.615 85.92 123.275 85.92H129.863C130.403 85.92 130.907 85.968 131.147 85.98V84.804C130.883 84.828 130.451 84.864 129.851 84.864H123.275C122.603 84.864 121.967 84.828 121.607 84.804ZM143.279 85.8C143.279 83.364 141.491 81.384 138.683 81.384C135.755 81.384 133.439 83.664 133.439 86.268C133.439 88.248 134.507 89.472 135.575 89.472C136.691 89.472 137.639 88.212 138.371 85.74C138.707 84.624 138.935 83.4 139.091 82.284C141.131 82.452 142.295 83.952 142.295 85.764C142.295 87.84 140.783 88.98 139.247 89.328C138.971 89.388 138.599 89.448 138.215 89.484L138.779 90.372C141.623 90 143.279 88.32 143.279 85.8ZM134.375 86.184C134.375 84.552 135.791 82.584 138.095 82.296C137.963 83.4 137.723 84.54 137.423 85.536C136.811 87.564 136.175 88.368 135.611 88.368C135.071 88.368 134.375 87.696 134.375 86.184ZM153.167 86.448V87.708H147.719V86.448H153.167ZM147.719 89.712V88.416H153.167V89.712H147.719ZM146.831 90.924H147.719V90.48H153.167V90.888H154.103V85.68H146.831V90.924ZM152.615 83.832C152.915 83.352 153.239 82.668 153.551 82.044L152.735 81.852H155.111V81.048H150.815V79.956H149.903V81.048H145.763V81.852H152.567C152.387 82.404 152.027 83.184 151.751 83.688L152.291 83.832H148.415L149.027 83.676C148.919 83.172 148.619 82.416 148.259 81.864L147.407 82.044C147.719 82.584 148.019 83.316 148.115 83.832H145.079V84.648H155.699V83.832H152.615ZM74.123 100.227L77.791 101.709V102.857L72.998 100.637V99.7812L77.791 97.5664V98.7148L74.123 100.227ZM81.125 95.4688L83.9141 102.43L86.7031 95.4688H88.1621V104H87.0371V100.678L87.1426 97.0918L84.3418 104H83.4805L80.6855 97.1094L80.7969 100.678V104H79.6719V95.4688H81.125ZM92.6094 104.117C91.75 104.117 91.0508 103.836 90.5117 103.273C89.9727 102.707 89.7031 101.951 89.7031 101.006V100.807C89.7031 100.178 89.8223 99.6172 90.0605 99.125C90.3027 98.6289 90.6387 98.2422 91.0684 97.9648C91.502 97.6836 91.9707 97.543 92.4746 97.543C93.2988 97.543 93.9395 97.8145 94.3965 98.3574C94.8535 98.9004 95.082 99.6777 95.082 100.689V101.141H90.7871C90.8027 101.766 90.9844 102.271 91.332 102.658C91.6836 103.041 92.1289 103.232 92.668 103.232C93.0508 103.232 93.375 103.154 93.6406 102.998C93.9062 102.842 94.1387 102.635 94.3379 102.377L95 102.893C94.4688 103.709 93.6719 104.117 92.6094 104.117ZM92.4746 98.4336C92.0371 98.4336 91.6699 98.5938 91.373 98.9141C91.0762 99.2305 90.8926 99.6758 90.8223 100.25H93.998V100.168C93.9668 99.6172 93.8184 99.1914 93.5527 98.8906C93.2871 98.5859 92.9277 98.4336 92.4746 98.4336ZM96.0781 100.777C96.0781 99.8047 96.3086 99.0234 96.7695 98.4336C97.2305 97.8398 97.834 97.543 98.5801 97.543C99.3223 97.543 99.9102 97.7969 100.344 98.3047V95H101.428V104H100.432L100.379 103.32C99.9453 103.852 99.3418 104.117 98.5684 104.117C97.834 104.117 97.2344 103.816 96.7695 103.215C96.3086 102.613 96.0781 101.828 96.0781 100.859V100.777ZM97.1621 100.9C97.1621 101.619 97.3105 102.182 97.6074 102.588C97.9043 102.994 98.3145 103.197 98.8379 103.197C99.5254 103.197 100.027 102.889 100.344 102.271V99.3594C100.02 98.7617 99.5215 98.4629 98.8496 98.4629C98.3184 98.4629 97.9043 98.668 97.6074 99.0781C97.3105 99.4883 97.1621 100.096 97.1621 100.9ZM104.293 104H103.209V97.6602H104.293V104ZM103.121 95.9785C103.121 95.8027 103.174 95.6543 103.279 95.5332C103.389 95.4121 103.549 95.3516 103.76 95.3516C103.971 95.3516 104.131 95.4121 104.24 95.5332C104.35 95.6543 104.404 95.8027 104.404 95.9785C104.404 96.1543 104.35 96.3008 104.24 96.418C104.131 96.5352 103.971 96.5938 103.76 96.5938C103.549 96.5938 103.389 96.5352 103.279 96.418C103.174 96.3008 103.121 96.1543 103.121 95.9785ZM109.947 104C109.885 103.875 109.834 103.652 109.795 103.332C109.291 103.855 108.689 104.117 107.99 104.117C107.365 104.117 106.852 103.941 106.449 103.59C106.051 103.234 105.852 102.785 105.852 102.242C105.852 101.582 106.102 101.07 106.602 100.707C107.105 100.34 107.812 100.156 108.723 100.156H109.777V99.6582C109.777 99.2793 109.664 98.9785 109.438 98.7559C109.211 98.5293 108.877 98.416 108.436 98.416C108.049 98.416 107.725 98.5137 107.463 98.709C107.201 98.9043 107.07 99.1406 107.07 99.418H105.98C105.98 99.1016 106.092 98.7969 106.314 98.5039C106.541 98.207 106.846 97.9727 107.229 97.8008C107.615 97.6289 108.039 97.543 108.5 97.543C109.23 97.543 109.803 97.7266 110.217 98.0938C110.631 98.457 110.846 98.959 110.861 99.5996V102.518C110.861 103.1 110.936 103.562 111.084 103.906V104H109.947ZM108.148 103.174C108.488 103.174 108.811 103.086 109.115 102.91C109.42 102.734 109.641 102.506 109.777 102.225V100.924H108.928C107.6 100.924 106.936 101.312 106.936 102.09C106.936 102.43 107.049 102.695 107.275 102.887C107.502 103.078 107.793 103.174 108.148 103.174ZM115.244 100.197C114.279 99.9199 113.576 99.5801 113.135 99.1777C112.697 98.7715 112.479 98.2715 112.479 97.6777C112.479 97.0059 112.746 96.4512 113.281 96.0137C113.82 95.5723 114.52 95.3516 115.379 95.3516C115.965 95.3516 116.486 95.4648 116.943 95.6914C117.404 95.918 117.76 96.2305 118.01 96.6289C118.264 97.0273 118.391 97.4629 118.391 97.9355H117.26C117.26 97.4199 117.096 97.0156 116.768 96.7227C116.439 96.4258 115.977 96.2773 115.379 96.2773C114.824 96.2773 114.391 96.4004 114.078 96.6465C113.77 96.8887 113.615 97.2266 113.615 97.6602C113.615 98.0078 113.762 98.3027 114.055 98.5449C114.352 98.7832 114.854 99.002 115.561 99.2012C116.271 99.4004 116.826 99.6211 117.225 99.8633C117.627 100.102 117.924 100.381 118.115 100.701C118.311 101.021 118.408 101.398 118.408 101.832C118.408 102.523 118.139 103.078 117.6 103.496C117.061 103.91 116.34 104.117 115.438 104.117C114.852 104.117 114.305 104.006 113.797 103.783C113.289 103.557 112.896 103.248 112.619 102.857C112.346 102.467 112.209 102.023 112.209 101.527H113.34C113.34 102.043 113.529 102.451 113.908 102.752C114.291 103.049 114.801 103.197 115.438 103.197C116.031 103.197 116.486 103.076 116.803 102.834C117.119 102.592 117.277 102.262 117.277 101.844C117.277 101.426 117.131 101.104 116.838 100.877C116.545 100.646 116.014 100.42 115.244 100.197ZM121.156 96.125V97.6602H122.34V98.498H121.156V102.43C121.156 102.684 121.209 102.875 121.314 103.004C121.42 103.129 121.6 103.191 121.854 103.191C121.979 103.191 122.15 103.168 122.369 103.121V104C122.084 104.078 121.807 104.117 121.537 104.117C121.053 104.117 120.688 103.971 120.441 103.678C120.195 103.385 120.072 102.969 120.072 102.43V98.498H118.918V97.6602H120.072V96.125H121.156ZM126.676 98.6328C126.512 98.6055 126.334 98.5918 126.143 98.5918C125.432 98.5918 124.949 98.8945 124.695 99.5V104H123.611V97.6602H124.666L124.684 98.3926C125.039 97.8262 125.543 97.543 126.195 97.543C126.406 97.543 126.566 97.5703 126.676 97.625V98.6328ZM130.191 104.117C129.332 104.117 128.633 103.836 128.094 103.273C127.555 102.707 127.285 101.951 127.285 101.006V100.807C127.285 100.178 127.404 99.6172 127.643 99.125C127.885 98.6289 128.221 98.2422 128.65 97.9648C129.084 97.6836 129.553 97.543 130.057 97.543C130.881 97.543 131.521 97.8145 131.979 98.3574C132.436 98.9004 132.664 99.6777 132.664 100.689V101.141H128.369C128.385 101.766 128.566 102.271 128.914 102.658C129.266 103.041 129.711 103.232 130.25 103.232C130.633 103.232 130.957 103.154 131.223 102.998C131.488 102.842 131.721 102.635 131.92 102.377L132.582 102.893C132.051 103.709 131.254 104.117 130.191 104.117ZM130.057 98.4336C129.619 98.4336 129.252 98.5938 128.955 98.9141C128.658 99.2305 128.475 99.6758 128.404 100.25H131.58V100.168C131.549 99.6172 131.4 99.1914 131.135 98.8906C130.869 98.5859 130.51 98.4336 130.057 98.4336ZM137.838 104C137.775 103.875 137.725 103.652 137.686 103.332C137.182 103.855 136.58 104.117 135.881 104.117C135.256 104.117 134.742 103.941 134.34 103.59C133.941 103.234 133.742 102.785 133.742 102.242C133.742 101.582 133.992 101.07 134.492 100.707C134.996 100.34 135.703 100.156 136.613 100.156H137.668V99.6582C137.668 99.2793 137.555 98.9785 137.328 98.7559C137.102 98.5293 136.768 98.416 136.326 98.416C135.939 98.416 135.615 98.5137 135.354 98.709C135.092 98.9043 134.961 99.1406 134.961 99.418H133.871C133.871 99.1016 133.982 98.7969 134.205 98.5039C134.432 98.207 134.736 97.9727 135.119 97.8008C135.506 97.6289 135.93 97.543 136.391 97.543C137.121 97.543 137.693 97.7266 138.107 98.0938C138.521 98.457 138.736 98.959 138.752 99.5996V102.518C138.752 103.1 138.826 103.562 138.975 103.906V104H137.838ZM136.039 103.174C136.379 103.174 136.701 103.086 137.006 102.91C137.311 102.734 137.531 102.506 137.668 102.225V100.924H136.818C135.49 100.924 134.826 101.312 134.826 102.09C134.826 102.43 134.939 102.695 135.166 102.887C135.393 103.078 135.684 103.174 136.039 103.174ZM141.471 97.6602L141.5 98.3633C141.965 97.8164 142.592 97.543 143.381 97.543C144.268 97.543 144.871 97.8828 145.191 98.5625C145.402 98.2578 145.676 98.0117 146.012 97.8242C146.352 97.6367 146.752 97.543 147.213 97.543C148.604 97.543 149.311 98.2793 149.334 99.752V104H148.25V99.8164C148.25 99.3633 148.146 99.0254 147.939 98.8027C147.732 98.5762 147.385 98.4629 146.896 98.4629C146.494 98.4629 146.16 98.584 145.895 98.8262C145.629 99.0645 145.475 99.3867 145.432 99.793V104H144.342V99.8457C144.342 98.9238 143.891 98.4629 142.988 98.4629C142.277 98.4629 141.791 98.7656 141.529 99.3711V104H140.445V97.6602H141.471ZM154.812 100.191L150.939 98.6738V97.5605L155.943 99.7754V100.631L150.939 102.852V101.727L154.812 100.191Z" fill="#DDDDDD"/>
<rect x="243.006" y="66" width="108.994" height="53" fill="#3C5226"/>
<path d="M285.92 81.6H283.496V79.992H282.644V81.6H280.112V82.404H285.92V81.6ZM285.968 85.008C285.728 84.384 285.092 83.448 284.492 82.764L283.796 83.124C284.384 83.82 284.996 84.792 285.224 85.428L285.968 85.008ZM281.516 82.824C281.156 83.736 280.544 84.66 279.884 85.272C280.076 85.392 280.424 85.656 280.568 85.8C281.252 85.116 281.936 84.072 282.356 83.052L281.516 82.824ZM283.82 84.852C283.652 85.476 283.436 86.052 283.184 86.592C282.668 86.16 282.14 85.728 281.66 85.368L281.132 85.98C281.66 86.388 282.236 86.868 282.776 87.348C282.056 88.548 281.084 89.508 279.884 90.192C280.076 90.348 280.388 90.72 280.496 90.888C281.672 90.156 282.644 89.172 283.412 87.96C283.952 88.488 284.42 89.004 284.732 89.436L285.296 88.704C284.96 88.272 284.444 87.732 283.844 87.192C284.18 86.532 284.468 85.812 284.696 85.032L283.82 84.852ZM290.66 82.716H288.104C288.128 81.864 288.14 80.976 288.14 80.088H287.276C287.276 80.976 287.276 81.864 287.252 82.716H285.764V83.556H287.216C287.084 86.4 286.604 88.872 284.804 90.336C285.02 90.468 285.32 90.768 285.464 90.96C287.396 89.328 287.924 86.64 288.068 83.556H289.82C289.724 87.936 289.592 89.508 289.316 89.856C289.208 90.012 289.088 90.048 288.884 90.048C288.656 90.048 288.092 90.036 287.456 89.976C287.6 90.216 287.696 90.576 287.708 90.816C288.296 90.84 288.884 90.852 289.244 90.816C289.616 90.78 289.844 90.684 290.06 90.372C290.444 89.868 290.552 88.2 290.66 83.148V82.716ZM294.344 84.504V83.268H297.044V84.504H294.344ZM294.344 81.312H297.044V82.536H294.344V81.312ZM300.692 82.536H297.968V81.312H300.692V82.536ZM300.692 84.504H297.968V83.268H300.692V84.504ZM302.732 87.108V86.28H297.968V85.272H301.64V80.532H293.444V85.272H297.044V86.28H292.28V87.108H296.3C295.244 88.248 293.54 89.28 291.98 89.784C292.172 89.964 292.46 90.312 292.58 90.516C294.14 89.928 295.892 88.788 297.044 87.48V90.924H297.968V87.42C299.144 88.692 300.908 89.856 302.432 90.468C302.564 90.252 302.84 89.904 303.044 89.724C301.532 89.22 299.816 88.212 298.712 87.108H302.732ZM312.284 86.448V87.708H306.836V86.448H312.284ZM306.836 89.712V88.416H312.284V89.712H306.836ZM305.948 90.924H306.836V90.48H312.284V90.888H313.22V85.68H305.948V90.924ZM311.732 83.832C312.032 83.352 312.356 82.668 312.668 82.044L311.852 81.852H314.228V81.048H309.932V79.956H309.02V81.048H304.88V81.852H311.684C311.504 82.404 311.144 83.184 310.868 83.688L311.408 83.832H307.532L308.144 83.676C308.036 83.172 307.736 82.416 307.376 81.864L306.524 82.044C306.836 82.584 307.136 83.316 307.232 83.832H304.196V84.648H314.816V83.832H311.732ZM261.037 100.227L264.705 101.709V102.857L259.912 100.637V99.7812L264.705 97.5664V98.7148L261.037 100.227ZM271.297 101.773H267.723L266.92 104H265.76L269.018 95.4688H270.002L273.266 104H272.111L271.297 101.773ZM268.062 100.848H270.963L269.51 96.8574L268.062 100.848ZM278.088 103.373C277.666 103.869 277.047 104.117 276.23 104.117C275.555 104.117 275.039 103.922 274.684 103.531C274.332 103.137 274.154 102.555 274.15 101.785V97.6602H275.234V101.756C275.234 102.717 275.625 103.197 276.406 103.197C277.234 103.197 277.785 102.889 278.059 102.271V97.6602H279.143V104H278.111L278.088 103.373ZM280.531 100.777C280.531 99.8047 280.762 99.0234 281.223 98.4336C281.684 97.8398 282.287 97.543 283.033 97.543C283.775 97.543 284.363 97.7969 284.797 98.3047V95H285.881V104H284.885L284.832 103.32C284.398 103.852 283.795 104.117 283.021 104.117C282.287 104.117 281.688 103.816 281.223 103.215C280.762 102.613 280.531 101.828 280.531 100.859V100.777ZM281.615 100.9C281.615 101.619 281.764 102.182 282.061 102.588C282.357 102.994 282.768 103.197 283.291 103.197C283.979 103.197 284.48 102.889 284.797 102.271V99.3594C284.473 98.7617 283.975 98.4629 283.303 98.4629C282.771 98.4629 282.357 98.668 282.061 99.0781C281.764 99.4883 281.615 100.096 281.615 100.9ZM288.746 104H287.662V97.6602H288.746V104ZM287.574 95.9785C287.574 95.8027 287.627 95.6543 287.732 95.5332C287.842 95.4121 288.002 95.3516 288.213 95.3516C288.424 95.3516 288.584 95.4121 288.693 95.5332C288.803 95.6543 288.857 95.8027 288.857 95.9785C288.857 96.1543 288.803 96.3008 288.693 96.418C288.584 96.5352 288.424 96.5938 288.213 96.5938C288.002 96.5938 287.842 96.5352 287.732 96.418C287.627 96.3008 287.574 96.1543 287.574 95.9785ZM290.199 100.771C290.199 100.15 290.32 99.5918 290.562 99.0957C290.809 98.5996 291.148 98.2168 291.582 97.9473C292.02 97.6777 292.518 97.543 293.076 97.543C293.939 97.543 294.637 97.8418 295.168 98.4395C295.703 99.0371 295.971 99.832 295.971 100.824V100.9C295.971 101.518 295.852 102.072 295.613 102.564C295.379 103.053 295.041 103.434 294.6 103.707C294.162 103.98 293.658 104.117 293.088 104.117C292.229 104.117 291.531 103.818 290.996 103.221C290.465 102.623 290.199 101.832 290.199 100.848V100.771ZM291.289 100.9C291.289 101.604 291.451 102.168 291.775 102.594C292.104 103.02 292.541 103.232 293.088 103.232C293.639 103.232 294.076 103.018 294.4 102.588C294.725 102.154 294.887 101.549 294.887 100.771C294.887 100.076 294.721 99.5137 294.389 99.084C294.061 98.6504 293.623 98.4336 293.076 98.4336C292.541 98.4336 292.109 98.6465 291.781 99.0723C291.453 99.498 291.289 100.107 291.289 100.9ZM297.5 104V95.4688H300.289C301.215 95.4688 301.91 95.6602 302.375 96.043C302.844 96.4258 303.078 96.9922 303.078 97.7422C303.078 98.1406 302.965 98.4941 302.738 98.8027C302.512 99.1074 302.203 99.3438 301.812 99.5117C302.273 99.6406 302.637 99.8867 302.902 100.25C303.172 100.609 303.307 101.039 303.307 101.539C303.307 102.305 303.059 102.906 302.562 103.344C302.066 103.781 301.365 104 300.459 104H297.5ZM298.625 100.01V103.08H300.482C301.006 103.08 301.418 102.945 301.719 102.676C302.023 102.402 302.176 102.027 302.176 101.551C302.176 100.523 301.617 100.01 300.5 100.01H298.625ZM298.625 99.1074H300.324C300.816 99.1074 301.209 98.9844 301.502 98.7383C301.799 98.4922 301.947 98.1582 301.947 97.7363C301.947 97.2676 301.811 96.9277 301.537 96.7168C301.264 96.502 300.848 96.3945 300.289 96.3945H298.625V99.1074ZM308.721 103.373C308.299 103.869 307.68 104.117 306.863 104.117C306.188 104.117 305.672 103.922 305.316 103.531C304.965 103.137 304.787 102.555 304.783 101.785V97.6602H305.867V101.756C305.867 102.717 306.258 103.197 307.039 103.197C307.867 103.197 308.418 102.889 308.691 102.271V97.6602H309.775V104H308.744L308.721 103.373ZM311.961 104V98.498H310.959V97.6602H311.961V97.0098C311.961 96.3301 312.143 95.8047 312.506 95.4336C312.869 95.0625 313.383 94.877 314.047 94.877C314.297 94.877 314.545 94.9102 314.791 94.9766L314.732 95.8555C314.549 95.8203 314.354 95.8027 314.146 95.8027C313.795 95.8027 313.523 95.9062 313.332 96.1133C313.141 96.3164 313.045 96.6094 313.045 96.9922V97.6602H314.398V98.498H313.045V104H311.961ZM316.133 104V98.498H315.131V97.6602H316.133V97.0098C316.133 96.3301 316.314 95.8047 316.678 95.4336C317.041 95.0625 317.555 94.877 318.219 94.877C318.469 94.877 318.717 94.9102 318.963 94.9766L318.904 95.8555C318.721 95.8203 318.525 95.8027 318.318 95.8027C317.967 95.8027 317.695 95.9062 317.504 96.1133C317.312 96.3164 317.217 96.6094 317.217 96.9922V97.6602H318.57V98.498H317.217V104H316.133ZM322.262 104.117C321.402 104.117 320.703 103.836 320.164 103.273C319.625 102.707 319.355 101.951 319.355 101.006V100.807C319.355 100.178 319.475 99.6172 319.713 99.125C319.955 98.6289 320.291 98.2422 320.721 97.9648C321.154 97.6836 321.623 97.543 322.127 97.543C322.951 97.543 323.592 97.8145 324.049 98.3574C324.506 98.9004 324.734 99.6777 324.734 100.689V101.141H320.439C320.455 101.766 320.637 102.271 320.984 102.658C321.336 103.041 321.781 103.232 322.32 103.232C322.703 103.232 323.027 103.154 323.293 102.998C323.559 102.842 323.791 102.635 323.99 102.377L324.652 102.893C324.121 103.709 323.324 104.117 322.262 104.117ZM322.127 98.4336C321.689 98.4336 321.322 98.5938 321.025 98.9141C320.729 99.2305 320.545 99.6758 320.475 100.25H323.65V100.168C323.619 99.6172 323.471 99.1914 323.205 98.8906C322.939 98.5859 322.58 98.4336 322.127 98.4336ZM329.059 98.6328C328.895 98.6055 328.717 98.5918 328.525 98.5918C327.814 98.5918 327.332 98.8945 327.078 99.5V104H325.994V97.6602H327.049L327.066 98.3926C327.422 97.8262 327.926 97.543 328.578 97.543C328.789 97.543 328.949 97.5703 329.059 97.625V98.6328ZM333.898 100.191L330.025 98.6738V97.5605L335.029 99.7754V100.631L330.025 102.852V101.727L333.898 100.191Z" fill="#DDDDDD"/>
<path d="M113.939 67.0607C114.525 67.6464 115.475 67.6464 116.061 67.0607L125.607 57.5147C126.192 56.9289 126.192 55.9792 125.607 55.3934C125.021 54.8076 124.071 54.8076 123.485 55.3934L115 63.8787L106.515 55.3934C105.929 54.8076 104.979 54.8076 104.393 55.3934C103.808 55.9792 103.808 56.9289 104.393 57.5147L113.939 67.0607ZM113.5 34L113.5 66L116.5 66L116.5 34L113.5 34Z" fill="#DDDDDD"/>
<path d="M99.3066 24.8438C99.3066 24.6445 99.2754 24.4688 99.2129 24.3164C99.1543 24.1602 99.0488 24.0195 98.8965 23.8945C98.748 23.7695 98.541 23.6504 98.2754 23.5371C98.0137 23.4238 97.6816 23.3086 97.2793 23.1914C96.8574 23.0664 96.4766 22.9277 96.1367 22.7754C95.7969 22.6191 95.5059 22.4414 95.2637 22.2422C95.0215 22.043 94.8359 21.8145 94.707 21.5566C94.5781 21.2988 94.5137 21.0039 94.5137 20.6719C94.5137 20.3398 94.582 20.0332 94.7188 19.752C94.8555 19.4707 95.0508 19.2266 95.3047 19.0195C95.5625 18.8086 95.8691 18.6445 96.2246 18.5273C96.5801 18.4102 96.9766 18.3516 97.4141 18.3516C98.0547 18.3516 98.5977 18.4746 99.043 18.7207C99.4922 18.9629 99.834 19.2812 100.068 19.6758C100.303 20.0664 100.42 20.4844 100.42 20.9297H99.2949C99.2949 20.6094 99.2266 20.3262 99.0898 20.0801C98.9531 19.8301 98.7461 19.6348 98.4688 19.4941C98.1914 19.3496 97.8398 19.2773 97.4141 19.2773C97.0117 19.2773 96.6797 19.3379 96.418 19.459C96.1562 19.5801 95.9609 19.7441 95.832 19.9512C95.707 20.1582 95.6445 20.3945 95.6445 20.6602C95.6445 20.8398 95.6816 21.0039 95.7559 21.1523C95.834 21.2969 95.9531 21.4316 96.1133 21.5566C96.2773 21.6816 96.4844 21.7969 96.7344 21.9023C96.9883 22.0078 97.291 22.1094 97.6426 22.207C98.127 22.3438 98.5449 22.4961 98.8965 22.6641C99.248 22.832 99.5371 23.0215 99.7637 23.2324C99.9941 23.4395 100.164 23.6758 100.273 23.9414C100.387 24.2031 100.443 24.5 100.443 24.832C100.443 25.1797 100.373 25.4941 100.232 25.7754C100.092 26.0566 99.8906 26.2969 99.6289 26.4961C99.3672 26.6953 99.0527 26.8496 98.6855 26.959C98.3223 27.0645 97.916 27.1172 97.4668 27.1172C97.0723 27.1172 96.6836 27.0625 96.3008 26.9531C95.9219 26.8438 95.5762 26.6797 95.2637 26.4609C94.9551 26.2422 94.707 25.9727 94.5195 25.6523C94.3359 25.3281 94.2441 24.9531 94.2441 24.5273H95.3691C95.3691 24.8203 95.4258 25.0723 95.5391 25.2832C95.6523 25.4902 95.8066 25.6621 96.002 25.7988C96.2012 25.9355 96.4258 26.0371 96.6758 26.1035C96.9297 26.166 97.1934 26.1973 97.4668 26.1973C97.8613 26.1973 98.1953 26.1426 98.4688 26.0332C98.7422 25.9238 98.9492 25.7676 99.0898 25.5645C99.2344 25.3613 99.3066 25.1211 99.3066 24.8438ZM102.811 18V27H101.721V18H102.811ZM106.684 20.6602L103.918 23.6191L102.371 25.2246L102.283 24.0703L103.391 22.7461L105.359 20.6602H106.684ZM105.693 27L103.432 23.9766L103.994 23.0098L106.971 27H105.693ZM109.584 26.3438L111.348 20.6602H112.508L109.965 27.9785C109.906 28.1348 109.828 28.3027 109.73 28.4824C109.637 28.666 109.516 28.8398 109.367 29.0039C109.219 29.168 109.039 29.3008 108.828 29.4023C108.621 29.5078 108.373 29.5605 108.084 29.5605C107.998 29.5605 107.889 29.5488 107.756 29.5254C107.623 29.502 107.529 29.4824 107.475 29.4668L107.469 28.5879C107.5 28.5918 107.549 28.5957 107.615 28.5996C107.686 28.6074 107.734 28.6113 107.762 28.6113C108.008 28.6113 108.217 28.5781 108.389 28.5117C108.561 28.4492 108.705 28.3418 108.822 28.1895C108.943 28.041 109.047 27.8359 109.133 27.5742L109.584 26.3438ZM108.289 20.6602L109.936 25.582L110.217 26.7246L109.438 27.123L107.105 20.6602H108.289ZM115.895 24.4219L117.588 18.4688H118.408L117.934 20.7832L116.111 27H115.297L115.895 24.4219ZM114.143 18.4688L115.49 24.3047L115.895 27H115.086L113.018 18.4688H114.143ZM120.6 24.2988L121.918 18.4688H123.049L120.986 27H120.178L120.6 24.2988ZM118.531 18.4688L120.178 24.4219L120.775 27H119.961L118.203 20.7832L117.723 18.4688H118.531ZM127.678 25.916V22.6523C127.678 22.4023 127.627 22.1855 127.525 22.002C127.428 21.8145 127.279 21.6699 127.08 21.5684C126.881 21.4668 126.635 21.416 126.342 21.416C126.068 21.416 125.828 21.4629 125.621 21.5566C125.418 21.6504 125.258 21.7734 125.141 21.9258C125.027 22.0781 124.971 22.2422 124.971 22.418H123.887C123.887 22.1914 123.945 21.9668 124.062 21.7441C124.18 21.5215 124.348 21.3203 124.566 21.1406C124.789 20.957 125.055 20.8125 125.363 20.707C125.676 20.5977 126.023 20.543 126.406 20.543C126.867 20.543 127.273 20.6211 127.625 20.7773C127.98 20.9336 128.258 21.1699 128.457 21.4863C128.66 21.7988 128.762 22.1914 128.762 22.6641V25.6172C128.762 25.8281 128.779 26.0527 128.814 26.291C128.854 26.5293 128.91 26.7344 128.984 26.9062V27H127.854C127.799 26.875 127.756 26.709 127.725 26.502C127.693 26.291 127.678 26.0957 127.678 25.916ZM127.865 23.1562L127.877 23.918H126.781C126.473 23.918 126.197 23.9434 125.955 23.9941C125.713 24.041 125.51 24.1133 125.346 24.2109C125.182 24.3086 125.057 24.4316 124.971 24.5801C124.885 24.7246 124.842 24.8945 124.842 25.0898C124.842 25.2891 124.887 25.4707 124.977 25.6348C125.066 25.7988 125.201 25.9297 125.381 26.0273C125.564 26.1211 125.789 26.168 126.055 26.168C126.387 26.168 126.68 26.0977 126.934 25.957C127.188 25.8164 127.389 25.6445 127.537 25.4414C127.689 25.2383 127.771 25.041 127.783 24.8496L128.246 25.3711C128.219 25.5352 128.145 25.7168 128.023 25.916C127.902 26.1152 127.74 26.3066 127.537 26.4902C127.338 26.6699 127.1 26.8203 126.822 26.9414C126.549 27.0586 126.24 27.1172 125.896 27.1172C125.467 27.1172 125.09 27.0332 124.766 26.8652C124.445 26.6973 124.195 26.4727 124.016 26.1914C123.84 25.9062 123.752 25.5879 123.752 25.2363C123.752 24.8965 123.818 24.5977 123.951 24.3398C124.084 24.0781 124.275 23.8613 124.525 23.6895C124.775 23.5137 125.076 23.3809 125.428 23.291C125.779 23.2012 126.172 23.1562 126.605 23.1562H127.865ZM132.154 26.3438L133.918 20.6602H135.078L132.535 27.9785C132.477 28.1348 132.398 28.3027 132.301 28.4824C132.207 28.666 132.086 28.8398 131.938 29.0039C131.789 29.168 131.609 29.3008 131.398 29.4023C131.191 29.5078 130.943 29.5605 130.654 29.5605C130.568 29.5605 130.459 29.5488 130.326 29.5254C130.193 29.502 130.1 29.4824 130.045 29.4668L130.039 28.5879C130.07 28.5918 130.119 28.5957 130.186 28.5996C130.256 28.6074 130.305 28.6113 130.332 28.6113C130.578 28.6113 130.787 28.5781 130.959 28.5117C131.131 28.4492 131.275 28.3418 131.393 28.1895C131.514 28.041 131.617 27.8359 131.703 27.5742L132.154 26.3438ZM130.859 20.6602L132.506 25.582L132.787 26.7246L132.008 27.123L129.676 20.6602H130.859Z" fill="#DDDDDD"/>
<path d="M296.939 67.0607C297.525 67.6464 298.475 67.6464 299.061 67.0607L308.607 57.5147C309.192 56.9289 309.192 55.9792 308.607 55.3934C308.021 54.8076 307.071 54.8076 306.485 55.3934L298 63.8787L289.515 55.3934C288.929 54.8076 287.979 54.8076 287.393 55.3934C286.808 55.9792 286.808 56.9289 287.393 57.5147L296.939 67.0607ZM296.5 34L296.5 66L299.5 66L299.5 34L296.5 34Z" fill="#DDDDDD"/>
<path d="M285.248 27V21.498H284.246V20.6602H285.248V20.0098C285.248 19.3301 285.43 18.8047 285.793 18.4336C286.156 18.0625 286.67 17.877 287.334 17.877C287.584 17.877 287.832 17.9102 288.078 17.9766L288.02 18.8555C287.836 18.8203 287.641 18.8027 287.434 18.8027C287.082 18.8027 286.811 18.9062 286.619 19.1133C286.428 19.3164 286.332 19.6094 286.332 19.9922V20.6602H287.686V21.498H286.332V27H285.248ZM291.377 27.1172C290.518 27.1172 289.818 26.8359 289.279 26.2734C288.74 25.707 288.471 24.9512 288.471 24.0059V23.8066C288.471 23.1777 288.59 22.6172 288.828 22.125C289.07 21.6289 289.406 21.2422 289.836 20.9648C290.27 20.6836 290.738 20.543 291.242 20.543C292.066 20.543 292.707 20.8145 293.164 21.3574C293.621 21.9004 293.85 22.6777 293.85 23.6895V24.1406H289.555C289.57 24.7656 289.752 25.2715 290.1 25.6582C290.451 26.041 290.896 26.2324 291.436 26.2324C291.818 26.2324 292.143 26.1543 292.408 25.998C292.674 25.8418 292.906 25.6348 293.105 25.377L293.768 25.8926C293.236 26.709 292.439 27.1172 291.377 27.1172ZM291.242 21.4336C290.805 21.4336 290.438 21.5938 290.141 21.9141C289.844 22.2305 289.66 22.6758 289.59 23.25H292.766V23.168C292.734 22.6172 292.586 22.1914 292.32 21.8906C292.055 21.5859 291.695 21.4336 291.242 21.4336ZM296.58 19.125V20.6602H297.764V21.498H296.58V25.4297C296.58 25.6836 296.633 25.875 296.738 26.0039C296.844 26.1289 297.023 26.1914 297.277 26.1914C297.402 26.1914 297.574 26.168 297.793 26.1211V27C297.508 27.0781 297.23 27.1172 296.961 27.1172C296.477 27.1172 296.111 26.9707 295.865 26.6777C295.619 26.3848 295.496 25.9688 295.496 25.4297V21.498H294.342V20.6602H295.496V19.125H296.58ZM301.578 26.2324C301.965 26.2324 302.303 26.1152 302.592 25.8809C302.881 25.6465 303.041 25.3535 303.072 25.002H304.098C304.078 25.3652 303.953 25.7109 303.723 26.0391C303.492 26.3672 303.184 26.6289 302.797 26.8242C302.414 27.0195 302.008 27.1172 301.578 27.1172C300.715 27.1172 300.027 26.8301 299.516 26.2559C299.008 25.6777 298.754 24.8887 298.754 23.8887V23.707C298.754 23.0898 298.867 22.541 299.094 22.0605C299.32 21.5801 299.645 21.207 300.066 20.9414C300.492 20.6758 300.994 20.543 301.572 20.543C302.283 20.543 302.873 20.7559 303.342 21.1816C303.814 21.6074 304.066 22.1602 304.098 22.8398H303.072C303.041 22.4297 302.885 22.0938 302.604 21.832C302.326 21.5664 301.982 21.4336 301.572 21.4336C301.021 21.4336 300.594 21.6328 300.289 22.0312C299.988 22.4258 299.838 22.998 299.838 23.748V23.9531C299.838 24.6836 299.988 25.2461 300.289 25.6406C300.59 26.0352 301.02 26.2324 301.578 26.2324ZM306.4 21.4277C306.881 20.8379 307.506 20.543 308.275 20.543C309.615 20.543 310.291 21.2988 310.303 22.8105V27H309.219V22.8047C309.215 22.3477 309.109 22.0098 308.902 21.791C308.699 21.5723 308.381 21.4629 307.947 21.4629C307.596 21.4629 307.287 21.5566 307.021 21.7441C306.756 21.9316 306.549 22.1777 306.4 22.4824V27H305.316V18H306.4V21.4277Z" fill="#DDDDDD"/>
<rect x="34" y="135" width="161" height="27" fill="#29405A"/>
<path d="M41.2637 149.227L44.9316 150.709V151.857L40.1387 149.637V148.781L44.9316 146.566V147.715L41.2637 149.227ZM48.2656 144.469L51.0547 151.43L53.8438 144.469H55.3027V153H54.1777V149.678L54.2832 146.092L51.4824 153H50.6211L47.8262 146.109L47.9375 149.678V153H46.8125V144.469H48.2656ZM59.75 153.117C58.8906 153.117 58.1914 152.836 57.6523 152.273C57.1133 151.707 56.8438 150.951 56.8438 150.006V149.807C56.8438 149.178 56.9629 148.617 57.2012 148.125C57.4434 147.629 57.7793 147.242 58.209 146.965C58.6426 146.684 59.1113 146.543 59.6152 146.543C60.4395 146.543 61.0801 146.814 61.5371 147.357C61.9941 147.9 62.2227 148.678 62.2227 149.689V150.141H57.9277C57.9434 150.766 58.125 151.271 58.4727 151.658C58.8242 152.041 59.2695 152.232 59.8086 152.232C60.1914 152.232 60.5156 152.154 60.7812 151.998C61.0469 151.842 61.2793 151.635 61.4785 151.377L62.1406 151.893C61.6094 152.709 60.8125 153.117 59.75 153.117ZM59.6152 147.434C59.1777 147.434 58.8105 147.594 58.5137 147.914C58.2168 148.23 58.0332 148.676 57.9629 149.25H61.1387V149.168C61.1074 148.617 60.959 148.191 60.6934 147.891C60.4277 147.586 60.0684 147.434 59.6152 147.434ZM63.2188 149.777C63.2188 148.805 63.4492 148.023 63.9102 147.434C64.3711 146.84 64.9746 146.543 65.7207 146.543C66.4629 146.543 67.0508 146.797 67.4844 147.305V144H68.5684V153H67.5723L67.5195 152.32C67.0859 152.852 66.4824 153.117 65.709 153.117C64.9746 153.117 64.375 152.816 63.9102 152.215C63.4492 151.613 63.2188 150.828 63.2188 149.859V149.777ZM64.3027 149.9C64.3027 150.619 64.4512 151.182 64.748 151.588C65.0449 151.994 65.4551 152.197 65.9785 152.197C66.666 152.197 67.168 151.889 67.4844 151.271V148.359C67.1602 147.762 66.6621 147.463 65.9902 147.463C65.459 147.463 65.0449 147.668 64.748 148.078C64.4512 148.488 64.3027 149.096 64.3027 149.9ZM71.4336 153H70.3496V146.66H71.4336V153ZM70.2617 144.979C70.2617 144.803 70.3145 144.654 70.4199 144.533C70.5293 144.412 70.6895 144.352 70.9004 144.352C71.1113 144.352 71.2715 144.412 71.3809 144.533C71.4902 144.654 71.5449 144.803 71.5449 144.979C71.5449 145.154 71.4902 145.301 71.3809 145.418C71.2715 145.535 71.1113 145.594 70.9004 145.594C70.6895 145.594 70.5293 145.535 70.4199 145.418C70.3145 145.301 70.2617 145.154 70.2617 144.979ZM77.0879 153C77.0254 152.875 76.9746 152.652 76.9355 152.332C76.4316 152.855 75.8301 153.117 75.1309 153.117C74.5059 153.117 73.9922 152.941 73.5898 152.59C73.1914 152.234 72.9922 151.785 72.9922 151.242C72.9922 150.582 73.2422 150.07 73.7422 149.707C74.2461 149.34 74.9531 149.156 75.8633 149.156H76.918V148.658C76.918 148.279 76.8047 147.979 76.5781 147.756C76.3516 147.529 76.0176 147.416 75.5762 147.416C75.1895 147.416 74.8652 147.514 74.6035 147.709C74.3418 147.904 74.2109 148.141 74.2109 148.418H73.1211C73.1211 148.102 73.2324 147.797 73.4551 147.504C73.6816 147.207 73.9863 146.973 74.3691 146.801C74.7559 146.629 75.1797 146.543 75.6406 146.543C76.3711 146.543 76.9434 146.727 77.3574 147.094C77.7715 147.457 77.9863 147.959 78.002 148.6V151.518C78.002 152.1 78.0762 152.562 78.2246 152.906V153H77.0879ZM75.2891 152.174C75.6289 152.174 75.9512 152.086 76.2559 151.91C76.5605 151.734 76.7812 151.506 76.918 151.225V149.924H76.0684C74.7402 149.924 74.0762 150.312 74.0762 151.09C74.0762 151.43 74.1895 151.695 74.416 151.887C74.6426 152.078 74.9336 152.174 75.2891 152.174ZM82.3848 149.197C81.4199 148.92 80.7168 148.58 80.2754 148.178C79.8379 147.771 79.6191 147.271 79.6191 146.678C79.6191 146.006 79.8867 145.451 80.4219 145.014C80.9609 144.572 81.6602 144.352 82.5195 144.352C83.1055 144.352 83.627 144.465 84.084 144.691C84.5449 144.918 84.9004 145.23 85.1504 145.629C85.4043 146.027 85.5312 146.463 85.5312 146.936H84.4004C84.4004 146.42 84.2363 146.016 83.9082 145.723C83.5801 145.426 83.1172 145.277 82.5195 145.277C81.9648 145.277 81.5312 145.4 81.2188 145.646C80.9102 145.889 80.7559 146.227 80.7559 146.66C80.7559 147.008 80.9023 147.303 81.1953 147.545C81.4922 147.783 81.9941 148.002 82.7012 148.201C83.4121 148.4 83.9668 148.621 84.3652 148.863C84.7676 149.102 85.0645 149.381 85.2559 149.701C85.4512 150.021 85.5488 150.398 85.5488 150.832C85.5488 151.523 85.2793 152.078 84.7402 152.496C84.2012 152.91 83.4805 153.117 82.5781 153.117C81.9922 153.117 81.4453 153.006 80.9375 152.783C80.4297 152.557 80.0371 152.248 79.7598 151.857C79.4863 151.467 79.3496 151.023 79.3496 150.527H80.4805C80.4805 151.043 80.6699 151.451 81.0488 151.752C81.4316 152.049 81.9414 152.197 82.5781 152.197C83.1719 152.197 83.627 152.076 83.9434 151.834C84.2598 151.592 84.418 151.262 84.418 150.844C84.418 150.426 84.2715 150.104 83.9785 149.877C83.6855 149.646 83.1543 149.42 82.3848 149.197ZM88.2969 145.125V146.66H89.4805V147.498H88.2969V151.43C88.2969 151.684 88.3496 151.875 88.4551 152.004C88.5605 152.129 88.7402 152.191 88.9941 152.191C89.1191 152.191 89.291 152.168 89.5098 152.121V153C89.2246 153.078 88.9473 153.117 88.6777 153.117C88.1934 153.117 87.8281 152.971 87.582 152.678C87.3359 152.385 87.2129 151.969 87.2129 151.43V147.498H86.0586V146.66H87.2129V145.125H88.2969ZM93.8164 147.633C93.6523 147.605 93.4746 147.592 93.2832 147.592C92.5723 147.592 92.0898 147.895 91.8359 148.5V153H90.752V146.66H91.8066L91.8242 147.393C92.1797 146.826 92.6836 146.543 93.3359 146.543C93.5469 146.543 93.707 146.57 93.8164 146.625V147.633ZM97.332 153.117C96.4727 153.117 95.7734 152.836 95.2344 152.273C94.6953 151.707 94.4258 150.951 94.4258 150.006V149.807C94.4258 149.178 94.5449 148.617 94.7832 148.125C95.0254 147.629 95.3613 147.242 95.791 146.965C96.2246 146.684 96.6934 146.543 97.1973 146.543C98.0215 146.543 98.6621 146.814 99.1191 147.357C99.5762 147.9 99.8047 148.678 99.8047 149.689V150.141H95.5098C95.5254 150.766 95.707 151.271 96.0547 151.658C96.4062 152.041 96.8516 152.232 97.3906 152.232C97.7734 152.232 98.0977 152.154 98.3633 151.998C98.6289 151.842 98.8613 151.635 99.0605 151.377L99.7227 151.893C99.1914 152.709 98.3945 153.117 97.332 153.117ZM97.1973 147.434C96.7598 147.434 96.3926 147.594 96.0957 147.914C95.7988 148.23 95.6152 148.676 95.5449 149.25H98.7207V149.168C98.6895 148.617 98.541 148.191 98.2754 147.891C98.0098 147.586 97.6504 147.434 97.1973 147.434ZM104.979 153C104.916 152.875 104.865 152.652 104.826 152.332C104.322 152.855 103.721 153.117 103.021 153.117C102.396 153.117 101.883 152.941 101.48 152.59C101.082 152.234 100.883 151.785 100.883 151.242C100.883 150.582 101.133 150.07 101.633 149.707C102.137 149.34 102.844 149.156 103.754 149.156H104.809V148.658C104.809 148.279 104.695 147.979 104.469 147.756C104.242 147.529 103.908 147.416 103.467 147.416C103.08 147.416 102.756 147.514 102.494 147.709C102.232 147.904 102.102 148.141 102.102 148.418H101.012C101.012 148.102 101.123 147.797 101.346 147.504C101.572 147.207 101.877 146.973 102.26 146.801C102.646 146.629 103.07 146.543 103.531 146.543C104.262 146.543 104.834 146.727 105.248 147.094C105.662 147.457 105.877 147.959 105.893 148.6V151.518C105.893 152.1 105.967 152.562 106.115 152.906V153H104.979ZM103.18 152.174C103.52 152.174 103.842 152.086 104.146 151.91C104.451 151.734 104.672 151.506 104.809 151.225V149.924H103.959C102.631 149.924 101.967 150.312 101.967 151.09C101.967 151.43 102.08 151.695 102.307 151.887C102.533 152.078 102.824 152.174 103.18 152.174ZM108.611 146.66L108.641 147.363C109.105 146.816 109.732 146.543 110.521 146.543C111.408 146.543 112.012 146.883 112.332 147.562C112.543 147.258 112.816 147.012 113.152 146.824C113.492 146.637 113.893 146.543 114.354 146.543C115.744 146.543 116.451 147.279 116.475 148.752V153H115.391V148.816C115.391 148.363 115.287 148.025 115.08 147.803C114.873 147.576 114.525 147.463 114.037 147.463C113.635 147.463 113.301 147.584 113.035 147.826C112.77 148.064 112.615 148.387 112.572 148.793V153H111.482V148.846C111.482 147.924 111.031 147.463 110.129 147.463C109.418 147.463 108.932 147.766 108.67 148.371V153H107.586V146.66H108.611ZM120.799 149.197C119.834 148.92 119.131 148.58 118.689 148.178C118.252 147.771 118.033 147.271 118.033 146.678C118.033 146.006 118.301 145.451 118.836 145.014C119.375 144.572 120.074 144.352 120.934 144.352C121.52 144.352 122.041 144.465 122.498 144.691C122.959 144.918 123.314 145.23 123.564 145.629C123.818 146.027 123.945 146.463 123.945 146.936H122.814C122.814 146.42 122.65 146.016 122.322 145.723C121.994 145.426 121.531 145.277 120.934 145.277C120.379 145.277 119.945 145.4 119.633 145.646C119.324 145.889 119.17 146.227 119.17 146.66C119.17 147.008 119.316 147.303 119.609 147.545C119.906 147.783 120.408 148.002 121.115 148.201C121.826 148.4 122.381 148.621 122.779 148.863C123.182 149.102 123.479 149.381 123.67 149.701C123.865 150.021 123.963 150.398 123.963 150.832C123.963 151.523 123.693 152.078 123.154 152.496C122.615 152.91 121.895 153.117 120.992 153.117C120.406 153.117 119.859 153.006 119.352 152.783C118.844 152.557 118.451 152.248 118.174 151.857C117.9 151.467 117.764 151.023 117.764 150.527H118.895C118.895 151.043 119.084 151.451 119.463 151.752C119.846 152.049 120.355 152.197 120.992 152.197C121.586 152.197 122.041 152.076 122.357 151.834C122.674 151.592 122.832 151.262 122.832 150.844C122.832 150.426 122.686 150.104 122.393 149.877C122.1 149.646 121.568 149.42 120.799 149.197ZM124.953 149.771C124.953 149.15 125.074 148.592 125.316 148.096C125.562 147.6 125.902 147.217 126.336 146.947C126.773 146.678 127.271 146.543 127.83 146.543C128.693 146.543 129.391 146.842 129.922 147.439C130.457 148.037 130.725 148.832 130.725 149.824V149.9C130.725 150.518 130.605 151.072 130.367 151.564C130.133 152.053 129.795 152.434 129.354 152.707C128.916 152.98 128.412 153.117 127.842 153.117C126.982 153.117 126.285 152.818 125.75 152.221C125.219 151.623 124.953 150.832 124.953 149.848V149.771ZM126.043 149.9C126.043 150.604 126.205 151.168 126.529 151.594C126.857 152.02 127.295 152.232 127.842 152.232C128.393 152.232 128.83 152.018 129.154 151.588C129.479 151.154 129.641 150.549 129.641 149.771C129.641 149.076 129.475 148.514 129.143 148.084C128.814 147.65 128.377 147.434 127.83 147.434C127.295 147.434 126.863 147.646 126.535 148.072C126.207 148.498 126.043 149.107 126.043 149.9ZM135.998 152.373C135.576 152.869 134.957 153.117 134.141 153.117C133.465 153.117 132.949 152.922 132.594 152.531C132.242 152.137 132.064 151.555 132.061 150.785V146.66H133.145V150.756C133.145 151.717 133.535 152.197 134.316 152.197C135.145 152.197 135.695 151.889 135.969 151.271V146.66H137.053V153H136.021L135.998 152.373ZM141.77 147.633C141.605 147.605 141.428 147.592 141.236 147.592C140.525 147.592 140.043 147.895 139.789 148.5V153H138.705V146.66H139.76L139.777 147.393C140.133 146.826 140.637 146.543 141.289 146.543C141.5 146.543 141.66 146.57 141.77 146.625V147.633ZM145.197 152.232C145.584 152.232 145.922 152.115 146.211 151.881C146.5 151.646 146.66 151.354 146.691 151.002H147.717C147.697 151.365 147.572 151.711 147.342 152.039C147.111 152.367 146.803 152.629 146.416 152.824C146.033 153.02 145.627 153.117 145.197 153.117C144.334 153.117 143.646 152.83 143.135 152.256C142.627 151.678 142.373 150.889 142.373 149.889V149.707C142.373 149.09 142.486 148.541 142.713 148.061C142.939 147.58 143.264 147.207 143.686 146.941C144.111 146.676 144.613 146.543 145.191 146.543C145.902 146.543 146.492 146.756 146.961 147.182C147.434 147.607 147.686 148.16 147.717 148.84H146.691C146.66 148.43 146.504 148.094 146.223 147.832C145.945 147.566 145.602 147.434 145.191 147.434C144.641 147.434 144.213 147.633 143.908 148.031C143.607 148.426 143.457 148.998 143.457 149.748V149.953C143.457 150.684 143.607 151.246 143.908 151.641C144.209 152.035 144.639 152.232 145.197 152.232ZM151.566 153.117C150.707 153.117 150.008 152.836 149.469 152.273C148.93 151.707 148.66 150.951 148.66 150.006V149.807C148.66 149.178 148.779 148.617 149.018 148.125C149.26 147.629 149.596 147.242 150.025 146.965C150.459 146.684 150.928 146.543 151.432 146.543C152.256 146.543 152.896 146.814 153.354 147.357C153.811 147.9 154.039 148.678 154.039 149.689V150.141H149.744C149.76 150.766 149.941 151.271 150.289 151.658C150.641 152.041 151.086 152.232 151.625 152.232C152.008 152.232 152.332 152.154 152.598 151.998C152.863 151.842 153.096 151.635 153.295 151.377L153.957 151.893C153.426 152.709 152.629 153.117 151.566 153.117ZM151.432 147.434C150.994 147.434 150.627 147.594 150.33 147.914C150.033 148.23 149.85 148.676 149.779 149.25H152.955V149.168C152.924 148.617 152.775 148.191 152.51 147.891C152.244 147.586 151.885 147.434 151.432 147.434ZM162.025 153H160.895L156.6 146.426V153H155.469V144.469H156.6L160.906 151.072V144.469H162.025V153ZM163.566 149.771C163.566 149.15 163.688 148.592 163.93 148.096C164.176 147.6 164.516 147.217 164.949 146.947C165.387 146.678 165.885 146.543 166.443 146.543C167.307 146.543 168.004 146.842 168.535 147.439C169.07 148.037 169.338 148.832 169.338 149.824V149.9C169.338 150.518 169.219 151.072 168.98 151.564C168.746 152.053 168.408 152.434 167.967 152.707C167.529 152.98 167.025 153.117 166.455 153.117C165.596 153.117 164.898 152.818 164.363 152.221C163.832 151.623 163.566 150.832 163.566 149.848V149.771ZM164.656 149.9C164.656 150.604 164.818 151.168 165.143 151.594C165.471 152.02 165.908 152.232 166.455 152.232C167.006 152.232 167.443 152.018 167.768 151.588C168.092 151.154 168.254 150.549 168.254 149.771C168.254 149.076 168.088 148.514 167.756 148.084C167.428 147.65 166.99 147.434 166.443 147.434C165.908 147.434 165.477 147.646 165.148 148.072C164.82 148.498 164.656 149.107 164.656 149.9ZM170.434 149.777C170.434 148.805 170.664 148.023 171.125 147.434C171.586 146.84 172.189 146.543 172.936 146.543C173.678 146.543 174.266 146.797 174.699 147.305V144H175.783V153H174.787L174.734 152.32C174.301 152.852 173.697 153.117 172.924 153.117C172.189 153.117 171.59 152.816 171.125 152.215C170.664 151.613 170.434 150.828 170.434 149.859V149.777ZM171.518 149.9C171.518 150.619 171.666 151.182 171.963 151.588C172.26 151.994 172.67 152.197 173.193 152.197C173.881 152.197 174.383 151.889 174.699 151.271V148.359C174.375 147.762 173.877 147.463 173.205 147.463C172.674 147.463 172.26 147.668 171.963 148.078C171.666 148.488 171.518 149.096 171.518 149.9ZM180.102 153.117C179.242 153.117 178.543 152.836 178.004 152.273C177.465 151.707 177.195 150.951 177.195 150.006V149.807C177.195 149.178 177.314 148.617 177.553 148.125C177.795 147.629 178.131 147.242 178.561 146.965C178.994 146.684 179.463 146.543 179.967 146.543C180.791 146.543 181.432 146.814 181.889 147.357C182.346 147.9 182.574 148.678 182.574 149.689V150.141H178.279C178.295 150.766 178.477 151.271 178.824 151.658C179.176 152.041 179.621 152.232 180.16 152.232C180.543 152.232 180.867 152.154 181.133 151.998C181.398 151.842 181.631 151.635 181.83 151.377L182.492 151.893C181.961 152.709 181.164 153.117 180.102 153.117ZM179.967 147.434C179.529 147.434 179.162 147.594 178.865 147.914C178.568 148.23 178.385 148.676 178.314 149.25H181.49V149.168C181.459 148.617 181.311 148.191 181.045 147.891C180.779 147.586 180.42 147.434 179.967 147.434ZM187.672 149.191L183.799 147.674V146.561L188.803 148.775V149.631L183.799 151.852V150.727L187.672 149.191Z" fill="#DDDDDD"/>
<rect x="126" y="194" width="161" height="27" fill="#29405A"/>
<path d="M133.264 208.227L136.932 209.709V210.857L132.139 208.637V207.781L136.932 205.566V206.715L133.264 208.227ZM140.266 203.469L143.055 210.43L145.844 203.469H147.303V212H146.178V208.678L146.283 205.092L143.482 212H142.621L139.826 205.109L139.938 208.678V212H138.812V203.469H140.266ZM151.75 212.117C150.891 212.117 150.191 211.836 149.652 211.273C149.113 210.707 148.844 209.951 148.844 209.006V208.807C148.844 208.178 148.963 207.617 149.201 207.125C149.443 206.629 149.779 206.242 150.209 205.965C150.643 205.684 151.111 205.543 151.615 205.543C152.439 205.543 153.08 205.814 153.537 206.357C153.994 206.9 154.223 207.678 154.223 208.689V209.141H149.928C149.943 209.766 150.125 210.271 150.473 210.658C150.824 211.041 151.27 211.232 151.809 211.232C152.191 211.232 152.516 211.154 152.781 210.998C153.047 210.842 153.279 210.635 153.479 210.377L154.141 210.893C153.609 211.709 152.812 212.117 151.75 212.117ZM151.615 206.434C151.178 206.434 150.811 206.594 150.514 206.914C150.217 207.23 150.033 207.676 149.963 208.25H153.139V208.168C153.107 207.617 152.959 207.191 152.693 206.891C152.428 206.586 152.068 206.434 151.615 206.434ZM155.219 208.777C155.219 207.805 155.449 207.023 155.91 206.434C156.371 205.84 156.975 205.543 157.721 205.543C158.463 205.543 159.051 205.797 159.484 206.305V203H160.568V212H159.572L159.52 211.32C159.086 211.852 158.482 212.117 157.709 212.117C156.975 212.117 156.375 211.816 155.91 211.215C155.449 210.613 155.219 209.828 155.219 208.859V208.777ZM156.303 208.9C156.303 209.619 156.451 210.182 156.748 210.588C157.045 210.994 157.455 211.197 157.979 211.197C158.666 211.197 159.168 210.889 159.484 210.271V207.359C159.16 206.762 158.662 206.463 157.99 206.463C157.459 206.463 157.045 206.668 156.748 207.078C156.451 207.488 156.303 208.096 156.303 208.9ZM163.434 212H162.35V205.66H163.434V212ZM162.262 203.979C162.262 203.803 162.314 203.654 162.42 203.533C162.529 203.412 162.689 203.352 162.9 203.352C163.111 203.352 163.271 203.412 163.381 203.533C163.49 203.654 163.545 203.803 163.545 203.979C163.545 204.154 163.49 204.301 163.381 204.418C163.271 204.535 163.111 204.594 162.9 204.594C162.689 204.594 162.529 204.535 162.42 204.418C162.314 204.301 162.262 204.154 162.262 203.979ZM169.088 212C169.025 211.875 168.975 211.652 168.936 211.332C168.432 211.855 167.83 212.117 167.131 212.117C166.506 212.117 165.992 211.941 165.59 211.59C165.191 211.234 164.992 210.785 164.992 210.242C164.992 209.582 165.242 209.07 165.742 208.707C166.246 208.34 166.953 208.156 167.863 208.156H168.918V207.658C168.918 207.279 168.805 206.979 168.578 206.756C168.352 206.529 168.018 206.416 167.576 206.416C167.189 206.416 166.865 206.514 166.604 206.709C166.342 206.904 166.211 207.141 166.211 207.418H165.121C165.121 207.102 165.232 206.797 165.455 206.504C165.682 206.207 165.986 205.973 166.369 205.801C166.756 205.629 167.18 205.543 167.641 205.543C168.371 205.543 168.943 205.727 169.357 206.094C169.771 206.457 169.986 206.959 170.002 207.6V210.518C170.002 211.1 170.076 211.562 170.225 211.906V212H169.088ZM167.289 211.174C167.629 211.174 167.951 211.086 168.256 210.91C168.561 210.734 168.781 210.506 168.918 210.225V208.924H168.068C166.74 208.924 166.076 209.312 166.076 210.09C166.076 210.43 166.189 210.695 166.416 210.887C166.643 211.078 166.934 211.174 167.289 211.174ZM174.385 208.197C173.42 207.92 172.717 207.58 172.275 207.178C171.838 206.771 171.619 206.271 171.619 205.678C171.619 205.006 171.887 204.451 172.422 204.014C172.961 203.572 173.66 203.352 174.52 203.352C175.105 203.352 175.627 203.465 176.084 203.691C176.545 203.918 176.9 204.23 177.15 204.629C177.404 205.027 177.531 205.463 177.531 205.936H176.4C176.4 205.42 176.236 205.016 175.908 204.723C175.58 204.426 175.117 204.277 174.52 204.277C173.965 204.277 173.531 204.4 173.219 204.646C172.91 204.889 172.756 205.227 172.756 205.66C172.756 206.008 172.902 206.303 173.195 206.545C173.492 206.783 173.994 207.002 174.701 207.201C175.412 207.4 175.967 207.621 176.365 207.863C176.768 208.102 177.064 208.381 177.256 208.701C177.451 209.021 177.549 209.398 177.549 209.832C177.549 210.523 177.279 211.078 176.74 211.496C176.201 211.91 175.48 212.117 174.578 212.117C173.992 212.117 173.445 212.006 172.938 211.783C172.43 211.557 172.037 211.248 171.76 210.857C171.486 210.467 171.35 210.023 171.35 209.527H172.48C172.48 210.043 172.67 210.451 173.049 210.752C173.432 211.049 173.941 211.197 174.578 211.197C175.172 211.197 175.627 211.076 175.943 210.834C176.26 210.592 176.418 210.262 176.418 209.844C176.418 209.426 176.271 209.104 175.979 208.877C175.686 208.646 175.154 208.42 174.385 208.197ZM180.297 204.125V205.66H181.48V206.498H180.297V210.43C180.297 210.684 180.35 210.875 180.455 211.004C180.561 211.129 180.74 211.191 180.994 211.191C181.119 211.191 181.291 211.168 181.51 211.121V212C181.225 212.078 180.947 212.117 180.678 212.117C180.193 212.117 179.828 211.971 179.582 211.678C179.336 211.385 179.213 210.969 179.213 210.43V206.498H178.059V205.66H179.213V204.125H180.297ZM185.816 206.633C185.652 206.605 185.475 206.592 185.283 206.592C184.572 206.592 184.09 206.895 183.836 207.5V212H182.752V205.66H183.807L183.824 206.393C184.18 205.826 184.684 205.543 185.336 205.543C185.547 205.543 185.707 205.57 185.816 205.625V206.633ZM189.332 212.117C188.473 212.117 187.773 211.836 187.234 211.273C186.695 210.707 186.426 209.951 186.426 209.006V208.807C186.426 208.178 186.545 207.617 186.783 207.125C187.025 206.629 187.361 206.242 187.791 205.965C188.225 205.684 188.693 205.543 189.197 205.543C190.021 205.543 190.662 205.814 191.119 206.357C191.576 206.9 191.805 207.678 191.805 208.689V209.141H187.51C187.525 209.766 187.707 210.271 188.055 210.658C188.406 211.041 188.852 211.232 189.391 211.232C189.773 211.232 190.098 211.154 190.363 210.998C190.629 210.842 190.861 210.635 191.061 210.377L191.723 210.893C191.191 211.709 190.395 212.117 189.332 212.117ZM189.197 206.434C188.76 206.434 188.393 206.594 188.096 206.914C187.799 207.23 187.615 207.676 187.545 208.25H190.721V208.168C190.689 207.617 190.541 207.191 190.275 206.891C190.01 206.586 189.65 206.434 189.197 206.434ZM196.979 212C196.916 211.875 196.865 211.652 196.826 211.332C196.322 211.855 195.721 212.117 195.021 212.117C194.396 212.117 193.883 211.941 193.48 211.59C193.082 211.234 192.883 210.785 192.883 210.242C192.883 209.582 193.133 209.07 193.633 208.707C194.137 208.34 194.844 208.156 195.754 208.156H196.809V207.658C196.809 207.279 196.695 206.979 196.469 206.756C196.242 206.529 195.908 206.416 195.467 206.416C195.08 206.416 194.756 206.514 194.494 206.709C194.232 206.904 194.102 207.141 194.102 207.418H193.012C193.012 207.102 193.123 206.797 193.346 206.504C193.572 206.207 193.877 205.973 194.26 205.801C194.646 205.629 195.07 205.543 195.531 205.543C196.262 205.543 196.834 205.727 197.248 206.094C197.662 206.457 197.877 206.959 197.893 207.6V210.518C197.893 211.1 197.967 211.562 198.115 211.906V212H196.979ZM195.18 211.174C195.52 211.174 195.842 211.086 196.146 210.91C196.451 210.734 196.672 210.506 196.809 210.225V208.924H195.959C194.631 208.924 193.967 209.312 193.967 210.09C193.967 210.43 194.08 210.695 194.307 210.887C194.533 211.078 194.824 211.174 195.18 211.174ZM200.611 205.66L200.641 206.363C201.105 205.816 201.732 205.543 202.521 205.543C203.408 205.543 204.012 205.883 204.332 206.562C204.543 206.258 204.816 206.012 205.152 205.824C205.492 205.637 205.893 205.543 206.354 205.543C207.744 205.543 208.451 206.279 208.475 207.752V212H207.391V207.816C207.391 207.363 207.287 207.025 207.08 206.803C206.873 206.576 206.525 206.463 206.037 206.463C205.635 206.463 205.301 206.584 205.035 206.826C204.77 207.064 204.615 207.387 204.572 207.793V212H203.482V207.846C203.482 206.924 203.031 206.463 202.129 206.463C201.418 206.463 200.932 206.766 200.67 207.371V212H199.586V205.66H200.611ZM212.799 208.197C211.834 207.92 211.131 207.58 210.689 207.178C210.252 206.771 210.033 206.271 210.033 205.678C210.033 205.006 210.301 204.451 210.836 204.014C211.375 203.572 212.074 203.352 212.934 203.352C213.52 203.352 214.041 203.465 214.498 203.691C214.959 203.918 215.314 204.23 215.564 204.629C215.818 205.027 215.945 205.463 215.945 205.936H214.814C214.814 205.42 214.65 205.016 214.322 204.723C213.994 204.426 213.531 204.277 212.934 204.277C212.379 204.277 211.945 204.4 211.633 204.646C211.324 204.889 211.17 205.227 211.17 205.66C211.17 206.008 211.316 206.303 211.609 206.545C211.906 206.783 212.408 207.002 213.115 207.201C213.826 207.4 214.381 207.621 214.779 207.863C215.182 208.102 215.479 208.381 215.67 208.701C215.865 209.021 215.963 209.398 215.963 209.832C215.963 210.523 215.693 211.078 215.154 211.496C214.615 211.91 213.895 212.117 212.992 212.117C212.406 212.117 211.859 212.006 211.352 211.783C210.844 211.557 210.451 211.248 210.174 210.857C209.9 210.467 209.764 210.023 209.764 209.527H210.895C210.895 210.043 211.084 210.451 211.463 210.752C211.846 211.049 212.355 211.197 212.992 211.197C213.586 211.197 214.041 211.076 214.357 210.834C214.674 210.592 214.832 210.262 214.832 209.844C214.832 209.426 214.686 209.104 214.393 208.877C214.1 208.646 213.568 208.42 212.799 208.197ZM216.953 208.771C216.953 208.15 217.074 207.592 217.316 207.096C217.562 206.6 217.902 206.217 218.336 205.947C218.773 205.678 219.271 205.543 219.83 205.543C220.693 205.543 221.391 205.842 221.922 206.439C222.457 207.037 222.725 207.832 222.725 208.824V208.9C222.725 209.518 222.605 210.072 222.367 210.564C222.133 211.053 221.795 211.434 221.354 211.707C220.916 211.98 220.412 212.117 219.842 212.117C218.982 212.117 218.285 211.818 217.75 211.221C217.219 210.623 216.953 209.832 216.953 208.848V208.771ZM218.043 208.9C218.043 209.604 218.205 210.168 218.529 210.594C218.857 211.02 219.295 211.232 219.842 211.232C220.393 211.232 220.83 211.018 221.154 210.588C221.479 210.154 221.641 209.549 221.641 208.771C221.641 208.076 221.475 207.514 221.143 207.084C220.814 206.65 220.377 206.434 219.83 206.434C219.295 206.434 218.863 206.646 218.535 207.072C218.207 207.498 218.043 208.107 218.043 208.9ZM227.998 211.373C227.576 211.869 226.957 212.117 226.141 212.117C225.465 212.117 224.949 211.922 224.594 211.531C224.242 211.137 224.064 210.555 224.061 209.785V205.66H225.145V209.756C225.145 210.717 225.535 211.197 226.316 211.197C227.145 211.197 227.695 210.889 227.969 210.271V205.66H229.053V212H228.021L227.998 211.373ZM233.77 206.633C233.605 206.605 233.428 206.592 233.236 206.592C232.525 206.592 232.043 206.895 231.789 207.5V212H230.705V205.66H231.76L231.777 206.393C232.133 205.826 232.637 205.543 233.289 205.543C233.5 205.543 233.66 205.57 233.77 205.625V206.633ZM237.197 211.232C237.584 211.232 237.922 211.115 238.211 210.881C238.5 210.646 238.66 210.354 238.691 210.002H239.717C239.697 210.365 239.572 210.711 239.342 211.039C239.111 211.367 238.803 211.629 238.416 211.824C238.033 212.02 237.627 212.117 237.197 212.117C236.334 212.117 235.646 211.83 235.135 211.256C234.627 210.678 234.373 209.889 234.373 208.889V208.707C234.373 208.09 234.486 207.541 234.713 207.061C234.939 206.58 235.264 206.207 235.686 205.941C236.111 205.676 236.613 205.543 237.191 205.543C237.902 205.543 238.492 205.756 238.961 206.182C239.434 206.607 239.686 207.16 239.717 207.84H238.691C238.66 207.43 238.504 207.094 238.223 206.832C237.945 206.566 237.602 206.434 237.191 206.434C236.641 206.434 236.213 206.633 235.908 207.031C235.607 207.426 235.457 207.998 235.457 208.748V208.953C235.457 209.684 235.607 210.246 235.908 210.641C236.209 211.035 236.639 211.232 237.197 211.232ZM243.566 212.117C242.707 212.117 242.008 211.836 241.469 211.273C240.93 210.707 240.66 209.951 240.66 209.006V208.807C240.66 208.178 240.779 207.617 241.018 207.125C241.26 206.629 241.596 206.242 242.025 205.965C242.459 205.684 242.928 205.543 243.432 205.543C244.256 205.543 244.896 205.814 245.354 206.357C245.811 206.9 246.039 207.678 246.039 208.689V209.141H241.744C241.76 209.766 241.941 210.271 242.289 210.658C242.641 211.041 243.086 211.232 243.625 211.232C244.008 211.232 244.332 211.154 244.598 210.998C244.863 210.842 245.096 210.635 245.295 210.377L245.957 210.893C245.426 211.709 244.629 212.117 243.566 212.117ZM243.432 206.434C242.994 206.434 242.627 206.594 242.33 206.914C242.033 207.23 241.85 207.676 241.779 208.25H244.955V208.168C244.924 207.617 244.775 207.191 244.51 206.891C244.244 206.586 243.885 206.434 243.432 206.434ZM254.025 212H252.895L248.6 205.426V212H247.469V203.469H248.6L252.906 210.072V203.469H254.025V212ZM255.566 208.771C255.566 208.15 255.688 207.592 255.93 207.096C256.176 206.6 256.516 206.217 256.949 205.947C257.387 205.678 257.885 205.543 258.443 205.543C259.307 205.543 260.004 205.842 260.535 206.439C261.07 207.037 261.338 207.832 261.338 208.824V208.9C261.338 209.518 261.219 210.072 260.98 210.564C260.746 211.053 260.408 211.434 259.967 211.707C259.529 211.98 259.025 212.117 258.455 212.117C257.596 212.117 256.898 211.818 256.363 211.221C255.832 210.623 255.566 209.832 255.566 208.848V208.771ZM256.656 208.9C256.656 209.604 256.818 210.168 257.143 210.594C257.471 211.02 257.908 211.232 258.455 211.232C259.006 211.232 259.443 211.018 259.768 210.588C260.092 210.154 260.254 209.549 260.254 208.771C260.254 208.076 260.088 207.514 259.756 207.084C259.428 206.65 258.99 206.434 258.443 206.434C257.908 206.434 257.477 206.646 257.148 207.072C256.82 207.498 256.656 208.107 256.656 208.9ZM262.434 208.777C262.434 207.805 262.664 207.023 263.125 206.434C263.586 205.84 264.189 205.543 264.936 205.543C265.678 205.543 266.266 205.797 266.699 206.305V203H267.783V212H266.787L266.734 211.32C266.301 211.852 265.697 212.117 264.924 212.117C264.189 212.117 263.59 211.816 263.125 211.215C262.664 210.613 262.434 209.828 262.434 208.859V208.777ZM263.518 208.9C263.518 209.619 263.666 210.182 263.963 210.588C264.26 210.994 264.67 211.197 265.193 211.197C265.881 211.197 266.383 210.889 266.699 210.271V207.359C266.375 206.762 265.877 206.463 265.205 206.463C264.674 206.463 264.26 206.668 263.963 207.078C263.666 207.488 263.518 208.096 263.518 208.9ZM272.102 212.117C271.242 212.117 270.543 211.836 270.004 211.273C269.465 210.707 269.195 209.951 269.195 209.006V208.807C269.195 208.178 269.314 207.617 269.553 207.125C269.795 206.629 270.131 206.242 270.561 205.965C270.994 205.684 271.463 205.543 271.967 205.543C272.791 205.543 273.432 205.814 273.889 206.357C274.346 206.9 274.574 207.678 274.574 208.689V209.141H270.279C270.295 209.766 270.477 210.271 270.824 210.658C271.176 211.041 271.621 211.232 272.16 211.232C272.543 211.232 272.867 211.154 273.133 210.998C273.398 210.842 273.631 210.635 273.83 210.377L274.492 210.893C273.961 211.709 273.164 212.117 272.102 212.117ZM271.967 206.434C271.529 206.434 271.162 206.594 270.865 206.914C270.568 207.23 270.385 207.676 270.314 208.25H273.49V208.168C273.459 207.617 273.311 207.191 273.045 206.891C272.779 206.586 272.42 206.434 271.967 206.434ZM279.672 208.191L275.799 206.674V205.561L280.803 207.775V208.631L275.799 210.852V209.727L279.672 208.191Z" fill="#DDDDDD"/>
<rect x="218" y="135" width="161" height="27" fill="#29405A"/>
<path d="M244.242 149.062L248.291 150.703V151.852L243.498 149.631V148.957L244.242 149.062ZM248.291 147.715L244.248 149.379L243.498 149.461V148.781L248.291 146.566V147.715ZM253.213 149.01H251.051L251.039 148.102H253.002C253.326 148.102 253.609 148.047 253.852 147.938C254.094 147.828 254.281 147.672 254.414 147.469C254.551 147.262 254.619 147.016 254.619 146.73C254.619 146.418 254.559 146.164 254.438 145.969C254.32 145.77 254.139 145.625 253.893 145.535C253.65 145.441 253.342 145.395 252.967 145.395H251.303V153H250.172V144.469H252.967C253.404 144.469 253.795 144.514 254.139 144.604C254.482 144.689 254.773 144.826 255.012 145.014C255.254 145.197 255.438 145.432 255.562 145.717C255.688 146.002 255.75 146.344 255.75 146.742C255.75 147.094 255.66 147.412 255.48 147.697C255.301 147.979 255.051 148.209 254.73 148.389C254.414 148.568 254.043 148.684 253.617 148.734L253.213 149.01ZM253.16 153H250.605L251.244 152.08H253.16C253.52 152.08 253.824 152.018 254.074 151.893C254.328 151.768 254.521 151.592 254.654 151.365C254.787 151.135 254.854 150.863 254.854 150.551C254.854 150.234 254.797 149.961 254.684 149.73C254.57 149.5 254.393 149.322 254.15 149.197C253.908 149.072 253.596 149.01 253.213 149.01H251.602L251.613 148.102H253.816L254.057 148.43C254.467 148.465 254.814 148.582 255.1 148.781C255.385 148.977 255.602 149.227 255.75 149.531C255.902 149.836 255.979 150.172 255.979 150.539C255.979 151.07 255.861 151.52 255.627 151.887C255.396 152.25 255.07 152.527 254.648 152.719C254.227 152.906 253.73 153 253.16 153ZM261.363 151.535V146.66H262.453V153H261.416L261.363 151.535ZM261.568 150.199L262.02 150.188C262.02 150.609 261.975 151 261.885 151.359C261.799 151.715 261.658 152.023 261.463 152.285C261.268 152.547 261.012 152.752 260.695 152.9C260.379 153.045 259.994 153.117 259.541 153.117C259.232 153.117 258.949 153.072 258.691 152.982C258.438 152.893 258.219 152.754 258.035 152.566C257.852 152.379 257.709 152.135 257.607 151.834C257.51 151.533 257.461 151.172 257.461 150.75V146.66H258.545V150.762C258.545 151.047 258.576 151.283 258.639 151.471C258.705 151.654 258.793 151.801 258.902 151.91C259.016 152.016 259.141 152.09 259.277 152.133C259.418 152.176 259.562 152.197 259.711 152.197C260.172 152.197 260.537 152.109 260.807 151.934C261.076 151.754 261.27 151.514 261.387 151.213C261.508 150.908 261.568 150.57 261.568 150.199ZM265.723 153H264.639V145.992C264.639 145.535 264.721 145.15 264.885 144.838C265.053 144.521 265.293 144.283 265.605 144.123C265.918 143.959 266.289 143.877 266.719 143.877C266.844 143.877 266.969 143.885 267.094 143.9C267.223 143.916 267.348 143.939 267.469 143.971L267.41 144.855C267.328 144.836 267.234 144.822 267.129 144.814C267.027 144.807 266.926 144.803 266.824 144.803C266.594 144.803 266.395 144.85 266.227 144.943C266.062 145.033 265.938 145.166 265.852 145.342C265.766 145.518 265.723 145.734 265.723 145.992V153ZM267.07 146.66V147.492H263.637V146.66H267.07ZM269.895 153H268.811V145.992C268.811 145.535 268.893 145.15 269.057 144.838C269.225 144.521 269.465 144.283 269.777 144.123C270.09 143.959 270.461 143.877 270.891 143.877C271.016 143.877 271.141 143.885 271.266 143.9C271.395 143.916 271.52 143.939 271.641 143.971L271.582 144.855C271.5 144.836 271.406 144.822 271.301 144.814C271.199 144.807 271.098 144.803 270.996 144.803C270.766 144.803 270.566 144.85 270.398 144.943C270.234 145.033 270.109 145.166 270.023 145.342C269.938 145.518 269.895 145.734 269.895 145.992V153ZM271.242 146.66V147.492H267.809V146.66H271.242ZM274.939 153.117C274.498 153.117 274.098 153.043 273.738 152.895C273.383 152.742 273.076 152.529 272.818 152.256C272.564 151.982 272.369 151.658 272.232 151.283C272.096 150.908 272.027 150.498 272.027 150.053V149.807C272.027 149.291 272.104 148.832 272.256 148.43C272.408 148.023 272.615 147.68 272.877 147.398C273.139 147.117 273.436 146.904 273.768 146.76C274.1 146.615 274.443 146.543 274.799 146.543C275.252 146.543 275.643 146.621 275.971 146.777C276.303 146.934 276.574 147.152 276.785 147.434C276.996 147.711 277.152 148.039 277.254 148.418C277.355 148.793 277.406 149.203 277.406 149.648V150.135H272.672V149.25H276.322V149.168C276.307 148.887 276.248 148.613 276.146 148.348C276.049 148.082 275.893 147.863 275.678 147.691C275.463 147.52 275.17 147.434 274.799 147.434C274.553 147.434 274.326 147.486 274.119 147.592C273.912 147.693 273.734 147.846 273.586 148.049C273.438 148.252 273.322 148.5 273.24 148.793C273.158 149.086 273.117 149.424 273.117 149.807V150.053C273.117 150.354 273.158 150.637 273.24 150.902C273.326 151.164 273.449 151.395 273.609 151.594C273.773 151.793 273.971 151.949 274.201 152.062C274.436 152.176 274.701 152.232 274.998 152.232C275.381 152.232 275.705 152.154 275.971 151.998C276.236 151.842 276.469 151.633 276.668 151.371L277.324 151.893C277.188 152.1 277.014 152.297 276.803 152.484C276.592 152.672 276.332 152.824 276.023 152.941C275.719 153.059 275.357 153.117 274.939 153.117ZM279.756 147.656V153H278.672V146.66H279.727L279.756 147.656ZM281.736 146.625L281.73 147.633C281.641 147.613 281.555 147.602 281.473 147.598C281.395 147.59 281.305 147.586 281.203 147.586C280.953 147.586 280.732 147.625 280.541 147.703C280.35 147.781 280.188 147.891 280.055 148.031C279.922 148.172 279.816 148.34 279.738 148.535C279.664 148.727 279.615 148.938 279.592 149.168L279.287 149.344C279.287 148.961 279.324 148.602 279.398 148.266C279.477 147.93 279.596 147.633 279.756 147.375C279.916 147.113 280.119 146.91 280.365 146.766C280.615 146.617 280.912 146.543 281.256 146.543C281.334 146.543 281.424 146.553 281.525 146.572C281.627 146.588 281.697 146.605 281.736 146.625ZM287.449 150.844C287.449 150.645 287.418 150.469 287.355 150.316C287.297 150.16 287.191 150.02 287.039 149.895C286.891 149.77 286.684 149.65 286.418 149.537C286.156 149.424 285.824 149.309 285.422 149.191C285 149.066 284.619 148.928 284.279 148.775C283.939 148.619 283.648 148.441 283.406 148.242C283.164 148.043 282.979 147.814 282.85 147.557C282.721 147.299 282.656 147.004 282.656 146.672C282.656 146.34 282.725 146.033 282.861 145.752C282.998 145.471 283.193 145.227 283.447 145.02C283.705 144.809 284.012 144.645 284.367 144.527C284.723 144.41 285.119 144.352 285.557 144.352C286.197 144.352 286.74 144.475 287.186 144.721C287.635 144.963 287.977 145.281 288.211 145.676C288.445 146.066 288.562 146.484 288.562 146.93H287.438C287.438 146.609 287.369 146.326 287.232 146.08C287.096 145.83 286.889 145.635 286.611 145.494C286.334 145.35 285.982 145.277 285.557 145.277C285.154 145.277 284.822 145.338 284.561 145.459C284.299 145.58 284.104 145.744 283.975 145.951C283.85 146.158 283.787 146.395 283.787 146.66C283.787 146.84 283.824 147.004 283.898 147.152C283.977 147.297 284.096 147.432 284.256 147.557C284.42 147.682 284.627 147.797 284.877 147.902C285.131 148.008 285.434 148.109 285.785 148.207C286.27 148.344 286.688 148.496 287.039 148.664C287.391 148.832 287.68 149.021 287.906 149.232C288.137 149.439 288.307 149.676 288.416 149.941C288.529 150.203 288.586 150.5 288.586 150.832C288.586 151.18 288.516 151.494 288.375 151.775C288.234 152.057 288.033 152.297 287.771 152.496C287.51 152.695 287.195 152.85 286.828 152.959C286.465 153.064 286.059 153.117 285.609 153.117C285.215 153.117 284.826 153.062 284.443 152.953C284.064 152.844 283.719 152.68 283.406 152.461C283.098 152.242 282.85 151.973 282.662 151.652C282.479 151.328 282.387 150.953 282.387 150.527H283.512C283.512 150.82 283.568 151.072 283.682 151.283C283.795 151.49 283.949 151.662 284.145 151.799C284.344 151.936 284.568 152.037 284.818 152.104C285.072 152.166 285.336 152.197 285.609 152.197C286.004 152.197 286.338 152.143 286.611 152.033C286.885 151.924 287.092 151.768 287.232 151.564C287.377 151.361 287.449 151.121 287.449 150.844ZM289.576 149.9V149.766C289.576 149.309 289.643 148.885 289.775 148.494C289.908 148.1 290.1 147.758 290.35 147.469C290.6 147.176 290.902 146.949 291.258 146.789C291.613 146.625 292.012 146.543 292.453 146.543C292.898 146.543 293.299 146.625 293.654 146.789C294.014 146.949 294.318 147.176 294.568 147.469C294.822 147.758 295.016 148.1 295.148 148.494C295.281 148.885 295.348 149.309 295.348 149.766V149.9C295.348 150.357 295.281 150.781 295.148 151.172C295.016 151.562 294.822 151.904 294.568 152.197C294.318 152.486 294.016 152.713 293.66 152.877C293.309 153.037 292.91 153.117 292.465 153.117C292.02 153.117 291.619 153.037 291.264 152.877C290.908 152.713 290.604 152.486 290.35 152.197C290.1 151.904 289.908 151.562 289.775 151.172C289.643 150.781 289.576 150.357 289.576 149.9ZM290.66 149.766V149.9C290.66 150.217 290.697 150.516 290.771 150.797C290.846 151.074 290.957 151.32 291.105 151.535C291.258 151.75 291.447 151.92 291.674 152.045C291.9 152.166 292.164 152.227 292.465 152.227C292.762 152.227 293.021 152.166 293.244 152.045C293.471 151.92 293.658 151.75 293.807 151.535C293.955 151.32 294.066 151.074 294.141 150.797C294.219 150.516 294.258 150.217 294.258 149.9V149.766C294.258 149.453 294.219 149.158 294.141 148.881C294.066 148.6 293.953 148.352 293.801 148.137C293.652 147.918 293.465 147.746 293.238 147.621C293.016 147.496 292.754 147.434 292.453 147.434C292.156 147.434 291.895 147.496 291.668 147.621C291.445 147.746 291.258 147.918 291.105 148.137C290.957 148.352 290.846 148.6 290.771 148.881C290.697 149.158 290.66 149.453 290.66 149.766ZM300.586 151.535V146.66H301.676V153H300.639L300.586 151.535ZM300.791 150.199L301.242 150.188C301.242 150.609 301.197 151 301.107 151.359C301.021 151.715 300.881 152.023 300.686 152.285C300.49 152.547 300.234 152.752 299.918 152.9C299.602 153.045 299.217 153.117 298.764 153.117C298.455 153.117 298.172 153.072 297.914 152.982C297.66 152.893 297.441 152.754 297.258 152.566C297.074 152.379 296.932 152.135 296.83 151.834C296.732 151.533 296.684 151.172 296.684 150.75V146.66H297.768V150.762C297.768 151.047 297.799 151.283 297.861 151.471C297.928 151.654 298.016 151.801 298.125 151.91C298.238 152.016 298.363 152.09 298.5 152.133C298.641 152.176 298.785 152.197 298.934 152.197C299.395 152.197 299.76 152.109 300.029 151.934C300.299 151.754 300.492 151.514 300.609 151.213C300.73 150.908 300.791 150.57 300.791 150.199ZM304.412 147.656V153H303.328V146.66H304.383L304.412 147.656ZM306.393 146.625L306.387 147.633C306.297 147.613 306.211 147.602 306.129 147.598C306.051 147.59 305.961 147.586 305.859 147.586C305.609 147.586 305.389 147.625 305.197 147.703C305.006 147.781 304.844 147.891 304.711 148.031C304.578 148.172 304.473 148.34 304.395 148.535C304.32 148.727 304.271 148.938 304.248 149.168L303.943 149.344C303.943 148.961 303.98 148.602 304.055 148.266C304.133 147.93 304.252 147.633 304.412 147.375C304.572 147.113 304.775 146.91 305.021 146.766C305.271 146.617 305.568 146.543 305.912 146.543C305.99 146.543 306.08 146.553 306.182 146.572C306.283 146.588 306.354 146.605 306.393 146.625ZM309.814 152.227C310.072 152.227 310.311 152.174 310.529 152.068C310.748 151.963 310.928 151.818 311.068 151.635C311.209 151.447 311.289 151.234 311.309 150.996H312.34C312.32 151.371 312.193 151.721 311.959 152.045C311.729 152.365 311.426 152.625 311.051 152.824C310.676 153.02 310.264 153.117 309.814 153.117C309.338 153.117 308.922 153.033 308.566 152.865C308.215 152.697 307.922 152.467 307.688 152.174C307.457 151.881 307.283 151.545 307.166 151.166C307.053 150.783 306.996 150.379 306.996 149.953V149.707C306.996 149.281 307.053 148.879 307.166 148.5C307.283 148.117 307.457 147.779 307.688 147.486C307.922 147.193 308.215 146.963 308.566 146.795C308.922 146.627 309.338 146.543 309.814 146.543C310.311 146.543 310.744 146.645 311.115 146.848C311.486 147.047 311.777 147.32 311.988 147.668C312.203 148.012 312.32 148.402 312.34 148.84H311.309C311.289 148.578 311.215 148.342 311.086 148.131C310.961 147.92 310.789 147.752 310.57 147.627C310.355 147.498 310.104 147.434 309.814 147.434C309.482 147.434 309.203 147.5 308.977 147.633C308.754 147.762 308.576 147.938 308.443 148.16C308.314 148.379 308.221 148.623 308.162 148.893C308.107 149.158 308.08 149.43 308.08 149.707V149.953C308.08 150.23 308.107 150.504 308.162 150.773C308.217 151.043 308.309 151.287 308.438 151.506C308.57 151.725 308.748 151.9 308.971 152.033C309.197 152.162 309.479 152.227 309.814 152.227ZM316.189 153.117C315.748 153.117 315.348 153.043 314.988 152.895C314.633 152.742 314.326 152.529 314.068 152.256C313.814 151.982 313.619 151.658 313.482 151.283C313.346 150.908 313.277 150.498 313.277 150.053V149.807C313.277 149.291 313.354 148.832 313.506 148.43C313.658 148.023 313.865 147.68 314.127 147.398C314.389 147.117 314.686 146.904 315.018 146.76C315.35 146.615 315.693 146.543 316.049 146.543C316.502 146.543 316.893 146.621 317.221 146.777C317.553 146.934 317.824 147.152 318.035 147.434C318.246 147.711 318.402 148.039 318.504 148.418C318.605 148.793 318.656 149.203 318.656 149.648V150.135H313.922V149.25H317.572V149.168C317.557 148.887 317.498 148.613 317.396 148.348C317.299 148.082 317.143 147.863 316.928 147.691C316.713 147.52 316.42 147.434 316.049 147.434C315.803 147.434 315.576 147.486 315.369 147.592C315.162 147.693 314.984 147.846 314.836 148.049C314.688 148.252 314.572 148.5 314.49 148.793C314.408 149.086 314.367 149.424 314.367 149.807V150.053C314.367 150.354 314.408 150.637 314.49 150.902C314.576 151.164 314.699 151.395 314.859 151.594C315.023 151.793 315.221 151.949 315.451 152.062C315.686 152.176 315.951 152.232 316.248 152.232C316.631 152.232 316.955 152.154 317.221 151.998C317.486 151.842 317.719 151.633 317.918 151.371L318.574 151.893C318.438 152.1 318.264 152.297 318.053 152.484C317.842 152.672 317.582 152.824 317.273 152.941C316.969 153.059 316.607 153.117 316.189 153.117ZM326.648 144.469V153H325.512L321.217 146.42V153H320.086V144.469H321.217L325.529 151.066V144.469H326.648ZM328.201 149.9V149.766C328.201 149.309 328.268 148.885 328.4 148.494C328.533 148.1 328.725 147.758 328.975 147.469C329.225 147.176 329.527 146.949 329.883 146.789C330.238 146.625 330.637 146.543 331.078 146.543C331.523 146.543 331.924 146.625 332.279 146.789C332.639 146.949 332.943 147.176 333.193 147.469C333.447 147.758 333.641 148.1 333.773 148.494C333.906 148.885 333.973 149.309 333.973 149.766V149.9C333.973 150.357 333.906 150.781 333.773 151.172C333.641 151.562 333.447 151.904 333.193 152.197C332.943 152.486 332.641 152.713 332.285 152.877C331.934 153.037 331.535 153.117 331.09 153.117C330.645 153.117 330.244 153.037 329.889 152.877C329.533 152.713 329.229 152.486 328.975 152.197C328.725 151.904 328.533 151.562 328.4 151.172C328.268 150.781 328.201 150.357 328.201 149.9ZM329.285 149.766V149.9C329.285 150.217 329.322 150.516 329.396 150.797C329.471 151.074 329.582 151.32 329.73 151.535C329.883 151.75 330.072 151.92 330.299 152.045C330.525 152.166 330.789 152.227 331.09 152.227C331.387 152.227 331.646 152.166 331.869 152.045C332.096 151.92 332.283 151.75 332.432 151.535C332.58 151.32 332.691 151.074 332.766 150.797C332.844 150.516 332.883 150.217 332.883 149.9V149.766C332.883 149.453 332.844 149.158 332.766 148.881C332.691 148.6 332.578 148.352 332.426 148.137C332.277 147.918 332.09 147.746 331.863 147.621C331.641 147.496 331.379 147.434 331.078 147.434C330.781 147.434 330.52 147.496 330.293 147.621C330.07 147.746 329.883 147.918 329.73 148.137C329.582 148.352 329.471 148.6 329.396 148.881C329.322 149.158 329.285 149.453 329.285 149.766ZM339.328 151.77V144H340.418V153H339.422L339.328 151.77ZM335.062 149.9V149.777C335.062 149.293 335.121 148.854 335.238 148.459C335.359 148.061 335.529 147.719 335.748 147.434C335.971 147.148 336.234 146.93 336.539 146.777C336.848 146.621 337.191 146.543 337.57 146.543C337.969 146.543 338.316 146.613 338.613 146.754C338.914 146.891 339.168 147.092 339.375 147.357C339.586 147.619 339.752 147.936 339.873 148.307C339.994 148.678 340.078 149.098 340.125 149.566V150.105C340.082 150.57 339.998 150.988 339.873 151.359C339.752 151.73 339.586 152.047 339.375 152.309C339.168 152.57 338.914 152.771 338.613 152.912C338.312 153.049 337.961 153.117 337.559 153.117C337.188 153.117 336.848 153.037 336.539 152.877C336.234 152.717 335.971 152.492 335.748 152.203C335.529 151.914 335.359 151.574 335.238 151.184C335.121 150.789 335.062 150.361 335.062 149.9ZM336.152 149.777V149.9C336.152 150.217 336.184 150.514 336.246 150.791C336.312 151.068 336.414 151.312 336.551 151.523C336.688 151.734 336.861 151.9 337.072 152.021C337.283 152.139 337.535 152.197 337.828 152.197C338.188 152.197 338.482 152.121 338.713 151.969C338.947 151.816 339.135 151.615 339.275 151.365C339.416 151.115 339.525 150.844 339.604 150.551V149.139C339.557 148.924 339.488 148.717 339.398 148.518C339.312 148.314 339.199 148.135 339.059 147.979C338.922 147.818 338.752 147.691 338.549 147.598C338.35 147.504 338.113 147.457 337.84 147.457C337.543 147.457 337.287 147.52 337.072 147.645C336.861 147.766 336.688 147.934 336.551 148.148C336.414 148.359 336.312 148.605 336.246 148.887C336.184 149.164 336.152 149.461 336.152 149.777ZM344.736 153.117C344.295 153.117 343.895 153.043 343.535 152.895C343.18 152.742 342.873 152.529 342.615 152.256C342.361 151.982 342.166 151.658 342.029 151.283C341.893 150.908 341.824 150.498 341.824 150.053V149.807C341.824 149.291 341.9 148.832 342.053 148.43C342.205 148.023 342.412 147.68 342.674 147.398C342.936 147.117 343.232 146.904 343.564 146.76C343.896 146.615 344.24 146.543 344.596 146.543C345.049 146.543 345.439 146.621 345.768 146.777C346.1 146.934 346.371 147.152 346.582 147.434C346.793 147.711 346.949 148.039 347.051 148.418C347.152 148.793 347.203 149.203 347.203 149.648V150.135H342.469V149.25H346.119V149.168C346.104 148.887 346.045 148.613 345.943 148.348C345.846 148.082 345.689 147.863 345.475 147.691C345.26 147.52 344.967 147.434 344.596 147.434C344.35 147.434 344.123 147.486 343.916 147.592C343.709 147.693 343.531 147.846 343.383 148.049C343.234 148.252 343.119 148.5 343.037 148.793C342.955 149.086 342.914 149.424 342.914 149.807V150.053C342.914 150.354 342.955 150.637 343.037 150.902C343.123 151.164 343.246 151.395 343.406 151.594C343.57 151.793 343.768 151.949 343.998 152.062C344.232 152.176 344.498 152.232 344.795 152.232C345.178 152.232 345.502 152.154 345.768 151.998C346.033 151.842 346.266 151.633 346.465 151.371L347.121 151.893C346.984 152.1 346.811 152.297 346.6 152.484C346.389 152.672 346.129 152.824 345.82 152.941C345.516 153.059 345.154 153.117 344.736 153.117ZM352.6 149.297L348.434 147.674V146.555L353.438 148.77V149.455L352.6 149.297ZM348.434 150.727L352.611 149.068L353.438 148.945V149.625L348.434 151.846V150.727Z" fill="#DDDDDD"/>
<path d="M114.293 135.707C114.683 136.098 115.317 136.098 115.707 135.707L122.071 129.343C122.462 128.953 122.462 128.319 122.071 127.929C121.681 127.538 121.047 127.538 120.657 127.929L115 133.586L109.343 127.929C108.953 127.538 108.319 127.538 107.929 127.929C107.538 128.319 107.538 128.953 107.929 129.343L114.293 135.707ZM114 119V135H116V119H114Z" fill="#DDDDDD"/>
<path d="M297.293 135.707C297.683 136.098 298.317 136.098 298.707 135.707L305.071 129.343C305.462 128.953 305.462 128.319 305.071 127.929C304.681 127.538 304.047 127.538 303.657 127.929L298 133.586L292.343 127.929C291.953 127.538 291.319 127.538 290.929 127.929C290.538 128.319 290.538 128.953 290.929 129.343L297.293 135.707ZM297 119V135H299V119H297Z" fill="#DDDDDD"/>
<path d="M206.293 194.707C206.683 195.098 207.317 195.098 207.707 194.707L214.071 188.343C214.462 187.953 214.462 187.319 214.071 186.929C213.681 186.538 213.047 186.538 212.657 186.929L207 192.586L201.343 186.929C200.953 186.538 200.319 186.538 199.929 186.929C199.538 187.319 199.538 187.953 199.929 188.343L206.293 194.707ZM206 178V194H208V178H206Z" fill="#DDDDDD"/>
<path d="M205.939 254.061C206.525 254.646 207.475 254.646 208.061 254.061L217.607 244.515C218.192 243.929 218.192 242.979 217.607 242.393C217.021 241.808 216.071 241.808 215.485 242.393L207 250.879L198.515 242.393C197.929 241.808 196.979 241.808 196.393 242.393C195.808 242.979 195.808 243.929 196.393 244.515L205.939 254.061ZM205.5 221V253H208.5V221H205.5Z" fill="#DDDDDD"/>
<path d="M186.088 260.984L185.488 260.516C185.296 260.576 184.972 260.612 184.588 260.612C184.132 260.612 180.424 260.612 179.956 260.612C179.584 260.612 178.9 260.564 178.744 260.54V261.62C178.876 261.608 179.524 261.56 179.956 261.56C180.364 261.56 184.204 261.56 184.636 261.56C184.324 262.556 183.448 263.984 182.632 264.908C181.396 266.276 179.632 267.716 177.688 268.46L178.456 269.264C180.352 268.4 182.068 266.972 183.412 265.472C184.408 264.368 185.32 262.688 185.8 261.5C185.86 261.344 186.016 261.08 186.088 260.984ZM183.568 264.848L182.884 265.52C184.18 266.66 185.584 268.196 186.448 269.336L187.276 268.604C186.46 267.608 184.864 265.928 183.568 264.848ZM197.596 260.636C197.596 260.204 197.956 259.844 198.388 259.844C198.82 259.844 199.192 260.204 199.192 260.636C199.192 261.068 198.82 261.428 198.388 261.428C197.956 261.428 197.596 261.068 197.596 260.636ZM197.044 260.636C197.044 261.38 197.644 261.98 198.388 261.98C199.132 261.98 199.744 261.38 199.744 260.636C199.744 259.892 199.132 259.292 198.388 259.292C197.644 259.292 197.044 259.892 197.044 260.636ZM191.848 260H190.732C190.78 260.288 190.804 260.684 190.804 260.972C190.804 261.62 190.804 266.42 190.804 267.572C190.804 268.556 191.32 268.976 192.232 269.144C192.736 269.228 193.444 269.252 194.164 269.252C195.472 269.252 197.272 269.168 198.316 269.012V267.908C197.308 268.172 195.472 268.292 194.2 268.292C193.612 268.292 193 268.268 192.616 268.196C192.04 268.088 191.776 267.932 191.776 267.308C191.776 266.444 191.776 261.62 191.776 260.972C191.776 260.636 191.812 260.288 191.848 260ZM191.332 263.792L191.344 264.788C192.82 264.416 195.196 263.72 196.684 263.12C197.044 262.976 197.476 262.784 197.824 262.64L197.404 261.68C197.056 261.896 196.708 262.064 196.348 262.232C194.956 262.82 192.784 263.48 191.332 263.792ZM201.712 263.804V264.98C202.096 264.956 202.732 264.932 203.392 264.932C204.28 264.932 209.068 264.932 209.98 264.932C210.508 264.932 211.012 264.968 211.264 264.98V263.804C210.988 263.828 210.568 263.876 209.968 263.876C209.08 263.876 204.268 263.876 203.392 263.876C202.708 263.876 202.084 263.84 201.712 263.804ZM218.584 259.568H217.468C217.516 259.844 217.54 260.288 217.54 260.564C217.516 264.356 216.532 266.384 215.032 267.74C214.672 268.076 214.192 268.412 213.808 268.616L214.684 269.324C217.048 267.68 218.368 265.436 218.524 260.54C218.536 260.252 218.56 259.844 218.584 259.568ZM222.76 262.064L222.076 261.716C221.872 261.752 221.644 261.776 221.32 261.776H215.392C214.924 261.776 214.432 261.752 214.012 261.716V262.724C214.444 262.688 214.924 262.676 215.404 262.676H221.728C221.728 263.96 221.572 266.912 221.116 267.836C220.984 268.124 220.756 268.232 220.42 268.232C219.904 268.232 219.28 268.172 218.632 268.088L218.752 269.084C219.376 269.132 220.072 269.168 220.672 269.168C221.332 269.168 221.716 268.952 221.956 268.436C222.496 267.284 222.652 263.804 222.688 262.64C222.7 262.484 222.724 262.268 222.76 262.064ZM225.712 263.804V264.98C226.096 264.956 226.732 264.932 227.392 264.932C228.28 264.932 233.068 264.932 233.98 264.932C234.508 264.932 235.012 264.968 235.264 264.98V263.804C234.988 263.828 234.568 263.876 233.968 263.876C233.08 263.876 228.268 263.876 227.392 263.876C226.708 263.876 226.084 263.84 225.712 263.804Z" fill="#DDDDDD"/>
<line x1="115" y1="162" x2="115" y2="178" stroke="#DDDDDD" stroke-width="2"/>
<line x1="299" y1="179" x2="114" y2="179" stroke="#DDDDDD" stroke-width="2"/>
<line x1="298" y1="162" x2="298" y2="178" stroke="#DDDDDD" stroke-width="2"/>
</svg>
