<svg width="410" height="287" viewBox="0 0 410 287" fill="none" xmlns="http://www.w3.org/2000/svg">
<rect width="410" height="287" fill="#121212"/>
<path d="M23 50H386V236H23V50Z" fill="#2E2E2E"/>
<rect x="60.006" y="66" width="108.994" height="53" fill="#634040"/>
<path d="M75.8452 80.004C75.1732 81.828 74.0572 83.616 72.8812 84.768C73.0372 84.96 73.2892 85.416 73.3852 85.608C73.7932 85.188 74.2012 84.696 74.5732 84.168V90.9H75.4492V82.8C75.9172 81.984 76.3252 81.12 76.6612 80.256L75.8452 80.004ZM79.2892 89.952C78.4372 89.952 78.2812 89.796 78.2812 89.112V84.888L80.0332 84.192V88.26H80.8852V83.856L82.7572 83.124C82.7452 84.996 82.7212 86.256 82.6252 86.58C82.5532 86.892 82.4332 86.94 82.2172 86.94C82.0612 86.94 81.6292 86.94 81.3052 86.916C81.4132 87.132 81.4972 87.492 81.5212 87.756C81.8812 87.768 82.4092 87.756 82.7332 87.672C83.1052 87.576 83.3572 87.348 83.4532 86.796C83.5612 86.292 83.5972 84.564 83.5972 82.404L83.6332 82.248L83.0212 81.996L82.8652 82.128L82.7452 82.236L80.8852 82.956V79.98H80.0332V83.268L78.2812 83.952V81.144H77.4052V84.3L75.8932 84.888L76.2412 85.668L77.4052 85.212V89.112C77.4052 90.42 77.8252 90.756 79.2532 90.756H82.3852C83.7052 90.756 83.9812 90.228 84.1372 88.584C83.8732 88.524 83.5252 88.368 83.3092 88.212C83.2012 89.628 83.0812 89.952 82.3492 89.952H79.2892ZM94.0252 82.284L93.2212 81.9C93.0772 81.96 92.7172 82.008 92.4772 82.008H88.0492C87.6532 82.008 87.2692 81.984 86.9092 81.936V83.004C87.2932 82.98 87.6172 82.956 88.0612 82.956H92.7892C92.7532 83.796 92.2492 87.012 92.0332 88.296H86.6212C86.2852 88.296 85.9252 88.272 85.5652 88.224V89.316C85.9372 89.28 86.2852 89.268 86.6212 89.268H94.7212C94.9612 89.268 95.4052 89.28 95.7172 89.316V88.224C95.4172 88.26 95.0812 88.296 94.7212 88.296H93.0892C93.2932 87.012 93.7972 83.808 93.9292 82.68C93.9412 82.584 93.9772 82.404 94.0252 82.284ZM97.8412 84.804V85.98C98.2132 85.944 98.8492 85.92 99.5092 85.92H106.097C106.637 85.92 107.141 85.968 107.381 85.98V84.804C107.117 84.828 106.685 84.864 106.085 84.864H99.5092C98.8372 84.864 98.2012 84.828 97.8412 84.804ZM117.947 80.844L117.371 81.024C117.599 81.48 117.875 82.2 118.055 82.716L118.643 82.512C118.487 82.02 118.163 81.276 117.947 80.844ZM119.135 80.484L118.559 80.664C118.799 81.108 119.075 81.804 119.267 82.332L119.855 82.14C119.687 81.648 119.363 80.916 119.135 80.484ZM116.807 84.696V84.276H118.127C118.655 84.276 119.087 84.3 119.219 84.312V83.292C119.051 83.328 118.655 83.364 118.115 83.364H116.807V81.864C116.807 81.384 116.855 81 116.867 80.88H115.787C115.799 80.988 115.835 81.384 115.835 81.864V83.364H112.427V81.816C112.427 81.408 112.463 81.06 112.475 80.952H111.407C111.443 81.228 111.467 81.564 111.467 81.828V83.364H110.171C109.667 83.364 109.079 83.304 108.971 83.28V84.324C109.103 84.312 109.643 84.276 110.171 84.276H111.467V86.22C111.467 86.676 111.419 87.192 111.407 87.3H112.475C112.463 87.192 112.427 86.664 112.427 86.22V84.276H115.835V84.78C115.835 88.14 114.755 89.172 112.571 90L113.375 90.768C116.111 89.544 116.807 87.888 116.807 84.696ZM121.607 84.804V85.98C121.979 85.944 122.615 85.92 123.275 85.92H129.863C130.403 85.92 130.907 85.968 131.147 85.98V84.804C130.883 84.828 130.451 84.864 129.851 84.864H123.275C122.603 84.864 121.967 84.828 121.607 84.804ZM143.279 85.8C143.279 83.364 141.491 81.384 138.683 81.384C135.755 81.384 133.439 83.664 133.439 86.268C133.439 88.248 134.507 89.472 135.575 89.472C136.691 89.472 137.639 88.212 138.371 85.74C138.707 84.624 138.935 83.4 139.091 82.284C141.131 82.452 142.295 83.952 142.295 85.764C142.295 87.84 140.783 88.98 139.247 89.328C138.971 89.388 138.599 89.448 138.215 89.484L138.779 90.372C141.623 90 143.279 88.32 143.279 85.8ZM134.375 86.184C134.375 84.552 135.791 82.584 138.095 82.296C137.963 83.4 137.723 84.54 137.423 85.536C136.811 87.564 136.175 88.368 135.611 88.368C135.071 88.368 134.375 87.696 134.375 86.184ZM153.167 86.448V87.708H147.719V86.448H153.167ZM147.719 89.712V88.416H153.167V89.712H147.719ZM146.831 90.924H147.719V90.48H153.167V90.888H154.103V85.68H146.831V90.924ZM152.615 83.832C152.915 83.352 153.239 82.668 153.551 82.044L152.735 81.852H155.111V81.048H150.815V79.956H149.903V81.048H145.763V81.852H152.567C152.387 82.404 152.027 83.184 151.751 83.688L152.291 83.832H148.415L149.027 83.676C148.919 83.172 148.619 82.416 148.259 81.864L147.407 82.044C147.719 82.584 148.019 83.316 148.115 83.832H145.079V84.648H155.699V83.832H152.615ZM74.123 100.227L77.791 101.709V102.857L72.998 100.637V99.7812L77.791 97.5664V98.7148L74.123 100.227ZM81.125 95.4688L83.9141 102.43L86.7031 95.4688H88.1621V104H87.0371V100.678L87.1426 97.0918L84.3418 104H83.4805L80.6855 97.1094L80.7969 100.678V104H79.6719V95.4688H81.125ZM92.6094 104.117C91.75 104.117 91.0508 103.836 90.5117 103.273C89.9727 102.707 89.7031 101.951 89.7031 101.006V100.807C89.7031 100.178 89.8223 99.6172 90.0605 99.125C90.3027 98.6289 90.6387 98.2422 91.0684 97.9648C91.502 97.6836 91.9707 97.543 92.4746 97.543C93.2988 97.543 93.9395 97.8145 94.3965 98.3574C94.8535 98.9004 95.082 99.6777 95.082 100.689V101.141H90.7871C90.8027 101.766 90.9844 102.271 91.332 102.658C91.6836 103.041 92.1289 103.232 92.668 103.232C93.0508 103.232 93.375 103.154 93.6406 102.998C93.9062 102.842 94.1387 102.635 94.3379 102.377L95 102.893C94.4688 103.709 93.6719 104.117 92.6094 104.117ZM92.4746 98.4336C92.0371 98.4336 91.6699 98.5938 91.373 98.9141C91.0762 99.2305 90.8926 99.6758 90.8223 100.25H93.998V100.168C93.9668 99.6172 93.8184 99.1914 93.5527 98.8906C93.2871 98.5859 92.9277 98.4336 92.4746 98.4336ZM96.0781 100.777C96.0781 99.8047 96.3086 99.0234 96.7695 98.4336C97.2305 97.8398 97.834 97.543 98.5801 97.543C99.3223 97.543 99.9102 97.7969 100.344 98.3047V95H101.428V104H100.432L100.379 103.32C99.9453 103.852 99.3418 104.117 98.5684 104.117C97.834 104.117 97.2344 103.816 96.7695 103.215C96.3086 102.613 96.0781 101.828 96.0781 100.859V100.777ZM97.1621 100.9C97.1621 101.619 97.3105 102.182 97.6074 102.588C97.9043 102.994 98.3145 103.197 98.8379 103.197C99.5254 103.197 100.027 102.889 100.344 102.271V99.3594C100.02 98.7617 99.5215 98.4629 98.8496 98.4629C98.3184 98.4629 97.9043 98.668 97.6074 99.0781C97.3105 99.4883 97.1621 100.096 97.1621 100.9ZM104.293 104H103.209V97.6602H104.293V104ZM103.121 95.9785C103.121 95.8027 103.174 95.6543 103.279 95.5332C103.389 95.4121 103.549 95.3516 103.76 95.3516C103.971 95.3516 104.131 95.4121 104.24 95.5332C104.35 95.6543 104.404 95.8027 104.404 95.9785C104.404 96.1543 104.35 96.3008 104.24 96.418C104.131 96.5352 103.971 96.5938 103.76 96.5938C103.549 96.5938 103.389 96.5352 103.279 96.418C103.174 96.3008 103.121 96.1543 103.121 95.9785ZM109.947 104C109.885 103.875 109.834 103.652 109.795 103.332C109.291 103.855 108.689 104.117 107.99 104.117C107.365 104.117 106.852 103.941 106.449 103.59C106.051 103.234 105.852 102.785 105.852 102.242C105.852 101.582 106.102 101.07 106.602 100.707C107.105 100.34 107.812 100.156 108.723 100.156H109.777V99.6582C109.777 99.2793 109.664 98.9785 109.438 98.7559C109.211 98.5293 108.877 98.416 108.436 98.416C108.049 98.416 107.725 98.5137 107.463 98.709C107.201 98.9043 107.07 99.1406 107.07 99.418H105.98C105.98 99.1016 106.092 98.7969 106.314 98.5039C106.541 98.207 106.846 97.9727 107.229 97.8008C107.615 97.6289 108.039 97.543 108.5 97.543C109.23 97.543 109.803 97.7266 110.217 98.0938C110.631 98.457 110.846 98.959 110.861 99.5996V102.518C110.861 103.1 110.936 103.562 111.084 103.906V104H109.947ZM108.148 103.174C108.488 103.174 108.811 103.086 109.115 102.91C109.42 102.734 109.641 102.506 109.777 102.225V100.924H108.928C107.6 100.924 106.936 101.312 106.936 102.09C106.936 102.43 107.049 102.695 107.275 102.887C107.502 103.078 107.793 103.174 108.148 103.174ZM115.244 100.197C114.279 99.9199 113.576 99.5801 113.135 99.1777C112.697 98.7715 112.479 98.2715 112.479 97.6777C112.479 97.0059 112.746 96.4512 113.281 96.0137C113.82 95.5723 114.52 95.3516 115.379 95.3516C115.965 95.3516 116.486 95.4648 116.943 95.6914C117.404 95.918 117.76 96.2305 118.01 96.6289C118.264 97.0273 118.391 97.4629 118.391 97.9355H117.26C117.26 97.4199 117.096 97.0156 116.768 96.7227C116.439 96.4258 115.977 96.2773 115.379 96.2773C114.824 96.2773 114.391 96.4004 114.078 96.6465C113.77 96.8887 113.615 97.2266 113.615 97.6602C113.615 98.0078 113.762 98.3027 114.055 98.5449C114.352 98.7832 114.854 99.002 115.561 99.2012C116.271 99.4004 116.826 99.6211 117.225 99.8633C117.627 100.102 117.924 100.381 118.115 100.701C118.311 101.021 118.408 101.398 118.408 101.832C118.408 102.523 118.139 103.078 117.6 103.496C117.061 103.91 116.34 104.117 115.438 104.117C114.852 104.117 114.305 104.006 113.797 103.783C113.289 103.557 112.896 103.248 112.619 102.857C112.346 102.467 112.209 102.023 112.209 101.527H113.34C113.34 102.043 113.529 102.451 113.908 102.752C114.291 103.049 114.801 103.197 115.438 103.197C116.031 103.197 116.486 103.076 116.803 102.834C117.119 102.592 117.277 102.262 117.277 101.844C117.277 101.426 117.131 101.104 116.838 100.877C116.545 100.646 116.014 100.42 115.244 100.197ZM121.156 96.125V97.6602H122.34V98.498H121.156V102.43C121.156 102.684 121.209 102.875 121.314 103.004C121.42 103.129 121.6 103.191 121.854 103.191C121.979 103.191 122.15 103.168 122.369 103.121V104C122.084 104.078 121.807 104.117 121.537 104.117C121.053 104.117 120.688 103.971 120.441 103.678C120.195 103.385 120.072 102.969 120.072 102.43V98.498H118.918V97.6602H120.072V96.125H121.156ZM126.676 98.6328C126.512 98.6055 126.334 98.5918 126.143 98.5918C125.432 98.5918 124.949 98.8945 124.695 99.5V104H123.611V97.6602H124.666L124.684 98.3926C125.039 97.8262 125.543 97.543 126.195 97.543C126.406 97.543 126.566 97.5703 126.676 97.625V98.6328ZM130.191 104.117C129.332 104.117 128.633 103.836 128.094 103.273C127.555 102.707 127.285 101.951 127.285 101.006V100.807C127.285 100.178 127.404 99.6172 127.643 99.125C127.885 98.6289 128.221 98.2422 128.65 97.9648C129.084 97.6836 129.553 97.543 130.057 97.543C130.881 97.543 131.521 97.8145 131.979 98.3574C132.436 98.9004 132.664 99.6777 132.664 100.689V101.141H128.369C128.385 101.766 128.566 102.271 128.914 102.658C129.266 103.041 129.711 103.232 130.25 103.232C130.633 103.232 130.957 103.154 131.223 102.998C131.488 102.842 131.721 102.635 131.92 102.377L132.582 102.893C132.051 103.709 131.254 104.117 130.191 104.117ZM130.057 98.4336C129.619 98.4336 129.252 98.5938 128.955 98.9141C128.658 99.2305 128.475 99.6758 128.404 100.25H131.58V100.168C131.549 99.6172 131.4 99.1914 131.135 98.8906C130.869 98.5859 130.51 98.4336 130.057 98.4336ZM137.838 104C137.775 103.875 137.725 103.652 137.686 103.332C137.182 103.855 136.58 104.117 135.881 104.117C135.256 104.117 134.742 103.941 134.34 103.59C133.941 103.234 133.742 102.785 133.742 102.242C133.742 101.582 133.992 101.07 134.492 100.707C134.996 100.34 135.703 100.156 136.613 100.156H137.668V99.6582C137.668 99.2793 137.555 98.9785 137.328 98.7559C137.102 98.5293 136.768 98.416 136.326 98.416C135.939 98.416 135.615 98.5137 135.354 98.709C135.092 98.9043 134.961 99.1406 134.961 99.418H133.871C133.871 99.1016 133.982 98.7969 134.205 98.5039C134.432 98.207 134.736 97.9727 135.119 97.8008C135.506 97.6289 135.93 97.543 136.391 97.543C137.121 97.543 137.693 97.7266 138.107 98.0938C138.521 98.457 138.736 98.959 138.752 99.5996V102.518C138.752 103.1 138.826 103.562 138.975 103.906V104H137.838ZM136.039 103.174C136.379 103.174 136.701 103.086 137.006 102.91C137.311 102.734 137.531 102.506 137.668 102.225V100.924H136.818C135.49 100.924 134.826 101.312 134.826 102.09C134.826 102.43 134.939 102.695 135.166 102.887C135.393 103.078 135.684 103.174 136.039 103.174ZM141.471 97.6602L141.5 98.3633C141.965 97.8164 142.592 97.543 143.381 97.543C144.268 97.543 144.871 97.8828 145.191 98.5625C145.402 98.2578 145.676 98.0117 146.012 97.8242C146.352 97.6367 146.752 97.543 147.213 97.543C148.604 97.543 149.311 98.2793 149.334 99.752V104H148.25V99.8164C148.25 99.3633 148.146 99.0254 147.939 98.8027C147.732 98.5762 147.385 98.4629 146.896 98.4629C146.494 98.4629 146.16 98.584 145.895 98.8262C145.629 99.0645 145.475 99.3867 145.432 99.793V104H144.342V99.8457C144.342 98.9238 143.891 98.4629 142.988 98.4629C142.277 98.4629 141.791 98.7656 141.529 99.3711V104H140.445V97.6602H141.471ZM154.812 100.191L150.939 98.6738V97.5605L155.943 99.7754V100.631L150.939 102.852V101.727L154.812 100.191Z" fill="#DDDDDD"/>
<rect x="243.006" y="66" width="108.994" height="53" fill="#3C5226"/>
<path d="M285.92 81.6H283.496V79.992H282.644V81.6H280.112V82.404H285.92V81.6ZM285.968 85.008C285.728 84.384 285.092 83.448 284.492 82.764L283.796 83.124C284.384 83.82 284.996 84.792 285.224 85.428L285.968 85.008ZM281.516 82.824C281.156 83.736 280.544 84.66 279.884 85.272C280.076 85.392 280.424 85.656 280.568 85.8C281.252 85.116 281.936 84.072 282.356 83.052L281.516 82.824ZM283.82 84.852C283.652 85.476 283.436 86.052 283.184 86.592C282.668 86.16 282.14 85.728 281.66 85.368L281.132 85.98C281.66 86.388 282.236 86.868 282.776 87.348C282.056 88.548 281.084 89.508 279.884 90.192C280.076 90.348 280.388 90.72 280.496 90.888C281.672 90.156 282.644 89.172 283.412 87.96C283.952 88.488 284.42 89.004 284.732 89.436L285.296 88.704C284.96 88.272 284.444 87.732 283.844 87.192C284.18 86.532 284.468 85.812 284.696 85.032L283.82 84.852ZM290.66 82.716H288.104C288.128 81.864 288.14 80.976 288.14 80.088H287.276C287.276 80.976 287.276 81.864 287.252 82.716H285.764V83.556H287.216C287.084 86.4 286.604 88.872 284.804 90.336C285.02 90.468 285.32 90.768 285.464 90.96C287.396 89.328 287.924 86.64 288.068 83.556H289.82C289.724 87.936 289.592 89.508 289.316 89.856C289.208 90.012 289.088 90.048 288.884 90.048C288.656 90.048 288.092 90.036 287.456 89.976C287.6 90.216 287.696 90.576 287.708 90.816C288.296 90.84 288.884 90.852 289.244 90.816C289.616 90.78 289.844 90.684 290.06 90.372C290.444 89.868 290.552 88.2 290.66 83.148V82.716ZM294.344 84.504V83.268H297.044V84.504H294.344ZM294.344 81.312H297.044V82.536H294.344V81.312ZM300.692 82.536H297.968V81.312H300.692V82.536ZM300.692 84.504H297.968V83.268H300.692V84.504ZM302.732 87.108V86.28H297.968V85.272H301.64V80.532H293.444V85.272H297.044V86.28H292.28V87.108H296.3C295.244 88.248 293.54 89.28 291.98 89.784C292.172 89.964 292.46 90.312 292.58 90.516C294.14 89.928 295.892 88.788 297.044 87.48V90.924H297.968V87.42C299.144 88.692 300.908 89.856 302.432 90.468C302.564 90.252 302.84 89.904 303.044 89.724C301.532 89.22 299.816 88.212 298.712 87.108H302.732ZM312.284 86.448V87.708H306.836V86.448H312.284ZM306.836 89.712V88.416H312.284V89.712H306.836ZM305.948 90.924H306.836V90.48H312.284V90.888H313.22V85.68H305.948V90.924ZM311.732 83.832C312.032 83.352 312.356 82.668 312.668 82.044L311.852 81.852H314.228V81.048H309.932V79.956H309.02V81.048H304.88V81.852H311.684C311.504 82.404 311.144 83.184 310.868 83.688L311.408 83.832H307.532L308.144 83.676C308.036 83.172 307.736 82.416 307.376 81.864L306.524 82.044C306.836 82.584 307.136 83.316 307.232 83.832H304.196V84.648H314.816V83.832H311.732ZM261.037 100.227L264.705 101.709V102.857L259.912 100.637V99.7812L264.705 97.5664V98.7148L261.037 100.227ZM271.297 101.773H267.723L266.92 104H265.76L269.018 95.4688H270.002L273.266 104H272.111L271.297 101.773ZM268.062 100.848H270.963L269.51 96.8574L268.062 100.848ZM278.088 103.373C277.666 103.869 277.047 104.117 276.23 104.117C275.555 104.117 275.039 103.922 274.684 103.531C274.332 103.137 274.154 102.555 274.15 101.785V97.6602H275.234V101.756C275.234 102.717 275.625 103.197 276.406 103.197C277.234 103.197 277.785 102.889 278.059 102.271V97.6602H279.143V104H278.111L278.088 103.373ZM280.531 100.777C280.531 99.8047 280.762 99.0234 281.223 98.4336C281.684 97.8398 282.287 97.543 283.033 97.543C283.775 97.543 284.363 97.7969 284.797 98.3047V95H285.881V104H284.885L284.832 103.32C284.398 103.852 283.795 104.117 283.021 104.117C282.287 104.117 281.688 103.816 281.223 103.215C280.762 102.613 280.531 101.828 280.531 100.859V100.777ZM281.615 100.9C281.615 101.619 281.764 102.182 282.061 102.588C282.357 102.994 282.768 103.197 283.291 103.197C283.979 103.197 284.48 102.889 284.797 102.271V99.3594C284.473 98.7617 283.975 98.4629 283.303 98.4629C282.771 98.4629 282.357 98.668 282.061 99.0781C281.764 99.4883 281.615 100.096 281.615 100.9ZM288.746 104H287.662V97.6602H288.746V104ZM287.574 95.9785C287.574 95.8027 287.627 95.6543 287.732 95.5332C287.842 95.4121 288.002 95.3516 288.213 95.3516C288.424 95.3516 288.584 95.4121 288.693 95.5332C288.803 95.6543 288.857 95.8027 288.857 95.9785C288.857 96.1543 288.803 96.3008 288.693 96.418C288.584 96.5352 288.424 96.5938 288.213 96.5938C288.002 96.5938 287.842 96.5352 287.732 96.418C287.627 96.3008 287.574 96.1543 287.574 95.9785ZM290.199 100.771C290.199 100.15 290.32 99.5918 290.562 99.0957C290.809 98.5996 291.148 98.2168 291.582 97.9473C292.02 97.6777 292.518 97.543 293.076 97.543C293.939 97.543 294.637 97.8418 295.168 98.4395C295.703 99.0371 295.971 99.832 295.971 100.824V100.9C295.971 101.518 295.852 102.072 295.613 102.564C295.379 103.053 295.041 103.434 294.6 103.707C294.162 103.98 293.658 104.117 293.088 104.117C292.229 104.117 291.531 103.818 290.996 103.221C290.465 102.623 290.199 101.832 290.199 100.848V100.771ZM291.289 100.9C291.289 101.604 291.451 102.168 291.775 102.594C292.104 103.02 292.541 103.232 293.088 103.232C293.639 103.232 294.076 103.018 294.4 102.588C294.725 102.154 294.887 101.549 294.887 100.771C294.887 100.076 294.721 99.5137 294.389 99.084C294.061 98.6504 293.623 98.4336 293.076 98.4336C292.541 98.4336 292.109 98.6465 291.781 99.0723C291.453 99.498 291.289 100.107 291.289 100.9ZM297.5 104V95.4688H300.289C301.215 95.4688 301.91 95.6602 302.375 96.043C302.844 96.4258 303.078 96.9922 303.078 97.7422C303.078 98.1406 302.965 98.4941 302.738 98.8027C302.512 99.1074 302.203 99.3438 301.812 99.5117C302.273 99.6406 302.637 99.8867 302.902 100.25C303.172 100.609 303.307 101.039 303.307 101.539C303.307 102.305 303.059 102.906 302.562 103.344C302.066 103.781 301.365 104 300.459 104H297.5ZM298.625 100.01V103.08H300.482C301.006 103.08 301.418 102.945 301.719 102.676C302.023 102.402 302.176 102.027 302.176 101.551C302.176 100.523 301.617 100.01 300.5 100.01H298.625ZM298.625 99.1074H300.324C300.816 99.1074 301.209 98.9844 301.502 98.7383C301.799 98.4922 301.947 98.1582 301.947 97.7363C301.947 97.2676 301.811 96.9277 301.537 96.7168C301.264 96.502 300.848 96.3945 300.289 96.3945H298.625V99.1074ZM308.721 103.373C308.299 103.869 307.68 104.117 306.863 104.117C306.188 104.117 305.672 103.922 305.316 103.531C304.965 103.137 304.787 102.555 304.783 101.785V97.6602H305.867V101.756C305.867 102.717 306.258 103.197 307.039 103.197C307.867 103.197 308.418 102.889 308.691 102.271V97.6602H309.775V104H308.744L308.721 103.373ZM311.961 104V98.498H310.959V97.6602H311.961V97.0098C311.961 96.3301 312.143 95.8047 312.506 95.4336C312.869 95.0625 313.383 94.877 314.047 94.877C314.297 94.877 314.545 94.9102 314.791 94.9766L314.732 95.8555C314.549 95.8203 314.354 95.8027 314.146 95.8027C313.795 95.8027 313.523 95.9062 313.332 96.1133C313.141 96.3164 313.045 96.6094 313.045 96.9922V97.6602H314.398V98.498H313.045V104H311.961ZM316.133 104V98.498H315.131V97.6602H316.133V97.0098C316.133 96.3301 316.314 95.8047 316.678 95.4336C317.041 95.0625 317.555 94.877 318.219 94.877C318.469 94.877 318.717 94.9102 318.963 94.9766L318.904 95.8555C318.721 95.8203 318.525 95.8027 318.318 95.8027C317.967 95.8027 317.695 95.9062 317.504 96.1133C317.312 96.3164 317.217 96.6094 317.217 96.9922V97.6602H318.57V98.498H317.217V104H316.133ZM322.262 104.117C321.402 104.117 320.703 103.836 320.164 103.273C319.625 102.707 319.355 101.951 319.355 101.006V100.807C319.355 100.178 319.475 99.6172 319.713 99.125C319.955 98.6289 320.291 98.2422 320.721 97.9648C321.154 97.6836 321.623 97.543 322.127 97.543C322.951 97.543 323.592 97.8145 324.049 98.3574C324.506 98.9004 324.734 99.6777 324.734 100.689V101.141H320.439C320.455 101.766 320.637 102.271 320.984 102.658C321.336 103.041 321.781 103.232 322.32 103.232C322.703 103.232 323.027 103.154 323.293 102.998C323.559 102.842 323.791 102.635 323.99 102.377L324.652 102.893C324.121 103.709 323.324 104.117 322.262 104.117ZM322.127 98.4336C321.689 98.4336 321.322 98.5938 321.025 98.9141C320.729 99.2305 320.545 99.6758 320.475 100.25H323.65V100.168C323.619 99.6172 323.471 99.1914 323.205 98.8906C322.939 98.5859 322.58 98.4336 322.127 98.4336ZM329.059 98.6328C328.895 98.6055 328.717 98.5918 328.525 98.5918C327.814 98.5918 327.332 98.8945 327.078 99.5V104H325.994V97.6602H327.049L327.066 98.3926C327.422 97.8262 327.926 97.543 328.578 97.543C328.789 97.543 328.949 97.5703 329.059 97.625V98.6328ZM333.898 100.191L330.025 98.6738V97.5605L335.029 99.7754V100.631L330.025 102.852V101.727L333.898 100.191Z" fill="#DDDDDD"/>
<path d="M113.939 67.0607C114.525 67.6464 115.475 67.6464 116.061 67.0607L125.607 57.5147C126.192 56.9289 126.192 55.9792 125.607 55.3934C125.021 54.8076 124.071 54.8076 123.485 55.3934L115 63.8787L106.515 55.3934C105.929 54.8076 104.979 54.8076 104.393 55.3934C103.808 55.9792 103.808 56.9289 104.393 57.5147L113.939 67.0607ZM113.5 34L113.5 66L116.5 66L116.5 34L113.5 34Z" fill="#DDDDDD"/>
<path d="M99.3066 24.8438C99.3066 24.6445 99.2754 24.4688 99.2129 24.3164C99.1543 24.1602 99.0488 24.0195 98.8965 23.8945C98.748 23.7695 98.541 23.6504 98.2754 23.5371C98.0137 23.4238 97.6816 23.3086 97.2793 23.1914C96.8574 23.0664 96.4766 22.9277 96.1367 22.7754C95.7969 22.6191 95.5059 22.4414 95.2637 22.2422C95.0215 22.043 94.8359 21.8145 94.707 21.5566C94.5781 21.2988 94.5137 21.0039 94.5137 20.6719C94.5137 20.3398 94.582 20.0332 94.7188 19.752C94.8555 19.4707 95.0508 19.2266 95.3047 19.0195C95.5625 18.8086 95.8691 18.6445 96.2246 18.5273C96.5801 18.4102 96.9766 18.3516 97.4141 18.3516C98.0547 18.3516 98.5977 18.4746 99.043 18.7207C99.4922 18.9629 99.834 19.2812 100.068 19.6758C100.303 20.0664 100.42 20.4844 100.42 20.9297H99.2949C99.2949 20.6094 99.2266 20.3262 99.0898 20.0801C98.9531 19.8301 98.7461 19.6348 98.4688 19.4941C98.1914 19.3496 97.8398 19.2773 97.4141 19.2773C97.0117 19.2773 96.6797 19.3379 96.418 19.459C96.1562 19.5801 95.9609 19.7441 95.832 19.9512C95.707 20.1582 95.6445 20.3945 95.6445 20.6602C95.6445 20.8398 95.6816 21.0039 95.7559 21.1523C95.834 21.2969 95.9531 21.4316 96.1133 21.5566C96.2773 21.6816 96.4844 21.7969 96.7344 21.9023C96.9883 22.0078 97.291 22.1094 97.6426 22.207C98.127 22.3438 98.5449 22.4961 98.8965 22.6641C99.248 22.832 99.5371 23.0215 99.7637 23.2324C99.9941 23.4395 100.164 23.6758 100.273 23.9414C100.387 24.2031 100.443 24.5 100.443 24.832C100.443 25.1797 100.373 25.4941 100.232 25.7754C100.092 26.0566 99.8906 26.2969 99.6289 26.4961C99.3672 26.6953 99.0527 26.8496 98.6855 26.959C98.3223 27.0645 97.916 27.1172 97.4668 27.1172C97.0723 27.1172 96.6836 27.0625 96.3008 26.9531C95.9219 26.8438 95.5762 26.6797 95.2637 26.4609C94.9551 26.2422 94.707 25.9727 94.5195 25.6523C94.3359 25.3281 94.2441 24.9531 94.2441 24.5273H95.3691C95.3691 24.8203 95.4258 25.0723 95.5391 25.2832C95.6523 25.4902 95.8066 25.6621 96.002 25.7988C96.2012 25.9355 96.4258 26.0371 96.6758 26.1035C96.9297 26.166 97.1934 26.1973 97.4668 26.1973C97.8613 26.1973 98.1953 26.1426 98.4688 26.0332C98.7422 25.9238 98.9492 25.7676 99.0898 25.5645C99.2344 25.3613 99.3066 25.1211 99.3066 24.8438ZM102.811 18V27H101.721V18H102.811ZM106.684 20.6602L103.918 23.6191L102.371 25.2246L102.283 24.0703L103.391 22.7461L105.359 20.6602H106.684ZM105.693 27L103.432 23.9766L103.994 23.0098L106.971 27H105.693ZM109.584 26.3438L111.348 20.6602H112.508L109.965 27.9785C109.906 28.1348 109.828 28.3027 109.73 28.4824C109.637 28.666 109.516 28.8398 109.367 29.0039C109.219 29.168 109.039 29.3008 108.828 29.4023C108.621 29.5078 108.373 29.5605 108.084 29.5605C107.998 29.5605 107.889 29.5488 107.756 29.5254C107.623 29.502 107.529 29.4824 107.475 29.4668L107.469 28.5879C107.5 28.5918 107.549 28.5957 107.615 28.5996C107.686 28.6074 107.734 28.6113 107.762 28.6113C108.008 28.6113 108.217 28.5781 108.389 28.5117C108.561 28.4492 108.705 28.3418 108.822 28.1895C108.943 28.041 109.047 27.8359 109.133 27.5742L109.584 26.3438ZM108.289 20.6602L109.936 25.582L110.217 26.7246L109.438 27.123L107.105 20.6602H108.289ZM115.895 24.4219L117.588 18.4688H118.408L117.934 20.7832L116.111 27H115.297L115.895 24.4219ZM114.143 18.4688L115.49 24.3047L115.895 27H115.086L113.018 18.4688H114.143ZM120.6 24.2988L121.918 18.4688H123.049L120.986 27H120.178L120.6 24.2988ZM118.531 18.4688L120.178 24.4219L120.775 27H119.961L118.203 20.7832L117.723 18.4688H118.531ZM127.678 25.916V22.6523C127.678 22.4023 127.627 22.1855 127.525 22.002C127.428 21.8145 127.279 21.6699 127.08 21.5684C126.881 21.4668 126.635 21.416 126.342 21.416C126.068 21.416 125.828 21.4629 125.621 21.5566C125.418 21.6504 125.258 21.7734 125.141 21.9258C125.027 22.0781 124.971 22.2422 124.971 22.418H123.887C123.887 22.1914 123.945 21.9668 124.062 21.7441C124.18 21.5215 124.348 21.3203 124.566 21.1406C124.789 20.957 125.055 20.8125 125.363 20.707C125.676 20.5977 126.023 20.543 126.406 20.543C126.867 20.543 127.273 20.6211 127.625 20.7773C127.98 20.9336 128.258 21.1699 128.457 21.4863C128.66 21.7988 128.762 22.1914 128.762 22.6641V25.6172C128.762 25.8281 128.779 26.0527 128.814 26.291C128.854 26.5293 128.91 26.7344 128.984 26.9062V27H127.854C127.799 26.875 127.756 26.709 127.725 26.502C127.693 26.291 127.678 26.0957 127.678 25.916ZM127.865 23.1562L127.877 23.918H126.781C126.473 23.918 126.197 23.9434 125.955 23.9941C125.713 24.041 125.51 24.1133 125.346 24.2109C125.182 24.3086 125.057 24.4316 124.971 24.5801C124.885 24.7246 124.842 24.8945 124.842 25.0898C124.842 25.2891 124.887 25.4707 124.977 25.6348C125.066 25.7988 125.201 25.9297 125.381 26.0273C125.564 26.1211 125.789 26.168 126.055 26.168C126.387 26.168 126.68 26.0977 126.934 25.957C127.188 25.8164 127.389 25.6445 127.537 25.4414C127.689 25.2383 127.771 25.041 127.783 24.8496L128.246 25.3711C128.219 25.5352 128.145 25.7168 128.023 25.916C127.902 26.1152 127.74 26.3066 127.537 26.4902C127.338 26.6699 127.1 26.8203 126.822 26.9414C126.549 27.0586 126.24 27.1172 125.896 27.1172C125.467 27.1172 125.09 27.0332 124.766 26.8652C124.445 26.6973 124.195 26.4727 124.016 26.1914C123.84 25.9062 123.752 25.5879 123.752 25.2363C123.752 24.8965 123.818 24.5977 123.951 24.3398C124.084 24.0781 124.275 23.8613 124.525 23.6895C124.775 23.5137 125.076 23.3809 125.428 23.291C125.779 23.2012 126.172 23.1562 126.605 23.1562H127.865ZM132.154 26.3438L133.918 20.6602H135.078L132.535 27.9785C132.477 28.1348 132.398 28.3027 132.301 28.4824C132.207 28.666 132.086 28.8398 131.938 29.0039C131.789 29.168 131.609 29.3008 131.398 29.4023C131.191 29.5078 130.943 29.5605 130.654 29.5605C130.568 29.5605 130.459 29.5488 130.326 29.5254C130.193 29.502 130.1 29.4824 130.045 29.4668L130.039 28.5879C130.07 28.5918 130.119 28.5957 130.186 28.5996C130.256 28.6074 130.305 28.6113 130.332 28.6113C130.578 28.6113 130.787 28.5781 130.959 28.5117C131.131 28.4492 131.275 28.3418 131.393 28.1895C131.514 28.041 131.617 27.8359 131.703 27.5742L132.154 26.3438ZM130.859 20.6602L132.506 25.582L132.787 26.7246L132.008 27.123L129.676 20.6602H130.859Z" fill="#DDDDDD"/>
<path d="M296.939 67.0607C297.525 67.6464 298.475 67.6464 299.061 67.0607L308.607 57.5147C309.192 56.9289 309.192 55.9792 308.607 55.3934C308.021 54.8076 307.071 54.8076 306.485 55.3934L298 63.8787L289.515 55.3934C288.929 54.8076 287.979 54.8076 287.393 55.3934C286.808 55.9792 286.808 56.9289 287.393 57.5147L296.939 67.0607ZM296.5 34L296.5 66L299.5 66L299.5 34L296.5 34Z" fill="#DDDDDD"/>
<path d="M285.248 27V21.498H284.246V20.6602H285.248V20.0098C285.248 19.3301 285.43 18.8047 285.793 18.4336C286.156 18.0625 286.67 17.877 287.334 17.877C287.584 17.877 287.832 17.9102 288.078 17.9766L288.02 18.8555C287.836 18.8203 287.641 18.8027 287.434 18.8027C287.082 18.8027 286.811 18.9062 286.619 19.1133C286.428 19.3164 286.332 19.6094 286.332 19.9922V20.6602H287.686V21.498H286.332V27H285.248ZM291.377 27.1172C290.518 27.1172 289.818 26.8359 289.279 26.2734C288.74 25.707 288.471 24.9512 288.471 24.0059V23.8066C288.471 23.1777 288.59 22.6172 288.828 22.125C289.07 21.6289 289.406 21.2422 289.836 20.9648C290.27 20.6836 290.738 20.543 291.242 20.543C292.066 20.543 292.707 20.8145 293.164 21.3574C293.621 21.9004 293.85 22.6777 293.85 23.6895V24.1406H289.555C289.57 24.7656 289.752 25.2715 290.1 25.6582C290.451 26.041 290.896 26.2324 291.436 26.2324C291.818 26.2324 292.143 26.1543 292.408 25.998C292.674 25.8418 292.906 25.6348 293.105 25.377L293.768 25.8926C293.236 26.709 292.439 27.1172 291.377 27.1172ZM291.242 21.4336C290.805 21.4336 290.438 21.5938 290.141 21.9141C289.844 22.2305 289.66 22.6758 289.59 23.25H292.766V23.168C292.734 22.6172 292.586 22.1914 292.32 21.8906C292.055 21.5859 291.695 21.4336 291.242 21.4336ZM296.58 19.125V20.6602H297.764V21.498H296.58V25.4297C296.58 25.6836 296.633 25.875 296.738 26.0039C296.844 26.1289 297.023 26.1914 297.277 26.1914C297.402 26.1914 297.574 26.168 297.793 26.1211V27C297.508 27.0781 297.23 27.1172 296.961 27.1172C296.477 27.1172 296.111 26.9707 295.865 26.6777C295.619 26.3848 295.496 25.9688 295.496 25.4297V21.498H294.342V20.6602H295.496V19.125H296.58ZM301.578 26.2324C301.965 26.2324 302.303 26.1152 302.592 25.8809C302.881 25.6465 303.041 25.3535 303.072 25.002H304.098C304.078 25.3652 303.953 25.7109 303.723 26.0391C303.492 26.3672 303.184 26.6289 302.797 26.8242C302.414 27.0195 302.008 27.1172 301.578 27.1172C300.715 27.1172 300.027 26.8301 299.516 26.2559C299.008 25.6777 298.754 24.8887 298.754 23.8887V23.707C298.754 23.0898 298.867 22.541 299.094 22.0605C299.32 21.5801 299.645 21.207 300.066 20.9414C300.492 20.6758 300.994 20.543 301.572 20.543C302.283 20.543 302.873 20.7559 303.342 21.1816C303.814 21.6074 304.066 22.1602 304.098 22.8398H303.072C303.041 22.4297 302.885 22.0938 302.604 21.832C302.326 21.5664 301.982 21.4336 301.572 21.4336C301.021 21.4336 300.594 21.6328 300.289 22.0312C299.988 22.4258 299.838 22.998 299.838 23.748V23.9531C299.838 24.6836 299.988 25.2461 300.289 25.6406C300.59 26.0352 301.02 26.2324 301.578 26.2324ZM306.4 21.4277C306.881 20.8379 307.506 20.543 308.275 20.543C309.615 20.543 310.291 21.2988 310.303 22.8105V27H309.219V22.8047C309.215 22.3477 309.109 22.0098 308.902 21.791C308.699 21.5723 308.381 21.4629 307.947 21.4629C307.596 21.4629 307.287 21.5566 307.021 21.7441C306.756 21.9316 306.549 22.1777 306.4 22.4824V27H305.316V18H306.4V21.4277Z" fill="#DDDDDD"/>
<rect x="34" y="135" width="161" height="27" fill="#29405A"/>
<path d="M41.2637 149.227L44.9316 150.709V151.857L40.1387 149.637V148.781L44.9316 146.566V147.715L41.2637 149.227ZM48.2656 144.469L51.0547 151.43L53.8438 144.469H55.3027V153H54.1777V149.678L54.2832 146.092L51.4824 153H50.6211L47.8262 146.109L47.9375 149.678V153H46.8125V144.469H48.2656ZM59.75 153.117C58.8906 153.117 58.1914 152.836 57.6523 152.273C57.1133 151.707 56.8438 150.951 56.8438 150.006V149.807C56.8438 149.178 56.9629 148.617 57.2012 148.125C57.4434 147.629 57.7793 147.242 58.209 146.965C58.6426 146.684 59.1113 146.543 59.6152 146.543C60.4395 146.543 61.0801 146.814 61.5371 147.357C61.9941 147.9 62.2227 148.678 62.2227 149.689V150.141H57.9277C57.9434 150.766 58.125 151.271 58.4727 151.658C58.8242 152.041 59.2695 152.232 59.8086 152.232C60.1914 152.232 60.5156 152.154 60.7812 151.998C61.0469 151.842 61.2793 151.635 61.4785 151.377L62.1406 151.893C61.6094 152.709 60.8125 153.117 59.75 153.117ZM59.6152 147.434C59.1777 147.434 58.8105 147.594 58.5137 147.914C58.2168 148.23 58.0332 148.676 57.9629 149.25H61.1387V149.168C61.1074 148.617 60.959 148.191 60.6934 147.891C60.4277 147.586 60.0684 147.434 59.6152 147.434ZM63.2188 149.777C63.2188 148.805 63.4492 148.023 63.9102 147.434C64.3711 146.84 64.9746 146.543 65.7207 146.543C66.4629 146.543 67.0508 146.797 67.4844 147.305V144H68.5684V153H67.5723L67.5195 152.32C67.0859 152.852 66.4824 153.117 65.709 153.117C64.9746 153.117 64.375 152.816 63.9102 152.215C63.4492 151.613 63.2188 150.828 63.2188 149.859V149.777ZM64.3027 149.9C64.3027 150.619 64.4512 151.182 64.748 151.588C65.0449 151.994 65.4551 152.197 65.9785 152.197C66.666 152.197 67.168 151.889 67.4844 151.271V148.359C67.1602 147.762 66.6621 147.463 65.9902 147.463C65.459 147.463 65.0449 147.668 64.748 148.078C64.4512 148.488 64.3027 149.096 64.3027 149.9ZM71.4336 153H70.3496V146.66H71.4336V153ZM70.2617 144.979C70.2617 144.803 70.3145 144.654 70.4199 144.533C70.5293 144.412 70.6895 144.352 70.9004 144.352C71.1113 144.352 71.2715 144.412 71.3809 144.533C71.4902 144.654 71.5449 144.803 71.5449 144.979C71.5449 145.154 71.4902 145.301 71.3809 145.418C71.2715 145.535 71.1113 145.594 70.9004 145.594C70.6895 145.594 70.5293 145.535 70.4199 145.418C70.3145 145.301 70.2617 145.154 70.2617 144.979ZM77.0879 153C77.0254 152.875 76.9746 152.652 76.9355 152.332C76.4316 152.855 75.8301 153.117 75.1309 153.117C74.5059 153.117 73.9922 152.941 73.5898 152.59C73.1914 152.234 72.9922 151.785 72.9922 151.242C72.9922 150.582 73.2422 150.07 73.7422 149.707C74.2461 149.34 74.9531 149.156 75.8633 149.156H76.918V148.658C76.918 148.279 76.8047 147.979 76.5781 147.756C76.3516 147.529 76.0176 147.416 75.5762 147.416C75.1895 147.416 74.8652 147.514 74.6035 147.709C74.3418 147.904 74.2109 148.141 74.2109 148.418H73.1211C73.1211 148.102 73.2324 147.797 73.4551 147.504C73.6816 147.207 73.9863 146.973 74.3691 146.801C74.7559 146.629 75.1797 146.543 75.6406 146.543C76.3711 146.543 76.9434 146.727 77.3574 147.094C77.7715 147.457 77.9863 147.959 78.002 148.6V151.518C78.002 152.1 78.0762 152.562 78.2246 152.906V153H77.0879ZM75.2891 152.174C75.6289 152.174 75.9512 152.086 76.2559 151.91C76.5605 151.734 76.7812 151.506 76.918 151.225V149.924H76.0684C74.7402 149.924 74.0762 150.312 74.0762 151.09C74.0762 151.43 74.1895 151.695 74.416 151.887C74.6426 152.078 74.9336 152.174 75.2891 152.174ZM82.3848 149.197C81.4199 148.92 80.7168 148.58 80.2754 148.178C79.8379 147.771 79.6191 147.271 79.6191 146.678C79.6191 146.006 79.8867 145.451 80.4219 145.014C80.9609 144.572 81.6602 144.352 82.5195 144.352C83.1055 144.352 83.627 144.465 84.084 144.691C84.5449 144.918 84.9004 145.23 85.1504 145.629C85.4043 146.027 85.5312 146.463 85.5312 146.936H84.4004C84.4004 146.42 84.2363 146.016 83.9082 145.723C83.5801 145.426 83.1172 145.277 82.5195 145.277C81.9648 145.277 81.5312 145.4 81.2188 145.646C80.9102 145.889 80.7559 146.227 80.7559 146.66C80.7559 147.008 80.9023 147.303 81.1953 147.545C81.4922 147.783 81.9941 148.002 82.7012 148.201C83.4121 148.4 83.9668 148.621 84.3652 148.863C84.7676 149.102 85.0645 149.381 85.2559 149.701C85.4512 150.021 85.5488 150.398 85.5488 150.832C85.5488 151.523 85.2793 152.078 84.7402 152.496C84.2012 152.91 83.4805 153.117 82.5781 153.117C81.9922 153.117 81.4453 153.006 80.9375 152.783C80.4297 152.557 80.0371 152.248 79.7598 151.857C79.4863 151.467 79.3496 151.023 79.3496 150.527H80.4805C80.4805 151.043 80.6699 151.451 81.0488 151.752C81.4316 152.049 81.9414 152.197 82.5781 152.197C83.1719 152.197 83.627 152.076 83.9434 151.834C84.2598 151.592 84.418 151.262 84.418 150.844C84.418 150.426 84.2715 150.104 83.9785 149.877C83.6855 149.646 83.1543 149.42 82.3848 149.197ZM88.2969 145.125V146.66H89.4805V147.498H88.2969V151.43C88.2969 151.684 88.3496 151.875 88.4551 152.004C88.5605 152.129 88.7402 152.191 88.9941 152.191C89.1191 152.191 89.291 152.168 89.5098 152.121V153C89.2246 153.078 88.9473 153.117 88.6777 153.117C88.1934 153.117 87.8281 152.971 87.582 152.678C87.3359 152.385 87.2129 151.969 87.2129 151.43V147.498H86.0586V146.66H87.2129V145.125H88.2969ZM93.8164 147.633C93.6523 147.605 93.4746 147.592 93.2832 147.592C92.5723 147.592 92.0898 147.895 91.8359 148.5V153H90.752V146.66H91.8066L91.8242 147.393C92.1797 146.826 92.6836 146.543 93.3359 146.543C93.5469 146.543 93.707 146.57 93.8164 146.625V147.633ZM97.332 153.117C96.4727 153.117 95.7734 152.836 95.2344 152.273C94.6953 151.707 94.4258 150.951 94.4258 150.006V149.807C94.4258 149.178 94.5449 148.617 94.7832 148.125C95.0254 147.629 95.3613 147.242 95.791 146.965C96.2246 146.684 96.6934 146.543 97.1973 146.543C98.0215 146.543 98.6621 146.814 99.1191 147.357C99.5762 147.9 99.8047 148.678 99.8047 149.689V150.141H95.5098C95.5254 150.766 95.707 151.271 96.0547 151.658C96.4062 152.041 96.8516 152.232 97.3906 152.232C97.7734 152.232 98.0977 152.154 98.3633 151.998C98.6289 151.842 98.8613 151.635 99.0605 151.377L99.7227 151.893C99.1914 152.709 98.3945 153.117 97.332 153.117ZM97.1973 147.434C96.7598 147.434 96.3926 147.594 96.0957 147.914C95.7988 148.23 95.6152 148.676 95.5449 149.25H98.7207V149.168C98.6895 148.617 98.541 148.191 98.2754 147.891C98.0098 147.586 97.6504 147.434 97.1973 147.434ZM104.979 153C104.916 152.875 104.865 152.652 104.826 152.332C104.322 152.855 103.721 153.117 103.021 153.117C102.396 153.117 101.883 152.941 101.48 152.59C101.082 152.234 100.883 151.785 100.883 151.242C100.883 150.582 101.133 150.07 101.633 149.707C102.137 149.34 102.844 149.156 103.754 149.156H104.809V148.658C104.809 148.279 104.695 147.979 104.469 147.756C104.242 147.529 103.908 147.416 103.467 147.416C103.08 147.416 102.756 147.514 102.494 147.709C102.232 147.904 102.102 148.141 102.102 148.418H101.012C101.012 148.102 101.123 147.797 101.346 147.504C101.572 147.207 101.877 146.973 102.26 146.801C102.646 146.629 103.07 146.543 103.531 146.543C104.262 146.543 104.834 146.727 105.248 147.094C105.662 147.457 105.877 147.959 105.893 148.6V151.518C105.893 152.1 105.967 152.562 106.115 152.906V153H104.979ZM103.18 152.174C103.52 152.174 103.842 152.086 104.146 151.91C104.451 151.734 104.672 151.506 104.809 151.225V149.924H103.959C102.631 149.924 101.967 150.312 101.967 151.09C101.967 151.43 102.08 151.695 102.307 151.887C102.533 152.078 102.824 152.174 103.18 152.174ZM108.611 146.66L108.641 147.363C109.105 146.816 109.732 146.543 110.521 146.543C111.408 146.543 112.012 146.883 112.332 147.562C112.543 147.258 112.816 147.012 113.152 146.824C113.492 146.637 113.893 146.543 114.354 146.543C115.744 146.543 116.451 147.279 116.475 148.752V153H115.391V148.816C115.391 148.363 115.287 148.025 115.08 147.803C114.873 147.576 114.525 147.463 114.037 147.463C113.635 147.463 113.301 147.584 113.035 147.826C112.77 148.064 112.615 148.387 112.572 148.793V153H111.482V148.846C111.482 147.924 111.031 147.463 110.129 147.463C109.418 147.463 108.932 147.766 108.67 148.371V153H107.586V146.66H108.611ZM120.799 149.197C119.834 148.92 119.131 148.58 118.689 148.178C118.252 147.771 118.033 147.271 118.033 146.678C118.033 146.006 118.301 145.451 118.836 145.014C119.375 144.572 120.074 144.352 120.934 144.352C121.52 144.352 122.041 144.465 122.498 144.691C122.959 144.918 123.314 145.23 123.564 145.629C123.818 146.027 123.945 146.463 123.945 146.936H122.814C122.814 146.42 122.65 146.016 122.322 145.723C121.994 145.426 121.531 145.277 120.934 145.277C120.379 145.277 119.945 145.4 119.633 145.646C119.324 145.889 119.17 146.227 119.17 146.66C119.17 147.008 119.316 147.303 119.609 147.545C119.906 147.783 120.408 148.002 121.115 148.201C121.826 148.4 122.381 148.621 122.779 148.863C123.182 149.102 123.479 149.381 123.67 149.701C123.865 150.021 123.963 150.398 123.963 150.832C123.963 151.523 123.693 152.078 123.154 152.496C122.615 152.91 121.895 153.117 120.992 153.117C120.406 153.117 119.859 153.006 119.352 152.783C118.844 152.557 118.451 152.248 118.174 151.857C117.9 151.467 117.764 151.023 117.764 150.527H118.895C118.895 151.043 119.084 151.451 119.463 151.752C119.846 152.049 120.355 152.197 120.992 152.197C121.586 152.197 122.041 152.076 122.357 151.834C122.674 151.592 122.832 151.262 122.832 150.844C122.832 150.426 122.686 150.104 122.393 149.877C122.1 149.646 121.568 149.42 120.799 149.197ZM124.953 149.771C124.953 149.15 125.074 148.592 125.316 148.096C125.562 147.6 125.902 147.217 126.336 146.947C126.773 146.678 127.271 146.543 127.83 146.543C128.693 146.543 129.391 146.842 129.922 147.439C130.457 148.037 130.725 148.832 130.725 149.824V149.9C130.725 150.518 130.605 151.072 130.367 151.564C130.133 152.053 129.795 152.434 129.354 152.707C128.916 152.98 128.412 153.117 127.842 153.117C126.982 153.117 126.285 152.818 125.75 152.221C125.219 151.623 124.953 150.832 124.953 149.848V149.771ZM126.043 149.9C126.043 150.604 126.205 151.168 126.529 151.594C126.857 152.02 127.295 152.232 127.842 152.232C128.393 152.232 128.83 152.018 129.154 151.588C129.479 151.154 129.641 150.549 129.641 149.771C129.641 149.076 129.475 148.514 129.143 148.084C128.814 147.65 128.377 147.434 127.83 147.434C127.295 147.434 126.863 147.646 126.535 148.072C126.207 148.498 126.043 149.107 126.043 149.9ZM135.998 152.373C135.576 152.869 134.957 153.117 134.141 153.117C133.465 153.117 132.949 152.922 132.594 152.531C132.242 152.137 132.064 151.555 132.061 150.785V146.66H133.145V150.756C133.145 151.717 133.535 152.197 134.316 152.197C135.145 152.197 135.695 151.889 135.969 151.271V146.66H137.053V153H136.021L135.998 152.373ZM141.77 147.633C141.605 147.605 141.428 147.592 141.236 147.592C140.525 147.592 140.043 147.895 139.789 148.5V153H138.705V146.66H139.76L139.777 147.393C140.133 146.826 140.637 146.543 141.289 146.543C141.5 146.543 141.66 146.57 141.77 146.625V147.633ZM145.197 152.232C145.584 152.232 145.922 152.115 146.211 151.881C146.5 151.646 146.66 151.354 146.691 151.002H147.717C147.697 151.365 147.572 151.711 147.342 152.039C147.111 152.367 146.803 152.629 146.416 152.824C146.033 153.02 145.627 153.117 145.197 153.117C144.334 153.117 143.646 152.83 143.135 152.256C142.627 151.678 142.373 150.889 142.373 149.889V149.707C142.373 149.09 142.486 148.541 142.713 148.061C142.939 147.58 143.264 147.207 143.686 146.941C144.111 146.676 144.613 146.543 145.191 146.543C145.902 146.543 146.492 146.756 146.961 147.182C147.434 147.607 147.686 148.16 147.717 148.84H146.691C146.66 148.43 146.504 148.094 146.223 147.832C145.945 147.566 145.602 147.434 145.191 147.434C144.641 147.434 144.213 147.633 143.908 148.031C143.607 148.426 143.457 148.998 143.457 149.748V149.953C143.457 150.684 143.607 151.246 143.908 151.641C144.209 152.035 144.639 152.232 145.197 152.232ZM151.566 153.117C150.707 153.117 150.008 152.836 149.469 152.273C148.93 151.707 148.66 150.951 148.66 150.006V149.807C148.66 149.178 148.779 148.617 149.018 148.125C149.26 147.629 149.596 147.242 150.025 146.965C150.459 146.684 150.928 146.543 151.432 146.543C152.256 146.543 152.896 146.814 153.354 147.357C153.811 147.9 154.039 148.678 154.039 149.689V150.141H149.744C149.76 150.766 149.941 151.271 150.289 151.658C150.641 152.041 151.086 152.232 151.625 152.232C152.008 152.232 152.332 152.154 152.598 151.998C152.863 151.842 153.096 151.635 153.295 151.377L153.957 151.893C153.426 152.709 152.629 153.117 151.566 153.117ZM151.432 147.434C150.994 147.434 150.627 147.594 150.33 147.914C150.033 148.23 149.85 148.676 149.779 149.25H152.955V149.168C152.924 148.617 152.775 148.191 152.51 147.891C152.244 147.586 151.885 147.434 151.432 147.434ZM162.025 153H160.895L156.6 146.426V153H155.469V144.469H156.6L160.906 151.072V144.469H162.025V153ZM163.566 149.771C163.566 149.15 163.688 148.592 163.93 148.096C164.176 147.6 164.516 147.217 164.949 146.947C165.387 146.678 165.885 146.543 166.443 146.543C167.307 146.543 168.004 146.842 168.535 147.439C169.07 148.037 169.338 148.832 169.338 149.824V149.9C169.338 150.518 169.219 151.072 168.98 151.564C168.746 152.053 168.408 152.434 167.967 152.707C167.529 152.98 167.025 153.117 166.455 153.117C165.596 153.117 164.898 152.818 164.363 152.221C163.832 151.623 163.566 150.832 163.566 149.848V149.771ZM164.656 149.9C164.656 150.604 164.818 151.168 165.143 151.594C165.471 152.02 165.908 152.232 166.455 152.232C167.006 152.232 167.443 152.018 167.768 151.588C168.092 151.154 168.254 150.549 168.254 149.771C168.254 149.076 168.088 148.514 167.756 148.084C167.428 147.65 166.99 147.434 166.443 147.434C165.908 147.434 165.477 147.646 165.148 148.072C164.82 148.498 164.656 149.107 164.656 149.9ZM170.434 149.777C170.434 148.805 170.664 148.023 171.125 147.434C171.586 146.84 172.189 146.543 172.936 146.543C173.678 146.543 174.266 146.797 174.699 147.305V144H175.783V153H174.787L174.734 152.32C174.301 152.852 173.697 153.117 172.924 153.117C172.189 153.117 171.59 152.816 171.125 152.215C170.664 151.613 170.434 150.828 170.434 149.859V149.777ZM171.518 149.9C171.518 150.619 171.666 151.182 171.963 151.588C172.26 151.994 172.67 152.197 173.193 152.197C173.881 152.197 174.383 151.889 174.699 151.271V148.359C174.375 147.762 173.877 147.463 173.205 147.463C172.674 147.463 172.26 147.668 171.963 148.078C171.666 148.488 171.518 149.096 171.518 149.9ZM180.102 153.117C179.242 153.117 178.543 152.836 178.004 152.273C177.465 151.707 177.195 150.951 177.195 150.006V149.807C177.195 149.178 177.314 148.617 177.553 148.125C177.795 147.629 178.131 147.242 178.561 146.965C178.994 146.684 179.463 146.543 179.967 146.543C180.791 146.543 181.432 146.814 181.889 147.357C182.346 147.9 182.574 148.678 182.574 149.689V150.141H178.279C178.295 150.766 178.477 151.271 178.824 151.658C179.176 152.041 179.621 152.232 180.16 152.232C180.543 152.232 180.867 152.154 181.133 151.998C181.398 151.842 181.631 151.635 181.83 151.377L182.492 151.893C181.961 152.709 181.164 153.117 180.102 153.117ZM179.967 147.434C179.529 147.434 179.162 147.594 178.865 147.914C178.568 148.23 178.385 148.676 178.314 149.25H181.49V149.168C181.459 148.617 181.311 148.191 181.045 147.891C180.779 147.586 180.42 147.434 179.967 147.434ZM187.672 149.191L183.799 147.674V146.561L188.803 148.775V149.631L183.799 151.852V150.727L187.672 149.191Z" fill="#DDDDDD"/>
<rect x="126" y="194" width="161" height="27" fill="#29405A"/>
<path d="M141.361 208.062L145.41 209.703V210.852L140.617 208.631V207.957L141.361 208.062ZM145.41 206.715L141.367 208.379L140.617 208.461V207.781L145.41 205.566V206.715ZM150.449 204.225L147.625 212H146.471L149.723 203.469H150.467L150.449 204.225ZM152.816 212L149.986 204.225L149.969 203.469H150.713L153.977 212H152.816ZM152.67 208.842V209.768H147.877V208.842H152.67ZM158.764 210.535V205.66H159.854V212H158.816L158.764 210.535ZM158.969 209.199L159.42 209.188C159.42 209.609 159.375 210 159.285 210.359C159.199 210.715 159.059 211.023 158.863 211.285C158.668 211.547 158.412 211.752 158.096 211.9C157.779 212.045 157.395 212.117 156.941 212.117C156.633 212.117 156.35 212.072 156.092 211.982C155.838 211.893 155.619 211.754 155.436 211.566C155.252 211.379 155.109 211.135 155.008 210.834C154.91 210.533 154.861 210.172 154.861 209.75V205.66H155.945V209.762C155.945 210.047 155.977 210.283 156.039 210.471C156.105 210.654 156.193 210.801 156.303 210.91C156.416 211.016 156.541 211.09 156.678 211.133C156.818 211.176 156.963 211.197 157.111 211.197C157.572 211.197 157.938 211.109 158.207 210.934C158.477 210.754 158.67 210.514 158.787 210.213C158.908 209.908 158.969 209.57 158.969 209.199ZM165.502 210.77V203H166.592V212H165.596L165.502 210.77ZM161.236 208.9V208.777C161.236 208.293 161.295 207.854 161.412 207.459C161.533 207.061 161.703 206.719 161.922 206.434C162.145 206.148 162.408 205.93 162.713 205.777C163.021 205.621 163.365 205.543 163.744 205.543C164.143 205.543 164.49 205.613 164.787 205.754C165.088 205.891 165.342 206.092 165.549 206.357C165.76 206.619 165.926 206.936 166.047 207.307C166.168 207.678 166.252 208.098 166.299 208.566V209.105C166.256 209.57 166.172 209.988 166.047 210.359C165.926 210.73 165.76 211.047 165.549 211.309C165.342 211.57 165.088 211.771 164.787 211.912C164.486 212.049 164.135 212.117 163.732 212.117C163.361 212.117 163.021 212.037 162.713 211.877C162.408 211.717 162.145 211.492 161.922 211.203C161.703 210.914 161.533 210.574 161.412 210.184C161.295 209.789 161.236 209.361 161.236 208.9ZM162.326 208.777V208.9C162.326 209.217 162.357 209.514 162.42 209.791C162.486 210.068 162.588 210.312 162.725 210.523C162.861 210.734 163.035 210.9 163.246 211.021C163.457 211.139 163.709 211.197 164.002 211.197C164.361 211.197 164.656 211.121 164.887 210.969C165.121 210.816 165.309 210.615 165.449 210.365C165.59 210.115 165.699 209.844 165.777 209.551V208.139C165.73 207.924 165.662 207.717 165.572 207.518C165.486 207.314 165.373 207.135 165.232 206.979C165.096 206.818 164.926 206.691 164.723 206.598C164.523 206.504 164.287 206.457 164.014 206.457C163.717 206.457 163.461 206.52 163.246 206.645C163.035 206.766 162.861 206.934 162.725 207.148C162.588 207.359 162.486 207.605 162.42 207.887C162.357 208.164 162.326 208.461 162.326 208.777ZM169.457 205.66V212H168.367V205.66H169.457ZM168.285 203.979C168.285 203.803 168.338 203.654 168.443 203.533C168.553 203.412 168.713 203.352 168.924 203.352C169.131 203.352 169.289 203.412 169.398 203.533C169.512 203.654 169.568 203.803 169.568 203.979C169.568 204.146 169.512 204.291 169.398 204.412C169.289 204.529 169.131 204.588 168.924 204.588C168.713 204.588 168.553 204.529 168.443 204.412C168.338 204.291 168.285 204.146 168.285 203.979ZM170.91 208.9V208.766C170.91 208.309 170.977 207.885 171.109 207.494C171.242 207.1 171.434 206.758 171.684 206.469C171.934 206.176 172.236 205.949 172.592 205.789C172.947 205.625 173.346 205.543 173.787 205.543C174.232 205.543 174.633 205.625 174.988 205.789C175.348 205.949 175.652 206.176 175.902 206.469C176.156 206.758 176.35 207.1 176.482 207.494C176.615 207.885 176.682 208.309 176.682 208.766V208.9C176.682 209.357 176.615 209.781 176.482 210.172C176.35 210.562 176.156 210.904 175.902 211.197C175.652 211.486 175.35 211.713 174.994 211.877C174.643 212.037 174.244 212.117 173.799 212.117C173.354 212.117 172.953 212.037 172.598 211.877C172.242 211.713 171.938 211.486 171.684 211.197C171.434 210.904 171.242 210.562 171.109 210.172C170.977 209.781 170.91 209.357 170.91 208.9ZM171.994 208.766V208.9C171.994 209.217 172.031 209.516 172.105 209.797C172.18 210.074 172.291 210.32 172.439 210.535C172.592 210.75 172.781 210.92 173.008 211.045C173.234 211.166 173.498 211.227 173.799 211.227C174.096 211.227 174.355 211.166 174.578 211.045C174.805 210.92 174.992 210.75 175.141 210.535C175.289 210.32 175.4 210.074 175.475 209.797C175.553 209.516 175.592 209.217 175.592 208.9V208.766C175.592 208.453 175.553 208.158 175.475 207.881C175.4 207.6 175.287 207.352 175.135 207.137C174.986 206.918 174.799 206.746 174.572 206.621C174.35 206.496 174.088 206.434 173.787 206.434C173.49 206.434 173.229 206.496 173.002 206.621C172.779 206.746 172.592 206.918 172.439 207.137C172.291 207.352 172.18 207.6 172.105 207.881C172.031 208.158 171.994 208.453 171.994 208.766ZM180.514 212H178.732L178.744 211.08H180.514C181.123 211.08 181.631 210.953 182.037 210.699C182.443 210.441 182.748 210.082 182.951 209.621C183.158 209.156 183.262 208.613 183.262 207.992V207.471C183.262 206.982 183.203 206.549 183.086 206.17C182.969 205.787 182.797 205.465 182.57 205.203C182.344 204.938 182.066 204.736 181.738 204.6C181.414 204.463 181.041 204.395 180.619 204.395H178.697V203.469H180.619C181.178 203.469 181.688 203.562 182.148 203.75C182.609 203.934 183.006 204.201 183.338 204.553C183.674 204.9 183.932 205.322 184.111 205.818C184.291 206.311 184.381 206.865 184.381 207.482V207.992C184.381 208.609 184.291 209.166 184.111 209.662C183.932 210.154 183.672 210.574 183.332 210.922C182.996 211.27 182.59 211.537 182.113 211.725C181.641 211.908 181.107 212 180.514 212ZM179.336 203.469V212H178.205V203.469H179.336ZM188.547 212.117C188.105 212.117 187.705 212.043 187.346 211.895C186.99 211.742 186.684 211.529 186.426 211.256C186.172 210.982 185.977 210.658 185.84 210.283C185.703 209.908 185.635 209.498 185.635 209.053V208.807C185.635 208.291 185.711 207.832 185.863 207.43C186.016 207.023 186.223 206.68 186.484 206.398C186.746 206.117 187.043 205.904 187.375 205.76C187.707 205.615 188.051 205.543 188.406 205.543C188.859 205.543 189.25 205.621 189.578 205.777C189.91 205.934 190.182 206.152 190.393 206.434C190.604 206.711 190.76 207.039 190.861 207.418C190.963 207.793 191.014 208.203 191.014 208.648V209.135H186.279V208.25H189.93V208.168C189.914 207.887 189.855 207.613 189.754 207.348C189.656 207.082 189.5 206.863 189.285 206.691C189.07 206.52 188.777 206.434 188.406 206.434C188.16 206.434 187.934 206.486 187.727 206.592C187.52 206.693 187.342 206.846 187.193 207.049C187.045 207.252 186.93 207.5 186.848 207.793C186.766 208.086 186.725 208.424 186.725 208.807V209.053C186.725 209.354 186.766 209.637 186.848 209.902C186.934 210.164 187.057 210.395 187.217 210.594C187.381 210.793 187.578 210.949 187.809 211.062C188.043 211.176 188.309 211.232 188.605 211.232C188.988 211.232 189.312 211.154 189.578 210.998C189.844 210.842 190.076 210.633 190.275 210.371L190.932 210.893C190.795 211.1 190.621 211.297 190.41 211.484C190.199 211.672 189.939 211.824 189.631 211.941C189.326 212.059 188.965 212.117 188.547 212.117ZM195.971 210.318C195.971 210.162 195.936 210.018 195.865 209.885C195.799 209.748 195.66 209.625 195.449 209.516C195.242 209.402 194.93 209.305 194.512 209.223C194.16 209.148 193.842 209.061 193.557 208.959C193.275 208.857 193.035 208.734 192.836 208.59C192.641 208.445 192.49 208.275 192.385 208.08C192.279 207.885 192.227 207.656 192.227 207.395C192.227 207.145 192.281 206.908 192.391 206.686C192.504 206.463 192.662 206.266 192.865 206.094C193.072 205.922 193.32 205.787 193.609 205.689C193.898 205.592 194.221 205.543 194.576 205.543C195.084 205.543 195.518 205.633 195.877 205.812C196.236 205.992 196.512 206.232 196.703 206.533C196.895 206.83 196.99 207.16 196.99 207.523H195.906C195.906 207.348 195.854 207.178 195.748 207.014C195.646 206.846 195.496 206.707 195.297 206.598C195.102 206.488 194.861 206.434 194.576 206.434C194.275 206.434 194.031 206.48 193.844 206.574C193.66 206.664 193.525 206.779 193.439 206.92C193.357 207.061 193.316 207.209 193.316 207.365C193.316 207.482 193.336 207.588 193.375 207.682C193.418 207.771 193.492 207.855 193.598 207.934C193.703 208.008 193.852 208.078 194.043 208.145C194.234 208.211 194.479 208.277 194.775 208.344C195.295 208.461 195.723 208.602 196.059 208.766C196.395 208.93 196.645 209.131 196.809 209.369C196.973 209.607 197.055 209.896 197.055 210.236C197.055 210.514 196.996 210.768 196.879 210.998C196.766 211.229 196.6 211.428 196.381 211.596C196.166 211.76 195.908 211.889 195.607 211.982C195.311 212.072 194.977 212.117 194.605 212.117C194.047 212.117 193.574 212.018 193.188 211.818C192.801 211.619 192.508 211.361 192.309 211.045C192.109 210.729 192.01 210.395 192.01 210.043H193.1C193.115 210.34 193.201 210.576 193.357 210.752C193.514 210.924 193.705 211.047 193.932 211.121C194.158 211.191 194.383 211.227 194.605 211.227C194.902 211.227 195.15 211.188 195.35 211.109C195.553 211.031 195.707 210.924 195.812 210.787C195.918 210.65 195.971 210.494 195.971 210.318ZM201.133 205.66V206.492H197.705V205.66H201.133ZM198.865 204.119H199.949V210.43C199.949 210.645 199.982 210.807 200.049 210.916C200.115 211.025 200.201 211.098 200.307 211.133C200.412 211.168 200.525 211.186 200.646 211.186C200.736 211.186 200.83 211.178 200.928 211.162C201.029 211.143 201.105 211.127 201.156 211.115L201.162 212C201.076 212.027 200.963 212.053 200.822 212.076C200.686 212.104 200.52 212.117 200.324 212.117C200.059 212.117 199.814 212.064 199.592 211.959C199.369 211.854 199.191 211.678 199.059 211.432C198.93 211.182 198.865 210.846 198.865 210.424V204.119ZM203.582 205.66V212H202.492V205.66H203.582ZM202.41 203.979C202.41 203.803 202.463 203.654 202.568 203.533C202.678 203.412 202.838 203.352 203.049 203.352C203.256 203.352 203.414 203.412 203.523 203.533C203.637 203.654 203.693 203.803 203.693 203.979C203.693 204.146 203.637 204.291 203.523 204.412C203.414 204.529 203.256 204.588 203.049 204.588C202.838 204.588 202.678 204.529 202.568 204.412C202.463 204.291 202.41 204.146 202.41 203.979ZM206.406 207.014V212H205.322V205.66H206.348L206.406 207.014ZM206.148 208.59L205.697 208.572C205.701 208.139 205.766 207.738 205.891 207.371C206.016 207 206.191 206.678 206.418 206.404C206.645 206.131 206.914 205.92 207.227 205.771C207.543 205.619 207.893 205.543 208.275 205.543C208.588 205.543 208.869 205.586 209.119 205.672C209.369 205.754 209.582 205.887 209.758 206.07C209.938 206.254 210.074 206.492 210.168 206.785C210.262 207.074 210.309 207.428 210.309 207.846V212H209.219V207.834C209.219 207.502 209.17 207.236 209.072 207.037C208.975 206.834 208.832 206.688 208.645 206.598C208.457 206.504 208.227 206.457 207.953 206.457C207.684 206.457 207.438 206.514 207.215 206.627C206.996 206.74 206.807 206.896 206.646 207.096C206.49 207.295 206.367 207.523 206.277 207.781C206.191 208.035 206.148 208.305 206.148 208.59ZM215.693 210.916V207.652C215.693 207.402 215.643 207.186 215.541 207.002C215.443 206.814 215.295 206.67 215.096 206.568C214.896 206.467 214.65 206.416 214.357 206.416C214.084 206.416 213.844 206.463 213.637 206.557C213.434 206.65 213.273 206.773 213.156 206.926C213.043 207.078 212.986 207.242 212.986 207.418H211.902C211.902 207.191 211.961 206.967 212.078 206.744C212.195 206.521 212.363 206.32 212.582 206.141C212.805 205.957 213.07 205.812 213.379 205.707C213.691 205.598 214.039 205.543 214.422 205.543C214.883 205.543 215.289 205.621 215.641 205.777C215.996 205.934 216.273 206.17 216.473 206.486C216.676 206.799 216.777 207.191 216.777 207.664V210.617C216.777 210.828 216.795 211.053 216.83 211.291C216.869 211.529 216.926 211.734 217 211.906V212H215.869C215.814 211.875 215.771 211.709 215.74 211.502C215.709 211.291 215.693 211.096 215.693 210.916ZM215.881 208.156L215.893 208.918H214.797C214.488 208.918 214.213 208.943 213.971 208.994C213.729 209.041 213.525 209.113 213.361 209.211C213.197 209.309 213.072 209.432 212.986 209.58C212.9 209.725 212.857 209.895 212.857 210.09C212.857 210.289 212.902 210.471 212.992 210.635C213.082 210.799 213.217 210.93 213.396 211.027C213.58 211.121 213.805 211.168 214.07 211.168C214.402 211.168 214.695 211.098 214.949 210.957C215.203 210.816 215.404 210.645 215.553 210.441C215.705 210.238 215.787 210.041 215.799 209.85L216.262 210.371C216.234 210.535 216.16 210.717 216.039 210.916C215.918 211.115 215.756 211.307 215.553 211.49C215.354 211.67 215.115 211.82 214.838 211.941C214.564 212.059 214.256 212.117 213.912 212.117C213.482 212.117 213.105 212.033 212.781 211.865C212.461 211.697 212.211 211.473 212.031 211.191C211.855 210.906 211.768 210.588 211.768 210.236C211.768 209.896 211.834 209.598 211.967 209.34C212.1 209.078 212.291 208.861 212.541 208.689C212.791 208.514 213.092 208.381 213.443 208.291C213.795 208.201 214.188 208.156 214.621 208.156H215.881ZM221.137 205.66V206.492H217.709V205.66H221.137ZM218.869 204.119H219.953V210.43C219.953 210.645 219.986 210.807 220.053 210.916C220.119 211.025 220.205 211.098 220.311 211.133C220.416 211.168 220.529 211.186 220.65 211.186C220.74 211.186 220.834 211.178 220.932 211.162C221.033 211.143 221.109 211.127 221.16 211.115L221.166 212C221.08 212.027 220.967 212.053 220.826 212.076C220.689 212.104 220.523 212.117 220.328 212.117C220.062 212.117 219.818 212.064 219.596 211.959C219.373 211.854 219.195 211.678 219.062 211.432C218.934 211.182 218.869 210.846 218.869 210.424V204.119ZM223.586 205.66V212H222.496V205.66H223.586ZM222.414 203.979C222.414 203.803 222.467 203.654 222.572 203.533C222.682 203.412 222.842 203.352 223.053 203.352C223.26 203.352 223.418 203.412 223.527 203.533C223.641 203.654 223.697 203.803 223.697 203.979C223.697 204.146 223.641 204.291 223.527 204.412C223.418 204.529 223.26 204.588 223.053 204.588C222.842 204.588 222.682 204.529 222.572 204.412C222.467 204.291 222.414 204.146 222.414 203.979ZM225.039 208.9V208.766C225.039 208.309 225.105 207.885 225.238 207.494C225.371 207.1 225.562 206.758 225.812 206.469C226.062 206.176 226.365 205.949 226.721 205.789C227.076 205.625 227.475 205.543 227.916 205.543C228.361 205.543 228.762 205.625 229.117 205.789C229.477 205.949 229.781 206.176 230.031 206.469C230.285 206.758 230.479 207.1 230.611 207.494C230.744 207.885 230.811 208.309 230.811 208.766V208.9C230.811 209.357 230.744 209.781 230.611 210.172C230.479 210.562 230.285 210.904 230.031 211.197C229.781 211.486 229.479 211.713 229.123 211.877C228.771 212.037 228.373 212.117 227.928 212.117C227.482 212.117 227.082 212.037 226.727 211.877C226.371 211.713 226.066 211.486 225.812 211.197C225.562 210.904 225.371 210.562 225.238 210.172C225.105 209.781 225.039 209.357 225.039 208.9ZM226.123 208.766V208.9C226.123 209.217 226.16 209.516 226.234 209.797C226.309 210.074 226.42 210.32 226.568 210.535C226.721 210.75 226.91 210.92 227.137 211.045C227.363 211.166 227.627 211.227 227.928 211.227C228.225 211.227 228.484 211.166 228.707 211.045C228.934 210.92 229.121 210.75 229.27 210.535C229.418 210.32 229.529 210.074 229.604 209.797C229.682 209.516 229.721 209.217 229.721 208.9V208.766C229.721 208.453 229.682 208.158 229.604 207.881C229.529 207.6 229.416 207.352 229.264 207.137C229.115 206.918 228.928 206.746 228.701 206.621C228.479 206.496 228.217 206.434 227.916 206.434C227.619 206.434 227.357 206.496 227.131 206.621C226.908 206.746 226.721 206.918 226.568 207.137C226.42 207.352 226.309 207.6 226.234 207.881C226.16 208.158 226.123 208.453 226.123 208.766ZM233.254 207.014V212H232.17V205.66H233.195L233.254 207.014ZM232.996 208.59L232.545 208.572C232.549 208.139 232.613 207.738 232.738 207.371C232.863 207 233.039 206.678 233.266 206.404C233.492 206.131 233.762 205.92 234.074 205.771C234.391 205.619 234.74 205.543 235.123 205.543C235.436 205.543 235.717 205.586 235.967 205.672C236.217 205.754 236.43 205.887 236.605 206.07C236.785 206.254 236.922 206.492 237.016 206.785C237.109 207.074 237.156 207.428 237.156 207.846V212H236.066V207.834C236.066 207.502 236.018 207.236 235.92 207.037C235.822 206.834 235.68 206.688 235.492 206.598C235.305 206.504 235.074 206.457 234.801 206.457C234.531 206.457 234.285 206.514 234.062 206.627C233.844 206.74 233.654 206.896 233.494 207.096C233.338 207.295 233.215 207.523 233.125 207.781C233.039 208.035 232.996 208.305 232.996 208.59ZM245.529 203.469V212H244.393L240.098 205.42V212H238.967V203.469H240.098L244.41 210.066V203.469H245.529ZM247.082 208.9V208.766C247.082 208.309 247.148 207.885 247.281 207.494C247.414 207.1 247.605 206.758 247.855 206.469C248.105 206.176 248.408 205.949 248.764 205.789C249.119 205.625 249.518 205.543 249.959 205.543C250.404 205.543 250.805 205.625 251.16 205.789C251.52 205.949 251.824 206.176 252.074 206.469C252.328 206.758 252.521 207.1 252.654 207.494C252.787 207.885 252.854 208.309 252.854 208.766V208.9C252.854 209.357 252.787 209.781 252.654 210.172C252.521 210.562 252.328 210.904 252.074 211.197C251.824 211.486 251.521 211.713 251.166 211.877C250.814 212.037 250.416 212.117 249.971 212.117C249.525 212.117 249.125 212.037 248.77 211.877C248.414 211.713 248.109 211.486 247.855 211.197C247.605 210.904 247.414 210.562 247.281 210.172C247.148 209.781 247.082 209.357 247.082 208.9ZM248.166 208.766V208.9C248.166 209.217 248.203 209.516 248.277 209.797C248.352 210.074 248.463 210.32 248.611 210.535C248.764 210.75 248.953 210.92 249.18 211.045C249.406 211.166 249.67 211.227 249.971 211.227C250.268 211.227 250.527 211.166 250.75 211.045C250.977 210.92 251.164 210.75 251.312 210.535C251.461 210.32 251.572 210.074 251.646 209.797C251.725 209.516 251.764 209.217 251.764 208.9V208.766C251.764 208.453 251.725 208.158 251.646 207.881C251.572 207.6 251.459 207.352 251.307 207.137C251.158 206.918 250.971 206.746 250.744 206.621C250.521 206.496 250.26 206.434 249.959 206.434C249.662 206.434 249.4 206.496 249.174 206.621C248.951 206.746 248.764 206.918 248.611 207.137C248.463 207.352 248.352 207.6 248.277 207.881C248.203 208.158 248.166 208.453 248.166 208.766ZM258.209 210.77V203H259.299V212H258.303L258.209 210.77ZM253.943 208.9V208.777C253.943 208.293 254.002 207.854 254.119 207.459C254.24 207.061 254.41 206.719 254.629 206.434C254.852 206.148 255.115 205.93 255.42 205.777C255.729 205.621 256.072 205.543 256.451 205.543C256.85 205.543 257.197 205.613 257.494 205.754C257.795 205.891 258.049 206.092 258.256 206.357C258.467 206.619 258.633 206.936 258.754 207.307C258.875 207.678 258.959 208.098 259.006 208.566V209.105C258.963 209.57 258.879 209.988 258.754 210.359C258.633 210.73 258.467 211.047 258.256 211.309C258.049 211.57 257.795 211.771 257.494 211.912C257.193 212.049 256.842 212.117 256.439 212.117C256.068 212.117 255.729 212.037 255.42 211.877C255.115 211.717 254.852 211.492 254.629 211.203C254.41 210.914 254.24 210.574 254.119 210.184C254.002 209.789 253.943 209.361 253.943 208.9ZM255.033 208.777V208.9C255.033 209.217 255.064 209.514 255.127 209.791C255.193 210.068 255.295 210.312 255.432 210.523C255.568 210.734 255.742 210.9 255.953 211.021C256.164 211.139 256.416 211.197 256.709 211.197C257.068 211.197 257.363 211.121 257.594 210.969C257.828 210.816 258.016 210.615 258.156 210.365C258.297 210.115 258.406 209.844 258.484 209.551V208.139C258.438 207.924 258.369 207.717 258.279 207.518C258.193 207.314 258.08 207.135 257.939 206.979C257.803 206.818 257.633 206.691 257.43 206.598C257.23 206.504 256.994 206.457 256.721 206.457C256.424 206.457 256.168 206.52 255.953 206.645C255.742 206.766 255.568 206.934 255.432 207.148C255.295 207.359 255.193 207.605 255.127 207.887C255.064 208.164 255.033 208.461 255.033 208.777ZM263.617 212.117C263.176 212.117 262.775 212.043 262.416 211.895C262.061 211.742 261.754 211.529 261.496 211.256C261.242 210.982 261.047 210.658 260.91 210.283C260.773 209.908 260.705 209.498 260.705 209.053V208.807C260.705 208.291 260.781 207.832 260.934 207.43C261.086 207.023 261.293 206.68 261.555 206.398C261.816 206.117 262.113 205.904 262.445 205.76C262.777 205.615 263.121 205.543 263.477 205.543C263.93 205.543 264.32 205.621 264.648 205.777C264.98 205.934 265.252 206.152 265.463 206.434C265.674 206.711 265.83 207.039 265.932 207.418C266.033 207.793 266.084 208.203 266.084 208.648V209.135H261.35V208.25H265V208.168C264.984 207.887 264.926 207.613 264.824 207.348C264.727 207.082 264.57 206.863 264.355 206.691C264.141 206.52 263.848 206.434 263.477 206.434C263.23 206.434 263.004 206.486 262.797 206.592C262.59 206.693 262.412 206.846 262.264 207.049C262.115 207.252 262 207.5 261.918 207.793C261.836 208.086 261.795 208.424 261.795 208.807V209.053C261.795 209.354 261.836 209.637 261.918 209.902C262.004 210.164 262.127 210.395 262.287 210.594C262.451 210.793 262.648 210.949 262.879 211.062C263.113 211.176 263.379 211.232 263.676 211.232C264.059 211.232 264.383 211.154 264.648 210.998C264.914 210.842 265.146 210.633 265.346 210.371L266.002 210.893C265.865 211.1 265.691 211.297 265.48 211.484C265.27 211.672 265.01 211.824 264.701 211.941C264.396 212.059 264.035 212.117 263.617 212.117ZM271.48 208.297L267.314 206.674V205.555L272.318 207.77V208.455L271.48 208.297ZM267.314 209.727L271.492 208.068L272.318 207.945V208.625L267.314 210.846V209.727Z" fill="#DDDDDD"/>
<rect x="218" y="135" width="161" height="27" fill="#29405A"/>
<path d="M244.242 149.062L248.291 150.703V151.852L243.498 149.631V148.957L244.242 149.062ZM248.291 147.715L244.248 149.379L243.498 149.461V148.781L248.291 146.566V147.715ZM253.213 149.01H251.051L251.039 148.102H253.002C253.326 148.102 253.609 148.047 253.852 147.938C254.094 147.828 254.281 147.672 254.414 147.469C254.551 147.262 254.619 147.016 254.619 146.73C254.619 146.418 254.559 146.164 254.438 145.969C254.32 145.77 254.139 145.625 253.893 145.535C253.65 145.441 253.342 145.395 252.967 145.395H251.303V153H250.172V144.469H252.967C253.404 144.469 253.795 144.514 254.139 144.604C254.482 144.689 254.773 144.826 255.012 145.014C255.254 145.197 255.438 145.432 255.562 145.717C255.688 146.002 255.75 146.344 255.75 146.742C255.75 147.094 255.66 147.412 255.48 147.697C255.301 147.979 255.051 148.209 254.73 148.389C254.414 148.568 254.043 148.684 253.617 148.734L253.213 149.01ZM253.16 153H250.605L251.244 152.08H253.16C253.52 152.08 253.824 152.018 254.074 151.893C254.328 151.768 254.521 151.592 254.654 151.365C254.787 151.135 254.854 150.863 254.854 150.551C254.854 150.234 254.797 149.961 254.684 149.73C254.57 149.5 254.393 149.322 254.15 149.197C253.908 149.072 253.596 149.01 253.213 149.01H251.602L251.613 148.102H253.816L254.057 148.43C254.467 148.465 254.814 148.582 255.1 148.781C255.385 148.977 255.602 149.227 255.75 149.531C255.902 149.836 255.979 150.172 255.979 150.539C255.979 151.07 255.861 151.52 255.627 151.887C255.396 152.25 255.07 152.527 254.648 152.719C254.227 152.906 253.73 153 253.16 153ZM261.363 151.535V146.66H262.453V153H261.416L261.363 151.535ZM261.568 150.199L262.02 150.188C262.02 150.609 261.975 151 261.885 151.359C261.799 151.715 261.658 152.023 261.463 152.285C261.268 152.547 261.012 152.752 260.695 152.9C260.379 153.045 259.994 153.117 259.541 153.117C259.232 153.117 258.949 153.072 258.691 152.982C258.438 152.893 258.219 152.754 258.035 152.566C257.852 152.379 257.709 152.135 257.607 151.834C257.51 151.533 257.461 151.172 257.461 150.75V146.66H258.545V150.762C258.545 151.047 258.576 151.283 258.639 151.471C258.705 151.654 258.793 151.801 258.902 151.91C259.016 152.016 259.141 152.09 259.277 152.133C259.418 152.176 259.562 152.197 259.711 152.197C260.172 152.197 260.537 152.109 260.807 151.934C261.076 151.754 261.27 151.514 261.387 151.213C261.508 150.908 261.568 150.57 261.568 150.199ZM265.723 153H264.639V145.992C264.639 145.535 264.721 145.15 264.885 144.838C265.053 144.521 265.293 144.283 265.605 144.123C265.918 143.959 266.289 143.877 266.719 143.877C266.844 143.877 266.969 143.885 267.094 143.9C267.223 143.916 267.348 143.939 267.469 143.971L267.41 144.855C267.328 144.836 267.234 144.822 267.129 144.814C267.027 144.807 266.926 144.803 266.824 144.803C266.594 144.803 266.395 144.85 266.227 144.943C266.062 145.033 265.938 145.166 265.852 145.342C265.766 145.518 265.723 145.734 265.723 145.992V153ZM267.07 146.66V147.492H263.637V146.66H267.07ZM269.895 153H268.811V145.992C268.811 145.535 268.893 145.15 269.057 144.838C269.225 144.521 269.465 144.283 269.777 144.123C270.09 143.959 270.461 143.877 270.891 143.877C271.016 143.877 271.141 143.885 271.266 143.9C271.395 143.916 271.52 143.939 271.641 143.971L271.582 144.855C271.5 144.836 271.406 144.822 271.301 144.814C271.199 144.807 271.098 144.803 270.996 144.803C270.766 144.803 270.566 144.85 270.398 144.943C270.234 145.033 270.109 145.166 270.023 145.342C269.938 145.518 269.895 145.734 269.895 145.992V153ZM271.242 146.66V147.492H267.809V146.66H271.242ZM274.939 153.117C274.498 153.117 274.098 153.043 273.738 152.895C273.383 152.742 273.076 152.529 272.818 152.256C272.564 151.982 272.369 151.658 272.232 151.283C272.096 150.908 272.027 150.498 272.027 150.053V149.807C272.027 149.291 272.104 148.832 272.256 148.43C272.408 148.023 272.615 147.68 272.877 147.398C273.139 147.117 273.436 146.904 273.768 146.76C274.1 146.615 274.443 146.543 274.799 146.543C275.252 146.543 275.643 146.621 275.971 146.777C276.303 146.934 276.574 147.152 276.785 147.434C276.996 147.711 277.152 148.039 277.254 148.418C277.355 148.793 277.406 149.203 277.406 149.648V150.135H272.672V149.25H276.322V149.168C276.307 148.887 276.248 148.613 276.146 148.348C276.049 148.082 275.893 147.863 275.678 147.691C275.463 147.52 275.17 147.434 274.799 147.434C274.553 147.434 274.326 147.486 274.119 147.592C273.912 147.693 273.734 147.846 273.586 148.049C273.438 148.252 273.322 148.5 273.24 148.793C273.158 149.086 273.117 149.424 273.117 149.807V150.053C273.117 150.354 273.158 150.637 273.24 150.902C273.326 151.164 273.449 151.395 273.609 151.594C273.773 151.793 273.971 151.949 274.201 152.062C274.436 152.176 274.701 152.232 274.998 152.232C275.381 152.232 275.705 152.154 275.971 151.998C276.236 151.842 276.469 151.633 276.668 151.371L277.324 151.893C277.188 152.1 277.014 152.297 276.803 152.484C276.592 152.672 276.332 152.824 276.023 152.941C275.719 153.059 275.357 153.117 274.939 153.117ZM279.756 147.656V153H278.672V146.66H279.727L279.756 147.656ZM281.736 146.625L281.73 147.633C281.641 147.613 281.555 147.602 281.473 147.598C281.395 147.59 281.305 147.586 281.203 147.586C280.953 147.586 280.732 147.625 280.541 147.703C280.35 147.781 280.188 147.891 280.055 148.031C279.922 148.172 279.816 148.34 279.738 148.535C279.664 148.727 279.615 148.938 279.592 149.168L279.287 149.344C279.287 148.961 279.324 148.602 279.398 148.266C279.477 147.93 279.596 147.633 279.756 147.375C279.916 147.113 280.119 146.91 280.365 146.766C280.615 146.617 280.912 146.543 281.256 146.543C281.334 146.543 281.424 146.553 281.525 146.572C281.627 146.588 281.697 146.605 281.736 146.625ZM287.449 150.844C287.449 150.645 287.418 150.469 287.355 150.316C287.297 150.16 287.191 150.02 287.039 149.895C286.891 149.77 286.684 149.65 286.418 149.537C286.156 149.424 285.824 149.309 285.422 149.191C285 149.066 284.619 148.928 284.279 148.775C283.939 148.619 283.648 148.441 283.406 148.242C283.164 148.043 282.979 147.814 282.85 147.557C282.721 147.299 282.656 147.004 282.656 146.672C282.656 146.34 282.725 146.033 282.861 145.752C282.998 145.471 283.193 145.227 283.447 145.02C283.705 144.809 284.012 144.645 284.367 144.527C284.723 144.41 285.119 144.352 285.557 144.352C286.197 144.352 286.74 144.475 287.186 144.721C287.635 144.963 287.977 145.281 288.211 145.676C288.445 146.066 288.562 146.484 288.562 146.93H287.438C287.438 146.609 287.369 146.326 287.232 146.08C287.096 145.83 286.889 145.635 286.611 145.494C286.334 145.35 285.982 145.277 285.557 145.277C285.154 145.277 284.822 145.338 284.561 145.459C284.299 145.58 284.104 145.744 283.975 145.951C283.85 146.158 283.787 146.395 283.787 146.66C283.787 146.84 283.824 147.004 283.898 147.152C283.977 147.297 284.096 147.432 284.256 147.557C284.42 147.682 284.627 147.797 284.877 147.902C285.131 148.008 285.434 148.109 285.785 148.207C286.27 148.344 286.688 148.496 287.039 148.664C287.391 148.832 287.68 149.021 287.906 149.232C288.137 149.439 288.307 149.676 288.416 149.941C288.529 150.203 288.586 150.5 288.586 150.832C288.586 151.18 288.516 151.494 288.375 151.775C288.234 152.057 288.033 152.297 287.771 152.496C287.51 152.695 287.195 152.85 286.828 152.959C286.465 153.064 286.059 153.117 285.609 153.117C285.215 153.117 284.826 153.062 284.443 152.953C284.064 152.844 283.719 152.68 283.406 152.461C283.098 152.242 282.85 151.973 282.662 151.652C282.479 151.328 282.387 150.953 282.387 150.527H283.512C283.512 150.82 283.568 151.072 283.682 151.283C283.795 151.49 283.949 151.662 284.145 151.799C284.344 151.936 284.568 152.037 284.818 152.104C285.072 152.166 285.336 152.197 285.609 152.197C286.004 152.197 286.338 152.143 286.611 152.033C286.885 151.924 287.092 151.768 287.232 151.564C287.377 151.361 287.449 151.121 287.449 150.844ZM289.576 149.9V149.766C289.576 149.309 289.643 148.885 289.775 148.494C289.908 148.1 290.1 147.758 290.35 147.469C290.6 147.176 290.902 146.949 291.258 146.789C291.613 146.625 292.012 146.543 292.453 146.543C292.898 146.543 293.299 146.625 293.654 146.789C294.014 146.949 294.318 147.176 294.568 147.469C294.822 147.758 295.016 148.1 295.148 148.494C295.281 148.885 295.348 149.309 295.348 149.766V149.9C295.348 150.357 295.281 150.781 295.148 151.172C295.016 151.562 294.822 151.904 294.568 152.197C294.318 152.486 294.016 152.713 293.66 152.877C293.309 153.037 292.91 153.117 292.465 153.117C292.02 153.117 291.619 153.037 291.264 152.877C290.908 152.713 290.604 152.486 290.35 152.197C290.1 151.904 289.908 151.562 289.775 151.172C289.643 150.781 289.576 150.357 289.576 149.9ZM290.66 149.766V149.9C290.66 150.217 290.697 150.516 290.771 150.797C290.846 151.074 290.957 151.32 291.105 151.535C291.258 151.75 291.447 151.92 291.674 152.045C291.9 152.166 292.164 152.227 292.465 152.227C292.762 152.227 293.021 152.166 293.244 152.045C293.471 151.92 293.658 151.75 293.807 151.535C293.955 151.32 294.066 151.074 294.141 150.797C294.219 150.516 294.258 150.217 294.258 149.9V149.766C294.258 149.453 294.219 149.158 294.141 148.881C294.066 148.6 293.953 148.352 293.801 148.137C293.652 147.918 293.465 147.746 293.238 147.621C293.016 147.496 292.754 147.434 292.453 147.434C292.156 147.434 291.895 147.496 291.668 147.621C291.445 147.746 291.258 147.918 291.105 148.137C290.957 148.352 290.846 148.6 290.771 148.881C290.697 149.158 290.66 149.453 290.66 149.766ZM300.586 151.535V146.66H301.676V153H300.639L300.586 151.535ZM300.791 150.199L301.242 150.188C301.242 150.609 301.197 151 301.107 151.359C301.021 151.715 300.881 152.023 300.686 152.285C300.49 152.547 300.234 152.752 299.918 152.9C299.602 153.045 299.217 153.117 298.764 153.117C298.455 153.117 298.172 153.072 297.914 152.982C297.66 152.893 297.441 152.754 297.258 152.566C297.074 152.379 296.932 152.135 296.83 151.834C296.732 151.533 296.684 151.172 296.684 150.75V146.66H297.768V150.762C297.768 151.047 297.799 151.283 297.861 151.471C297.928 151.654 298.016 151.801 298.125 151.91C298.238 152.016 298.363 152.09 298.5 152.133C298.641 152.176 298.785 152.197 298.934 152.197C299.395 152.197 299.76 152.109 300.029 151.934C300.299 151.754 300.492 151.514 300.609 151.213C300.73 150.908 300.791 150.57 300.791 150.199ZM304.412 147.656V153H303.328V146.66H304.383L304.412 147.656ZM306.393 146.625L306.387 147.633C306.297 147.613 306.211 147.602 306.129 147.598C306.051 147.59 305.961 147.586 305.859 147.586C305.609 147.586 305.389 147.625 305.197 147.703C305.006 147.781 304.844 147.891 304.711 148.031C304.578 148.172 304.473 148.34 304.395 148.535C304.32 148.727 304.271 148.938 304.248 149.168L303.943 149.344C303.943 148.961 303.98 148.602 304.055 148.266C304.133 147.93 304.252 147.633 304.412 147.375C304.572 147.113 304.775 146.91 305.021 146.766C305.271 146.617 305.568 146.543 305.912 146.543C305.99 146.543 306.08 146.553 306.182 146.572C306.283 146.588 306.354 146.605 306.393 146.625ZM309.814 152.227C310.072 152.227 310.311 152.174 310.529 152.068C310.748 151.963 310.928 151.818 311.068 151.635C311.209 151.447 311.289 151.234 311.309 150.996H312.34C312.32 151.371 312.193 151.721 311.959 152.045C311.729 152.365 311.426 152.625 311.051 152.824C310.676 153.02 310.264 153.117 309.814 153.117C309.338 153.117 308.922 153.033 308.566 152.865C308.215 152.697 307.922 152.467 307.688 152.174C307.457 151.881 307.283 151.545 307.166 151.166C307.053 150.783 306.996 150.379 306.996 149.953V149.707C306.996 149.281 307.053 148.879 307.166 148.5C307.283 148.117 307.457 147.779 307.688 147.486C307.922 147.193 308.215 146.963 308.566 146.795C308.922 146.627 309.338 146.543 309.814 146.543C310.311 146.543 310.744 146.645 311.115 146.848C311.486 147.047 311.777 147.32 311.988 147.668C312.203 148.012 312.32 148.402 312.34 148.84H311.309C311.289 148.578 311.215 148.342 311.086 148.131C310.961 147.92 310.789 147.752 310.57 147.627C310.355 147.498 310.104 147.434 309.814 147.434C309.482 147.434 309.203 147.5 308.977 147.633C308.754 147.762 308.576 147.938 308.443 148.16C308.314 148.379 308.221 148.623 308.162 148.893C308.107 149.158 308.08 149.43 308.08 149.707V149.953C308.08 150.23 308.107 150.504 308.162 150.773C308.217 151.043 308.309 151.287 308.438 151.506C308.57 151.725 308.748 151.9 308.971 152.033C309.197 152.162 309.479 152.227 309.814 152.227ZM316.189 153.117C315.748 153.117 315.348 153.043 314.988 152.895C314.633 152.742 314.326 152.529 314.068 152.256C313.814 151.982 313.619 151.658 313.482 151.283C313.346 150.908 313.277 150.498 313.277 150.053V149.807C313.277 149.291 313.354 148.832 313.506 148.43C313.658 148.023 313.865 147.68 314.127 147.398C314.389 147.117 314.686 146.904 315.018 146.76C315.35 146.615 315.693 146.543 316.049 146.543C316.502 146.543 316.893 146.621 317.221 146.777C317.553 146.934 317.824 147.152 318.035 147.434C318.246 147.711 318.402 148.039 318.504 148.418C318.605 148.793 318.656 149.203 318.656 149.648V150.135H313.922V149.25H317.572V149.168C317.557 148.887 317.498 148.613 317.396 148.348C317.299 148.082 317.143 147.863 316.928 147.691C316.713 147.52 316.42 147.434 316.049 147.434C315.803 147.434 315.576 147.486 315.369 147.592C315.162 147.693 314.984 147.846 314.836 148.049C314.688 148.252 314.572 148.5 314.49 148.793C314.408 149.086 314.367 149.424 314.367 149.807V150.053C314.367 150.354 314.408 150.637 314.49 150.902C314.576 151.164 314.699 151.395 314.859 151.594C315.023 151.793 315.221 151.949 315.451 152.062C315.686 152.176 315.951 152.232 316.248 152.232C316.631 152.232 316.955 152.154 317.221 151.998C317.486 151.842 317.719 151.633 317.918 151.371L318.574 151.893C318.438 152.1 318.264 152.297 318.053 152.484C317.842 152.672 317.582 152.824 317.273 152.941C316.969 153.059 316.607 153.117 316.189 153.117ZM326.648 144.469V153H325.512L321.217 146.42V153H320.086V144.469H321.217L325.529 151.066V144.469H326.648ZM328.201 149.9V149.766C328.201 149.309 328.268 148.885 328.4 148.494C328.533 148.1 328.725 147.758 328.975 147.469C329.225 147.176 329.527 146.949 329.883 146.789C330.238 146.625 330.637 146.543 331.078 146.543C331.523 146.543 331.924 146.625 332.279 146.789C332.639 146.949 332.943 147.176 333.193 147.469C333.447 147.758 333.641 148.1 333.773 148.494C333.906 148.885 333.973 149.309 333.973 149.766V149.9C333.973 150.357 333.906 150.781 333.773 151.172C333.641 151.562 333.447 151.904 333.193 152.197C332.943 152.486 332.641 152.713 332.285 152.877C331.934 153.037 331.535 153.117 331.09 153.117C330.645 153.117 330.244 153.037 329.889 152.877C329.533 152.713 329.229 152.486 328.975 152.197C328.725 151.904 328.533 151.562 328.4 151.172C328.268 150.781 328.201 150.357 328.201 149.9ZM329.285 149.766V149.9C329.285 150.217 329.322 150.516 329.396 150.797C329.471 151.074 329.582 151.32 329.73 151.535C329.883 151.75 330.072 151.92 330.299 152.045C330.525 152.166 330.789 152.227 331.09 152.227C331.387 152.227 331.646 152.166 331.869 152.045C332.096 151.92 332.283 151.75 332.432 151.535C332.58 151.32 332.691 151.074 332.766 150.797C332.844 150.516 332.883 150.217 332.883 149.9V149.766C332.883 149.453 332.844 149.158 332.766 148.881C332.691 148.6 332.578 148.352 332.426 148.137C332.277 147.918 332.09 147.746 331.863 147.621C331.641 147.496 331.379 147.434 331.078 147.434C330.781 147.434 330.52 147.496 330.293 147.621C330.07 147.746 329.883 147.918 329.73 148.137C329.582 148.352 329.471 148.6 329.396 148.881C329.322 149.158 329.285 149.453 329.285 149.766ZM339.328 151.77V144H340.418V153H339.422L339.328 151.77ZM335.062 149.9V149.777C335.062 149.293 335.121 148.854 335.238 148.459C335.359 148.061 335.529 147.719 335.748 147.434C335.971 147.148 336.234 146.93 336.539 146.777C336.848 146.621 337.191 146.543 337.57 146.543C337.969 146.543 338.316 146.613 338.613 146.754C338.914 146.891 339.168 147.092 339.375 147.357C339.586 147.619 339.752 147.936 339.873 148.307C339.994 148.678 340.078 149.098 340.125 149.566V150.105C340.082 150.57 339.998 150.988 339.873 151.359C339.752 151.73 339.586 152.047 339.375 152.309C339.168 152.57 338.914 152.771 338.613 152.912C338.312 153.049 337.961 153.117 337.559 153.117C337.188 153.117 336.848 153.037 336.539 152.877C336.234 152.717 335.971 152.492 335.748 152.203C335.529 151.914 335.359 151.574 335.238 151.184C335.121 150.789 335.062 150.361 335.062 149.9ZM336.152 149.777V149.9C336.152 150.217 336.184 150.514 336.246 150.791C336.312 151.068 336.414 151.312 336.551 151.523C336.688 151.734 336.861 151.9 337.072 152.021C337.283 152.139 337.535 152.197 337.828 152.197C338.188 152.197 338.482 152.121 338.713 151.969C338.947 151.816 339.135 151.615 339.275 151.365C339.416 151.115 339.525 150.844 339.604 150.551V149.139C339.557 148.924 339.488 148.717 339.398 148.518C339.312 148.314 339.199 148.135 339.059 147.979C338.922 147.818 338.752 147.691 338.549 147.598C338.35 147.504 338.113 147.457 337.84 147.457C337.543 147.457 337.287 147.52 337.072 147.645C336.861 147.766 336.688 147.934 336.551 148.148C336.414 148.359 336.312 148.605 336.246 148.887C336.184 149.164 336.152 149.461 336.152 149.777ZM344.736 153.117C344.295 153.117 343.895 153.043 343.535 152.895C343.18 152.742 342.873 152.529 342.615 152.256C342.361 151.982 342.166 151.658 342.029 151.283C341.893 150.908 341.824 150.498 341.824 150.053V149.807C341.824 149.291 341.9 148.832 342.053 148.43C342.205 148.023 342.412 147.68 342.674 147.398C342.936 147.117 343.232 146.904 343.564 146.76C343.896 146.615 344.24 146.543 344.596 146.543C345.049 146.543 345.439 146.621 345.768 146.777C346.1 146.934 346.371 147.152 346.582 147.434C346.793 147.711 346.949 148.039 347.051 148.418C347.152 148.793 347.203 149.203 347.203 149.648V150.135H342.469V149.25H346.119V149.168C346.104 148.887 346.045 148.613 345.943 148.348C345.846 148.082 345.689 147.863 345.475 147.691C345.26 147.52 344.967 147.434 344.596 147.434C344.35 147.434 344.123 147.486 343.916 147.592C343.709 147.693 343.531 147.846 343.383 148.049C343.234 148.252 343.119 148.5 343.037 148.793C342.955 149.086 342.914 149.424 342.914 149.807V150.053C342.914 150.354 342.955 150.637 343.037 150.902C343.123 151.164 343.246 151.395 343.406 151.594C343.57 151.793 343.768 151.949 343.998 152.062C344.232 152.176 344.498 152.232 344.795 152.232C345.178 152.232 345.502 152.154 345.768 151.998C346.033 151.842 346.266 151.633 346.465 151.371L347.121 151.893C346.984 152.1 346.811 152.297 346.6 152.484C346.389 152.672 346.129 152.824 345.82 152.941C345.516 153.059 345.154 153.117 344.736 153.117ZM352.6 149.297L348.434 147.674V146.555L353.438 148.77V149.455L352.6 149.297ZM348.434 150.727L352.611 149.068L353.438 148.945V149.625L348.434 151.846V150.727Z" fill="#DDDDDD"/>
<path d="M114.293 135.707C114.683 136.098 115.317 136.098 115.707 135.707L122.071 129.343C122.462 128.953 122.462 128.319 122.071 127.929C121.681 127.538 121.047 127.538 120.657 127.929L115 133.586L109.343 127.929C108.953 127.538 108.319 127.538 107.929 127.929C107.538 128.319 107.538 128.953 107.929 129.343L114.293 135.707ZM114 119V135H116V119H114Z" fill="#DDDDDD"/>
<path d="M297.293 135.707C297.683 136.098 298.317 136.098 298.707 135.707L305.071 129.343C305.462 128.953 305.462 128.319 305.071 127.929C304.681 127.538 304.047 127.538 303.657 127.929L298 133.586L292.343 127.929C291.953 127.538 291.319 127.538 290.929 127.929C290.538 128.319 290.538 128.953 290.929 129.343L297.293 135.707ZM297 119V135H299V119H297Z" fill="#DDDDDD"/>
<path d="M206.293 194.707C206.683 195.098 207.317 195.098 207.707 194.707L214.071 188.343C214.462 187.953 214.462 187.319 214.071 186.929C213.681 186.538 213.047 186.538 212.657 186.929L207 192.586L201.343 186.929C200.953 186.538 200.319 186.538 199.929 186.929C199.538 187.319 199.538 187.953 199.929 188.343L206.293 194.707ZM206 178V194H208V178H206Z" fill="#DDDDDD"/>
<path d="M205.939 254.061C206.525 254.646 207.475 254.646 208.061 254.061L217.607 244.515C218.192 243.929 218.192 242.979 217.607 242.393C217.021 241.808 216.071 241.808 215.485 242.393L207 250.879L198.515 242.393C197.929 241.808 196.979 241.808 196.393 242.393C195.808 242.979 195.808 243.929 196.393 244.515L205.939 254.061ZM205.5 221V253H208.5V221H205.5Z" fill="#DDDDDD"/>
<path d="M186.088 260.984L185.488 260.516C185.296 260.576 184.972 260.612 184.588 260.612C184.132 260.612 180.424 260.612 179.956 260.612C179.584 260.612 178.9 260.564 178.744 260.54V261.62C178.876 261.608 179.524 261.56 179.956 261.56C180.364 261.56 184.204 261.56 184.636 261.56C184.324 262.556 183.448 263.984 182.632 264.908C181.396 266.276 179.632 267.716 177.688 268.46L178.456 269.264C180.352 268.4 182.068 266.972 183.412 265.472C184.408 264.368 185.32 262.688 185.8 261.5C185.86 261.344 186.016 261.08 186.088 260.984ZM183.568 264.848L182.884 265.52C184.18 266.66 185.584 268.196 186.448 269.336L187.276 268.604C186.46 267.608 184.864 265.928 183.568 264.848ZM197.596 260.636C197.596 260.204 197.956 259.844 198.388 259.844C198.82 259.844 199.192 260.204 199.192 260.636C199.192 261.068 198.82 261.428 198.388 261.428C197.956 261.428 197.596 261.068 197.596 260.636ZM197.044 260.636C197.044 261.38 197.644 261.98 198.388 261.98C199.132 261.98 199.744 261.38 199.744 260.636C199.744 259.892 199.132 259.292 198.388 259.292C197.644 259.292 197.044 259.892 197.044 260.636ZM191.848 260H190.732C190.78 260.288 190.804 260.684 190.804 260.972C190.804 261.62 190.804 266.42 190.804 267.572C190.804 268.556 191.32 268.976 192.232 269.144C192.736 269.228 193.444 269.252 194.164 269.252C195.472 269.252 197.272 269.168 198.316 269.012V267.908C197.308 268.172 195.472 268.292 194.2 268.292C193.612 268.292 193 268.268 192.616 268.196C192.04 268.088 191.776 267.932 191.776 267.308C191.776 266.444 191.776 261.62 191.776 260.972C191.776 260.636 191.812 260.288 191.848 260ZM191.332 263.792L191.344 264.788C192.82 264.416 195.196 263.72 196.684 263.12C197.044 262.976 197.476 262.784 197.824 262.64L197.404 261.68C197.056 261.896 196.708 262.064 196.348 262.232C194.956 262.82 192.784 263.48 191.332 263.792ZM201.712 263.804V264.98C202.096 264.956 202.732 264.932 203.392 264.932C204.28 264.932 209.068 264.932 209.98 264.932C210.508 264.932 211.012 264.968 211.264 264.98V263.804C210.988 263.828 210.568 263.876 209.968 263.876C209.08 263.876 204.268 263.876 203.392 263.876C202.708 263.876 202.084 263.84 201.712 263.804ZM218.584 259.568H217.468C217.516 259.844 217.54 260.288 217.54 260.564C217.516 264.356 216.532 266.384 215.032 267.74C214.672 268.076 214.192 268.412 213.808 268.616L214.684 269.324C217.048 267.68 218.368 265.436 218.524 260.54C218.536 260.252 218.56 259.844 218.584 259.568ZM222.76 262.064L222.076 261.716C221.872 261.752 221.644 261.776 221.32 261.776H215.392C214.924 261.776 214.432 261.752 214.012 261.716V262.724C214.444 262.688 214.924 262.676 215.404 262.676H221.728C221.728 263.96 221.572 266.912 221.116 267.836C220.984 268.124 220.756 268.232 220.42 268.232C219.904 268.232 219.28 268.172 218.632 268.088L218.752 269.084C219.376 269.132 220.072 269.168 220.672 269.168C221.332 269.168 221.716 268.952 221.956 268.436C222.496 267.284 222.652 263.804 222.688 262.64C222.7 262.484 222.724 262.268 222.76 262.064ZM225.712 263.804V264.98C226.096 264.956 226.732 264.932 227.392 264.932C228.28 264.932 233.068 264.932 233.98 264.932C234.508 264.932 235.012 264.968 235.264 264.98V263.804C234.988 263.828 234.568 263.876 233.968 263.876C233.08 263.876 228.268 263.876 227.392 263.876C226.708 263.876 226.084 263.84 225.712 263.804Z" fill="#DDDDDD"/>
<line x1="115" y1="162" x2="115" y2="178" stroke="#DDDDDD" stroke-width="2"/>
<line x1="299" y1="179" x2="114" y2="179" stroke="#DDDDDD" stroke-width="2"/>
<line x1="298" y1="162" x2="298" y2="178" stroke="#DDDDDD" stroke-width="2"/>
</svg>
